<svg width="306" height="319" viewBox="0 0 306 319" fill="none" xmlns="http://www.w3.org/2000/svg">
<g clip-path="url(#clip0_1_6007)">
<path opacity="0.1" d="M152.58 318.99C223.919 318.99 281.75 309.812 281.75 298.49C281.75 287.168 223.919 277.99 152.58 277.99C81.2414 277.99 23.41 287.168 23.41 298.49C23.41 309.812 81.2414 318.99 152.58 318.99Z" fill="black"/>
<path opacity="0.1" d="M152.58 309.22C206.085 309.22 249.46 304.416 249.46 298.49C249.46 292.564 206.085 287.76 152.58 287.76C99.0747 287.76 55.7 292.564 55.7 298.49C55.7 304.416 99.0747 309.22 152.58 309.22Z" fill="black"/>
<path d="M257.635 211.731C273.669 209.002 284.454 193.791 281.725 177.758C278.996 161.724 263.785 150.938 247.751 153.667C231.718 156.397 220.932 171.607 223.661 187.641C226.391 203.675 241.601 214.46 257.635 211.731Z" fill="#FFEA00"/>
<path d="M276.226 188.541C279.454 175.543 271.534 162.39 258.536 159.162C245.538 155.934 232.385 163.855 229.157 176.852C225.93 189.85 233.85 203.004 246.848 206.231C259.845 209.459 272.999 201.539 276.226 188.541Z" fill="#FFAE00"/>
<path opacity="0.49" d="M274.361 187.444C276.991 175.48 269.424 163.649 257.459 161.019C245.495 158.389 233.664 165.956 231.034 177.92C228.404 189.885 235.971 201.716 247.935 204.346C259.9 206.976 271.731 199.409 274.361 187.444Z" fill="#BD8100"/>
<path d="M252.7 203.41C264.138 203.41 273.41 194.138 273.41 182.7C273.41 171.262 264.138 161.99 252.7 161.99C241.262 161.99 231.99 171.262 231.99 182.7C231.99 194.138 241.262 203.41 252.7 203.41Z" fill="url(#paint0_linear_1_6007)"/>
<path opacity="0.46" d="M255.77 183.08C255.77 183.08 260.82 185.26 262.66 180.84C263.86 177.95 262.5 175.75 259.35 174.21L260.63 171.12L258.37 170.18L257.1 173.23L254.06 171.97L255.33 168.92L253.07 167.98L251.8 171.03C251.49 170.9 251.19 170.78 250.92 170.66C249.9 170.24 249.21 169.95 249.21 169.95L246.6 168.86L246.01 170.27L247.19 170.76C247.98 171.09 248.36 172 248.03 172.79L242.29 186.59C241.96 187.38 241.05 187.76 240.26 187.43L239.08 186.94L238.49 188.35L242.81 190.15C243.08 190.26 243.38 190.39 243.69 190.52L242.42 193.57L244.68 194.51L245.95 191.46L248.99 192.72L247.72 195.77L249.98 196.71L251.25 193.66C251.28 193.67 251.32 193.69 251.34 193.7C252.5 194.18 257.49 196.45 259.72 191.1C261.96 185.75 255.77 183.08 255.77 183.08ZM253.46 173.44C253.46 173.44 255.58 174.32 256.32 174.63C257.52 175.13 257.93 177.2 257.17 179.02C256.41 180.84 254.78 182.07 253.71 181.62C252.63 181.17 250.6 180.33 250.6 180.33L253.46 173.44ZM250.05 191.43C248.28 190.69 246.58 189.99 246.58 189.99L249.92 181.96C249.92 181.96 251.78 182.73 253.29 183.36C254.8 183.99 255.09 186.68 254.33 188.5C253.57 190.33 251.51 192.04 250.05 191.43Z" fill="#BD8100"/>
<path d="M256.77 183.08C256.77 183.08 261.82 185.26 263.66 180.84C264.86 177.95 263.5 175.75 260.35 174.21L261.63 171.12L259.37 170.18L258.1 173.23L255.06 171.97L256.33 168.92L254.07 167.98L252.8 171.03C252.49 170.9 252.19 170.78 251.92 170.66C250.9 170.24 250.21 169.95 250.21 169.95L247.6 168.86L247.01 170.27L248.19 170.76C248.98 171.09 249.36 172 249.03 172.79L243.29 186.59C242.96 187.38 242.05 187.76 241.26 187.43L240.08 186.94L239.49 188.35L243.81 190.15C244.08 190.26 244.38 190.39 244.69 190.52L243.42 193.57L245.68 194.51L246.95 191.46L249.99 192.72L248.72 195.77L250.98 196.71L252.25 193.66C252.28 193.67 252.32 193.69 252.34 193.7C253.5 194.18 258.49 196.45 260.72 191.1C262.96 185.75 256.77 183.08 256.77 183.08ZM254.46 173.44C254.46 173.44 256.58 174.32 257.32 174.63C258.52 175.13 258.93 177.2 258.17 179.02C257.41 180.84 255.78 182.07 254.71 181.62C253.63 181.17 251.6 180.33 251.6 180.33L254.46 173.44ZM251.05 191.43C249.28 190.69 247.58 189.99 247.58 189.99L250.92 181.96C250.92 181.96 252.78 182.73 254.29 183.36C255.8 183.99 256.09 186.68 255.33 188.5C254.57 190.33 252.51 192.04 251.05 191.43Z" fill="#FFDB00"/>
<path d="M280.76 261.12H224.62C221.22 261.12 221.29 258.36 221.29 254.96C221.29 251.56 221.22 248.8 224.62 248.8H280.76C284.16 248.8 284.09 251.56 284.09 254.96C284.09 258.37 284.16 261.12 280.76 261.12Z" fill="#FFC800"/>
<path d="M229.84 248.81H225.99V261.12H229.84V248.81Z" fill="#FFEA00"/>
<path d="M239.88 248.81H236.03V261.12H239.88V248.81Z" fill="#FFEA00"/>
<path d="M249.92 248.81H246.07V261.12H249.92V248.81Z" fill="#FFEA00"/>
<path d="M280.03 248.81H276.18V261.12H280.03V248.81Z" fill="#FFEA00"/>
<path d="M269.99 248.81H266.14V261.12H269.99V248.81Z" fill="#FFEA00"/>
<path d="M259.95 248.81H256.1V261.12H259.95V248.81Z" fill="#FFEA00"/>
<path opacity="0.1" d="M283.37 249.96C283.29 250.57 283.19 251.22 283.08 251.89C282.55 255.23 282.2 257.85 279.01 257.85H226.36C223.17 257.85 222.82 255.23 222.29 251.89C222.18 251.22 222.08 250.57 222 249.96C221.26 251.08 221.28 252.9 221.28 254.97C221.28 258.37 221.21 261.13 224.61 261.13H280.75C284.15 261.13 284.08 258.37 284.08 254.97C284.09 252.9 284.11 251.08 283.37 249.96Z" fill="black"/>
<path d="M274.77 273.44H218.63C215.23 273.44 215.3 270.68 215.3 267.28C215.3 263.88 215.23 261.12 218.63 261.12H274.77C278.17 261.12 278.1 263.88 278.1 267.28C278.1 270.68 278.17 273.44 274.77 273.44Z" fill="#FFEA00"/>
<path d="M223.85 261.12H220V273.43H223.85V261.12Z" fill="#FFC800"/>
<path d="M233.89 261.12H230.04V273.43H233.89V261.12Z" fill="#FFC800"/>
<path d="M243.92 261.12H240.07V273.43H243.92V261.12Z" fill="#FFC800"/>
<path d="M274.04 261.12H270.19V273.43H274.04V261.12Z" fill="#FFC800"/>
<path d="M264 261.12H260.15V273.43H264V261.12Z" fill="#FFC800"/>
<path d="M253.96 261.12H250.11V273.43H253.96V261.12Z" fill="#FFC800"/>
<path opacity="0.1" d="M277.38 262.27C277.3 262.88 277.2 263.53 277.09 264.2C276.56 267.54 276.21 270.16 273.03 270.16H220.38C217.19 270.16 216.84 267.54 216.31 264.2C216.2 263.53 216.1 262.88 216.02 262.27C215.28 263.39 215.3 265.21 215.3 267.28C215.3 270.68 215.23 273.44 218.63 273.44H274.77C278.17 273.44 278.1 270.68 278.1 267.28C278.1 265.21 278.12 263.39 277.38 262.27Z" fill="black"/>
<path d="M285.46 285.75H229.32C225.92 285.75 225.99 282.99 225.99 279.59C225.99 276.19 225.92 273.43 229.32 273.43H285.46C288.86 273.43 288.79 276.19 288.79 279.59C288.78 282.99 288.86 285.75 285.46 285.75Z" fill="#FFEA00"/>
<path d="M234.53 273.44H230.68V285.75H234.53V273.44Z" fill="#FFC800"/>
<path d="M244.57 273.44H240.72V285.75H244.57V273.44Z" fill="#FFC800"/>
<path d="M254.61 273.44H250.76V285.75H254.61V273.44Z" fill="#FFC800"/>
<path d="M284.72 273.44H280.87V285.75H284.72V273.44Z" fill="#FFC800"/>
<path d="M274.68 273.44H270.83V285.75H274.68V273.44Z" fill="#FFC800"/>
<path d="M264.64 273.44H260.79V285.75H264.64V273.44Z" fill="#FFC800"/>
<path opacity="0.1" d="M288.06 274.59C287.98 275.2 287.88 275.85 287.77 276.52C287.24 279.86 286.89 282.48 283.71 282.48H231.06C227.87 282.48 227.52 279.86 226.99 276.52C226.88 275.85 226.78 275.2 226.7 274.59C225.96 275.71 225.98 277.53 225.98 279.6C225.98 283 225.91 285.76 229.31 285.76H285.45C288.85 285.76 288.78 283 288.78 279.6C288.78 277.53 288.81 275.7 288.06 274.59Z" fill="black"/>
<path d="M273.08 298.05H216.94C213.54 298.05 213.61 295.29 213.61 291.89C213.61 288.49 213.54 285.73 216.94 285.73H273.08C276.48 285.73 276.41 288.49 276.41 291.89C276.41 295.3 276.48 298.05 273.08 298.05Z" fill="#FFAE00"/>
<path d="M222.16 285.74H218.31V298.05H222.16V285.74Z" fill="#FFEA00"/>
<path d="M232.19 285.74H228.34V298.05H232.19V285.74Z" fill="#FFEA00"/>
<path d="M242.23 285.74H238.38V298.05H242.23V285.74Z" fill="#FFEA00"/>
<path d="M272.34 285.74H268.49V298.05H272.34V285.74Z" fill="#FFEA00"/>
<path d="M262.3 285.74H258.45V298.05H262.3V285.74Z" fill="#FFEA00"/>
<path d="M252.27 285.74H248.42V298.05H252.27V285.74Z" fill="#FFEA00"/>
<path opacity="0.1" d="M275.69 286.89C275.61 287.5 275.51 288.15 275.4 288.82C274.87 292.16 274.52 294.78 271.34 294.78H218.69C215.5 294.78 215.15 292.16 214.62 288.82C214.51 288.15 214.41 287.5 214.33 286.89C213.59 288.01 213.61 289.83 213.61 291.9C213.61 295.3 213.54 298.06 216.94 298.06H273.08C276.48 298.06 276.41 295.3 276.41 291.9C276.41 289.83 276.43 288.01 275.69 286.89Z" fill="black"/>
<path d="M274.77 224.19H218.63C215.23 224.19 215.3 221.43 215.3 218.03C215.3 214.63 215.23 211.87 218.63 211.87H274.77C278.17 211.87 278.1 214.63 278.1 218.03C278.1 221.44 278.17 224.19 274.77 224.19Z" fill="#FFEA00"/>
<path d="M223.85 211.88H220V224.19H223.85V211.88Z" fill="#FFAE00"/>
<path d="M233.89 211.88H230.04V224.19H233.89V211.88Z" fill="#FFAE00"/>
<path d="M243.92 211.88H240.07V224.19H243.92V211.88Z" fill="#FFAE00"/>
<path d="M274.04 211.88H270.19V224.19H274.04V211.88Z" fill="#FFAE00"/>
<path d="M264 211.88H260.15V224.19H264V211.88Z" fill="#FFAE00"/>
<path d="M253.96 211.88H250.11V224.19H253.96V211.88Z" fill="#FFAE00"/>
<path opacity="0.1" d="M277.38 213.03C277.3 213.64 277.2 214.29 277.09 214.96C276.56 218.3 276.21 220.92 273.03 220.92H220.38C217.19 220.92 216.84 218.3 216.31 214.96C216.2 214.29 216.1 213.64 216.02 213.03C215.28 214.15 215.3 215.97 215.3 218.04C215.3 221.44 215.23 224.2 218.63 224.2H274.77C278.17 224.2 278.1 221.44 278.1 218.04C278.1 215.97 278.12 214.15 277.38 213.03Z" fill="black"/>
<path d="M285.46 236.51H229.32C225.92 236.51 225.99 233.75 225.99 230.35C225.99 226.95 225.92 224.19 229.32 224.19H285.46C288.86 224.19 288.79 226.95 288.79 230.35C288.78 233.75 288.86 236.51 285.46 236.51Z" fill="#FFEA00"/>
<path d="M234.53 224.19H230.68V236.5H234.53V224.19Z" fill="#FFC800"/>
<path d="M244.57 224.19H240.72V236.5H244.57V224.19Z" fill="#FFC800"/>
<path d="M254.61 224.19H250.76V236.5H254.61V224.19Z" fill="#FFC800"/>
<path d="M284.72 224.19H280.87V236.5H284.72V224.19Z" fill="#FFC800"/>
<path d="M274.68 224.19H270.83V236.5H274.68V224.19Z" fill="#FFC800"/>
<path d="M264.64 224.19H260.79V236.5H264.64V224.19Z" fill="#FFC800"/>
<path opacity="0.1" d="M288.06 225.34C287.98 225.95 287.88 226.6 287.77 227.27C287.24 230.61 286.89 233.23 283.71 233.23H231.06C227.87 233.23 227.52 230.61 226.99 227.27C226.88 226.6 226.78 225.95 226.7 225.34C225.96 226.46 225.98 228.28 225.98 230.35C225.98 233.75 225.91 236.51 229.31 236.51H285.45C288.85 236.51 288.78 233.75 288.78 230.35C288.78 228.28 288.81 226.46 288.06 225.34Z" fill="black"/>
<path d="M273.08 248.81H216.94C213.54 248.81 213.61 246.05 213.61 242.65C213.61 239.25 213.54 236.49 216.94 236.49H273.08C276.48 236.49 276.41 239.25 276.41 242.65C276.41 246.06 276.48 248.81 273.08 248.81Z" fill="#FFEA00"/>
<path d="M222.16 236.5H218.31V248.81H222.16V236.5Z" fill="#FFAE00"/>
<path d="M232.19 236.5H228.34V248.81H232.19V236.5Z" fill="#FFAE00"/>
<path d="M242.23 236.5H238.38V248.81H242.23V236.5Z" fill="#FFAE00"/>
<path d="M272.34 236.5H268.49V248.81H272.34V236.5Z" fill="#FFAE00"/>
<path d="M262.3 236.5H258.45V248.81H262.3V236.5Z" fill="#FFAE00"/>
<path d="M252.27 236.5H248.42V248.81H252.27V236.5Z" fill="#FFAE00"/>
<path opacity="0.1" d="M275.69 237.65C275.61 238.26 275.51 238.91 275.4 239.58C274.87 242.92 274.52 245.54 271.34 245.54H218.69C215.5 245.54 215.15 242.92 214.62 239.58C214.51 238.91 214.41 238.26 214.33 237.65C213.59 238.77 213.61 240.59 213.61 242.66C213.61 246.06 213.54 248.82 216.94 248.82H273.08C276.48 248.82 276.41 246.06 276.41 242.66C276.41 240.59 276.43 238.76 275.69 237.65Z" fill="black"/>
<path opacity="0.1" d="M239.97 297.07L241.61 211.88H240.08H233.89H230.04H223.85H220H218.64C217.31 211.88 216.51 212.31 216.03 213.03C215.94 213.17 215.86 213.31 215.79 213.47C215.79 213.48 215.78 213.49 215.78 213.49C215.5 214.13 215.39 214.92 215.34 215.82C215.34 215.84 215.34 215.86 215.34 215.88C215.33 216.08 215.32 216.28 215.32 216.49C215.32 216.53 215.32 216.57 215.32 216.6C215.32 216.8 215.31 217 215.31 217.2C215.31 217.24 215.31 217.28 215.31 217.33C215.31 217.54 215.31 217.74 215.31 217.95C215.31 217.98 215.31 218 215.31 218.03C215.31 219.52 215.3 220.88 215.57 221.95C215.65 222.25 215.75 222.53 215.88 222.78C216.34 223.66 217.16 224.19 218.65 224.19H220H223.85H229.32C227.99 224.19 227.19 224.62 226.71 225.34C226.62 225.48 226.54 225.62 226.47 225.78C226.47 225.79 226.46 225.8 226.46 225.8C226.19 226.44 226.07 227.23 226.02 228.13C226.02 228.15 226.02 228.17 226.02 228.19C226.01 228.39 226 228.59 226 228.8C226 228.84 226 228.88 226 228.91C226 229.11 225.99 229.32 225.99 229.52C225.99 229.56 225.99 229.59 225.99 229.63C225.99 229.86 225.99 230.1 225.99 230.34C225.99 230.55 225.99 230.76 225.99 230.97C225.99 231.18 225.99 231.38 225.99 231.58C225.99 231.78 226 231.98 226 232.17C226.08 234.62 226.54 236.41 229.15 236.49H228.33H222.14H218.29H216.93C215.6 236.49 214.8 236.92 214.32 237.64C214.23 237.78 214.15 237.92 214.08 238.08C214.08 238.09 214.07 238.1 214.07 238.1C213.79 238.74 213.68 239.53 213.63 240.43C213.63 240.45 213.63 240.47 213.63 240.48C213.62 240.68 213.61 240.89 213.61 241.1C213.61 241.14 213.61 241.17 213.61 241.21C213.61 241.41 213.6 241.61 213.6 241.82C213.6 241.86 213.6 241.89 213.6 241.93C213.6 242.16 213.6 242.4 213.6 242.64C213.6 244.77 213.57 246.64 214.38 247.74C214.87 248.4 215.65 248.79 216.93 248.79H224.62C223.29 248.79 222.49 249.22 222.01 249.94C221.92 250.08 221.84 250.22 221.77 250.38C221.77 250.39 221.76 250.4 221.76 250.4C221.48 251.04 221.37 251.83 221.32 252.73C221.32 252.75 221.32 252.77 221.32 252.78C221.31 252.98 221.3 253.19 221.3 253.4C221.3 253.44 221.3 253.47 221.3 253.51C221.3 253.71 221.29 253.92 221.29 254.13C221.29 254.17 221.29 254.2 221.29 254.24C221.29 254.47 221.29 254.71 221.29 254.95C221.29 255.16 221.29 255.37 221.29 255.58C221.29 256.41 221.3 257.19 221.38 257.89C221.42 258.24 221.47 258.57 221.55 258.87C221.9 260.24 222.71 261.11 224.62 261.11H230.03H223.84H220H218.64C217.31 261.11 216.51 261.54 216.03 262.26C215.94 262.4 215.86 262.54 215.79 262.7C215.79 262.71 215.78 262.72 215.78 262.72C215.5 263.36 215.39 264.15 215.34 265.05C215.34 265.07 215.34 265.09 215.34 265.11C215.33 265.31 215.32 265.51 215.32 265.72C215.32 265.76 215.32 265.8 215.32 265.83C215.32 266.03 215.31 266.23 215.31 266.43C215.31 266.47 215.31 266.51 215.31 266.56C215.31 266.77 215.31 266.97 215.31 267.18C215.31 267.21 215.31 267.23 215.31 267.26C215.31 268.75 215.3 270.11 215.57 271.18C215.65 271.48 215.75 271.76 215.88 272.01C215.98 272.2 216.1 272.37 216.24 272.53C216.73 273.09 217.48 273.42 218.64 273.42H229.32C227.99 273.42 227.19 273.85 226.71 274.57C226.62 274.71 226.54 274.85 226.47 275.01C226.47 275.02 226.46 275.03 226.46 275.03C226.18 275.67 226.07 276.46 226.02 277.36C226.02 277.38 226.02 277.4 226.02 277.42C226.01 277.62 226 277.82 226 278.03C226 278.07 226 278.11 226 278.14C226 278.34 225.99 278.55 225.99 278.75C225.99 278.79 225.99 278.82 225.99 278.86C225.99 279.09 225.99 279.33 225.99 279.57C225.99 280.21 225.99 280.82 226.01 281.4C226.02 281.79 226.04 282.15 226.08 282.5C226.12 282.85 226.17 283.18 226.25 283.48C226.59 284.81 227.37 285.66 229.16 285.71H228.34H222.15H218.3H216.94C215.35 285.71 214.53 286.31 214.09 287.3C214.09 287.31 214.08 287.32 214.08 287.32C213.8 287.96 213.69 288.75 213.64 289.65C213.64 289.67 213.64 289.69 213.64 289.7C213.63 289.9 213.62 290.11 213.62 290.32C213.62 290.36 213.62 290.39 213.62 290.43C213.62 290.63 213.61 290.83 213.61 291.04C213.61 291.08 213.61 291.11 213.61 291.15C213.61 291.38 213.61 291.62 213.61 291.86C213.61 292.07 213.61 292.28 213.61 292.49C213.61 293.11 213.62 293.7 213.65 294.26C213.66 294.44 213.68 294.62 213.7 294.8C213.76 295.32 213.85 295.8 214 296.22C214.1 296.5 214.23 296.75 214.39 296.97C214.88 297.63 215.66 298.02 216.94 298.02H239.87C239.93 297.73 239.96 297.4 239.97 297.07Z" fill="black"/>
<path opacity="0.1" d="M228.47 165.96C227.86 166.85 227.29 167.77 226.76 168.74C226.24 169.71 225.78 170.7 225.38 171.7C225.38 171.7 225.38 171.7 225.38 171.71C225.21 172.13 225.05 172.55 224.9 172.98C224.86 173.09 224.83 173.19 224.79 173.3C223.82 176.17 223.32 179.12 223.25 182.05C223.19 184.69 223.49 187.32 224.12 189.86C224.12 189.87 224.13 189.89 224.13 189.9C224.88 192.87 226.09 195.72 227.73 198.33C227.97 198.71 228.22 199.09 228.47 199.46C228.47 199.46 228.47 199.46 228.47 199.47C228.73 199.84 228.99 200.21 229.27 200.57C230.79 202.56 232.57 204.38 234.62 205.96C234.69 206.02 234.76 206.08 234.84 206.13C235.2 206.4 235.56 206.66 235.94 206.92C235.94 206.92 235.95 206.92 235.95 206.93C236.84 207.54 237.76 208.11 238.73 208.64C239.68 209.15 240.65 209.6 241.63 210L242.69 155.02C240.31 155.88 238.03 157.05 235.92 158.5C235.92 158.5 235.92 158.5 235.91 158.5C235.54 158.76 235.17 159.02 234.81 159.3C232.82 160.81 231.01 162.6 229.43 164.63C229.37 164.71 229.3 164.78 229.24 164.86C228.99 165.22 228.73 165.58 228.47 165.96Z" fill="black"/>
<path d="M19.07 90.9399L10.26 67.8399C8.20001 62.4399 10.91 56.3999 16.31 54.3399C21.71 52.2799 27.75 54.9899 29.81 60.3899L38.62 83.4899L46.83 80.3599L37.25 55.2199C33.46 45.2799 22.33 40.2999 12.4 44.0899C2.46001 47.8799 -2.51999 58.9999 1.27001 68.9299L10.86 94.0699L19.07 90.9399Z" fill="url(#paint1_linear_1_6007)"/>
<path d="M7.88 86.2597L10.86 94.0697L19.07 90.9397L16.5 84.1897C13.61 85.0097 10.73 85.6997 7.88 86.2597Z" fill="url(#paint2_linear_1_6007)"/>
<path d="M36.04 76.7398L38.61 83.4898L46.82 80.3598L43.84 72.5498C41.34 74.0298 38.73 75.4298 36.04 76.7398Z" fill="url(#paint3_linear_1_6007)"/>
<path d="M72.95 131.22L25.22 149.42C21.99 150.65 18.38 149.03 17.15 145.8L0.53 102.21C-0.7 98.9799 0.92 95.3699 4.15 94.1399L51.88 75.9399C55.11 74.7099 58.72 76.3299 59.95 79.5599L76.57 123.15C77.8 126.38 76.18 129.99 72.95 131.22Z" fill="url(#paint4_linear_1_6007)"/>
<path d="M51.87 75.9399C55.1 74.7099 58.52 76.5599 59.51 80.0099L71.07 120.69C71.82 123.32 70.18 126.28 67.43 127.32L26.75 142.83C24 143.88 20.81 142.76 19.62 140.3L1.16 102.26C-0.41 99.0299 0.92 95.3699 4.15 94.1399C0.92 95.3699 -0.7 98.9899 0.53 102.21L17.15 145.8C18.38 149.03 22 150.65 25.22 149.42L72.95 131.22C76.18 129.99 77.8 126.37 76.57 123.15L59.95 79.5599C58.72 76.3299 55.1 74.7099 51.87 75.9399Z" fill="url(#paint5_linear_1_6007)"/>
<path d="M44.51 128.3C41.72 129.36 38.56 127.95 37.5 125.16L32.94 113.19C31.88 110.4 33.29 107.24 36.08 106.18C38.87 105.12 42.03 106.53 43.09 109.32L47.65 121.29C48.71 124.08 47.3 127.24 44.51 128.3Z" fill="#BD8100"/>
<path d="M44.2 101.83C46 106.55 43.63 111.83 38.91 113.63C34.19 115.43 28.91 113.06 27.11 108.34C25.31 103.62 27.68 98.34 32.4 96.54C37.12 94.74 42.4 97.11 44.2 101.83Z" fill="#BD8100"/>
<path d="M39.38 103.67C40.16 105.73 39.13 108.03 37.07 108.82C35.01 109.61 32.71 108.57 31.92 106.51C31.14 104.45 32.17 102.15 34.23 101.36C36.29 100.57 38.6 101.61 39.38 103.67Z" fill="#BD8100"/>
<path opacity="0.01" d="M76.65 127.38C76.71 127.19 76.77 127 76.82 126.8C77.09 125.63 77.03 124.36 76.57 123.15L59.95 79.5598C59.8 79.1598 59.61 78.7798 59.38 78.4298C59.27 78.2498 59.15 78.0898 59.02 77.9198C57.61 76.1198 55.29 75.2298 53 75.6398C52.95 76.6198 52.94 77.5498 52.96 78.4098H52.95L55 138.06L72.94 131.22C74.35 130.68 75.46 129.69 76.15 128.47C76.36 128.12 76.52 127.76 76.65 127.38Z" fill="black"/>
<path d="M231.3 137.68L251.1 113C248.82 113.23 246.46 112.61 244.54 111.07C242.62 109.53 241.51 107.36 241.24 105.08L221.44 129.76C219.26 132.47 219.7 136.47 222.41 138.65C225.13 140.83 229.13 140.4 231.3 137.68Z" fill="#7FC6DC"/>
<path opacity="0.1" d="M251.1 113C248.82 113.23 246.46 112.61 244.54 111.07C242.62 109.53 241.51 107.36 241.24 105.08L236.25 111.31C236.52 113.58 237.63 115.76 239.55 117.3C241.47 118.84 243.83 119.45 246.11 119.22L251.1 113Z" fill="black"/>
<path d="M255.01 98.0299C252.56 96.0699 250.49 93.8199 248.77 91.3799L241.49 100.45C238.38 104.32 239.01 110.04 242.88 113.15C246.75 116.26 252.47 115.63 255.58 111.76L262.86 102.69C260.1 101.53 257.46 99.9899 255.01 98.0299Z" fill="url(#paint6_linear_1_6007)"/>
<path opacity="0.1" d="M258.37 108.28L262.86 102.68C260.1 101.53 257.46 99.9899 255.01 98.0299C252.56 96.0699 250.49 93.8199 248.77 91.3799L244.47 96.7499C246.25 99.3799 248.45 101.8 251.06 103.89C253.34 105.72 255.81 107.16 258.37 108.28Z" fill="url(#paint7_linear_1_6007)"/>
<path d="M293.81 49.67C279.84 38.46 259.43 40.7 248.22 54.67C237.01 68.64 239.25 89.05 253.22 100.26C267.19 111.47 287.6 109.23 298.81 95.26C310.02 81.29 307.78 60.88 293.81 49.67ZM258.38 93.83C247.96 85.47 246.29 70.25 254.65 59.83C263.01 49.41 278.23 47.74 288.65 56.1C299.07 64.46 300.74 79.68 292.38 90.1C284.02 100.52 268.8 102.19 258.38 93.83Z" fill="url(#paint8_linear_1_6007)"/>
<path opacity="0.15" d="M289.59 54.9299C278.52 46.0499 262.35 47.8199 253.47 58.8899C244.59 69.9599 246.36 86.1299 257.43 95.0099C268.5 103.89 284.67 102.12 293.55 91.0499C302.43 79.9799 300.66 63.8099 289.59 54.9299ZM292.38 90.0999C284.02 100.52 268.8 102.19 258.38 93.8299C247.96 85.4699 246.29 70.2499 254.65 59.8299C263.01 49.4099 278.23 47.7399 288.65 56.0999C299.07 64.4599 300.74 79.6799 292.38 90.0999Z" fill="url(#paint9_linear_1_6007)"/>
<path d="M293.577 84.463C298.818 73.3793 294.082 60.1451 282.999 54.9037C271.915 49.6622 258.681 54.3983 253.439 65.482C248.198 76.5657 252.934 89.7998 264.018 95.0413C275.101 100.283 288.336 95.5467 293.577 84.463Z" fill="#E2FFFE"/>
<path d="M262.39 73.24C260.01 69.71 260.94 64.91 264.47 62.52C268 60.14 272.8 61.07 275.19 64.6C277.57 68.13 276.64 72.93 273.11 75.32C269.57 77.71 264.78 76.77 262.39 73.24Z" fill="white"/>
<path d="M276.28 85.56C274.94 83.57 275.46 80.87 277.45 79.53C279.44 78.19 282.14 78.71 283.48 80.7C284.82 82.69 284.3 85.39 282.31 86.73C280.32 88.07 277.62 87.54 276.28 85.56Z" fill="white"/>
<path opacity="0.1" d="M243.32 122.7L243.8 97.5601L241.49 100.44C239.92 102.4 239.31 104.83 239.58 107.15L237.94 109.2L221.44 129.76C219.26 132.47 219.7 136.47 222.41 138.65C225.12 140.83 229.12 140.39 231.3 137.68L243.32 122.7Z" fill="url(#paint10_linear_1_6007)"/>
<path opacity="0.1" d="M243.95 88.29C243.85 86.59 243.25 85.03 242.3 83.72C242.73 85.27 243.28 86.8 243.95 88.29Z" fill="url(#paint11_linear_1_6007)"/>
<path d="M168.95 65.3101C172.95 68.7001 173.45 74.6801 170.06 78.6801C166.67 82.6801 160.69 83.1801 156.69 79.7901C152.69 76.4001 152.19 70.4201 155.58 66.4201C158.96 62.4201 164.95 61.9201 168.95 65.3101Z" fill="#498B9D"/>
<path d="M168.13 65.59L156.83 78.94C155.91 80.03 154.28 80.16 153.2 79.24L139.63 67.76C138.54 66.84 138.41 65.21 139.33 64.13L150.63 50.78C151.55 49.69 153.18 49.56 154.26 50.48L167.83 61.96C168.92 62.87 169.05 64.5 168.13 65.59Z" fill="#579DB1"/>
<path d="M144.25 72.93C144.01 72.93 143.77 72.86 143.56 72.73C142.98 72.35 142.81 71.57 143.19 70.98L155.66 51.86C156.04 51.28 156.82 51.11 157.41 51.49C157.99 51.87 158.16 52.65 157.78 53.24L145.31 72.36C145.07 72.73 144.66 72.93 144.25 72.93Z" fill="#7FC6DC"/>
<path d="M148.72 76.71C148.48 76.71 148.24 76.64 148.03 76.51C147.45 76.13 147.28 75.35 147.66 74.76L160.13 55.64C160.51 55.06 161.29 54.89 161.88 55.27C162.46 55.65 162.63 56.43 162.25 57.02L149.78 76.14C149.53 76.51 149.13 76.71 148.72 76.71Z" fill="#7FC6DC"/>
<path d="M153.18 80.49C152.94 80.49 152.7 80.42 152.49 80.29C151.91 79.91 151.74 79.13 152.12 78.54L164.59 59.42C164.97 58.84 165.75 58.67 166.34 59.05C166.92 59.43 167.09 60.21 166.71 60.8L154.24 79.92C154 80.29 153.59 80.49 153.18 80.49Z" fill="#7FC6DC"/>
<path d="M132.14 7.12997C119.45 -3.61003 100.45 -2.04003 89.71 10.65C78.97 23.34 80.54 42.34 93.23 53.08C98.57 57.6 105.02 59.93 111.51 60.18C117.63 60.9 127.15 59.88 138.72 66.49C139.41 66.89 140.28 66.75 140.8 66.14L146.83 59.01L152.86 51.88C153.37 51.27 153.37 50.39 152.86 49.77C144.43 39.45 143.86 29.89 142.14 23.97C140.85 17.63 137.48 11.65 132.14 7.12997Z" fill="url(#paint12_linear_1_6007)"/>
<path d="M124.31 39.16C118.56 45.95 111.95 49.17 111.85 49.22L111.31 48.08C111.45 48.01 125.83 40.98 130.19 25.78L131.4 26.13C129.89 31.41 127.21 35.73 124.31 39.16Z" fill="white"/>
<path d="M144.42 62.0598L142.61 63.8198C142.5 63.7098 131.56 52.6998 112.61 50.0498L112.96 47.5498C132.81 50.3298 143.96 61.5798 144.42 62.0598Z" fill="white"/>
<path d="M113.29 46.0198C111.73 45.8198 110.31 46.9198 110.11 48.4798C109.91 50.0398 111.01 51.4598 112.57 51.6598C114.13 51.8598 115.55 50.7598 115.75 49.1998C115.95 47.6498 114.85 46.2198 113.29 46.0198Z" fill="white"/>
<path d="M149.44 56.1397C148.89 55.7597 135.95 46.6197 129.95 27.4997L132.36 26.7397C138.11 45.0397 150.76 53.9697 150.88 54.0597L149.44 56.1397Z" fill="white"/>
<path d="M133.94 26.4299C133.49 24.9299 131.9 24.0699 130.4 24.5299C128.9 24.9799 128.04 26.5699 128.5 28.0699C128.95 29.5699 130.54 30.4299 132.04 29.9699C133.54 29.5199 134.39 27.9299 133.94 26.4299Z" fill="white"/>
<path opacity="0.3" d="M125.39 8.78985C126.1 12.9698 119.87 17.5098 111.48 18.9298C103.09 20.3498 95.71 18.1198 95 13.9398C94.29 9.75985 100.52 5.21985 108.91 3.79985C117.31 2.37985 124.68 4.60985 125.39 8.78985Z" fill="white"/>
<path opacity="0.3" d="M115.99 8.21996C116.3 10.05 113.91 11.98 110.64 12.54C107.38 13.09 104.48 12.06 104.17 10.23C103.86 8.39996 106.25 6.46996 109.52 5.90996C112.78 5.34996 115.68 6.38996 115.99 8.21996Z" fill="white"/>
<path opacity="0.05" d="M152.56 49.3799L147.08 53.2999L138.47 59.4599C137.76 59.9699 136.68 59.9799 135.89 59.5099C123.05 51.9299 112.6 51.8799 106.35 50.6499C99.96 49.8399 93.97 47.2999 89.28 43.0999C86.47 40.5799 84.34 37.5999 82.9 34.3699C83.9 41.4099 87.39 48.1299 93.24 53.0899C98.58 57.6099 105.03 59.9399 111.52 60.1899C117.64 60.9099 127.16 59.8899 138.73 66.4999C139.42 66.8999 140.29 66.7599 140.81 66.1499L146.84 59.0199L152.87 51.8899C153.38 51.2799 153.38 50.3999 152.87 49.7799C152.77 49.6499 152.67 49.5099 152.56 49.3799Z" fill="black"/>
<path opacity="0.08" d="M98.54 56.6799C98.91 56.8799 99.28 57.0699 99.66 57.2499C100.41 57.6099 101.18 57.9399 101.95 58.2299C105.04 59.4099 108.28 60.0499 111.52 60.1799C117.64 60.8999 127.16 59.8799 138.73 66.4899C138.77 66.5099 138.8 66.5199 138.84 66.5399C138.98 66.9899 139.24 67.4199 139.63 67.7499L143.28 70.8399L143.19 70.9699C142.81 71.5499 142.97 72.3299 143.56 72.7199C143.77 72.8599 144.01 72.9199 144.25 72.9199C144.61 72.9199 144.96 72.7599 145.21 72.4699L147.75 74.6199L147.66 74.7499C147.28 75.3299 147.44 76.1099 148.03 76.4999C148.24 76.6399 148.48 76.6999 148.72 76.6999C149.08 76.6999 149.43 76.5399 149.68 76.2499L152.22 78.3999L152.13 78.5299C151.75 79.1099 151.91 79.8899 152.5 80.2799C152.71 80.4199 152.95 80.4799 153.19 80.4799C153.6 80.4799 154.01 80.2799 154.25 79.9099L154.34 79.7799C155.01 79.9199 155.71 79.7899 156.3 79.4099C156.43 79.5399 156.56 79.6699 156.71 79.7899C160.71 83.1799 166.7 82.6799 170.08 78.6799C173.47 74.6799 172.97 68.6899 168.97 65.3099C168.83 65.1899 168.68 65.0799 168.53 64.9699C168.99 63.9499 168.75 62.7099 167.85 61.9499L166.64 60.9299L166.73 60.7999C167.11 60.2199 166.95 59.4399 166.36 59.0499C165.82 58.6999 165.12 58.8199 164.71 59.2999L162.17 57.1499L162.26 57.0199C162.64 56.4399 162.48 55.6599 161.89 55.2699C161.35 54.9199 160.65 55.0399 160.24 55.5199L157.7 53.3699L157.79 53.2399C158.17 52.6599 158.01 51.8799 157.42 51.4899C156.88 51.1399 156.18 51.2599 155.77 51.7399L154.27 50.4699C153.88 50.1399 153.42 49.9499 152.95 49.8899C152.93 49.8599 152.91 49.8199 152.88 49.7899C152.7 49.5799 152.55 49.3599 152.38 49.1499L94.54 54.1299C95.82 55.0899 97.16 55.9499 98.54 56.6799Z" fill="black"/>
<path d="M221.27 261.82L78.54 271.51C74.2 271.8 70.62 268.55 70.54 264.23L67.03 70.9601C66.95 66.4601 70.48 62.4901 74.91 62.1001L220.83 49.2301C225.4 48.8301 229.11 52.2201 229.11 56.7901L229.35 253.33C229.36 257.72 225.74 261.52 221.27 261.82Z" fill="#0CC29E"/>
<path d="M221.28 265.95L78.61 275.58C74.27 275.87 70.69 272.62 70.61 268.3L67.11 75.2001C67.03 70.7001 70.56 66.7401 74.99 66.3501L220.84 53.5501C225.41 53.1501 229.11 56.5401 229.12 61.1101L229.36 257.47C229.36 261.85 225.74 265.65 221.28 265.95Z" fill="#0CC29E"/>
<path opacity="0.15" d="M221.28 265.95C221.84 265.91 222.38 265.82 222.91 265.68L227.8 107.46L227.26 107.39V106.53L227.8 106.59L227.45 103.15L227.26 103.12V101.3L226.84 97.2001L226.33 97.1401L226.32 92.1801L226.22 91.2401L225.63 91.1901L225.62 85.4201L225 79.4201H224.75V76.9501L224.67 76.1201L223.41 76.1001L224.16 71.2101L223.5 64.8301L223.07 64.8501L223.06 60.5701L223 59.8901L75.57 72.2201C75.57 72.2201 72.78 80.0201 76.72 87.5101L79.98 275.49L221.28 265.95ZM100.94 76.8101V76.9801L91.94 76.8001L100.94 76.8101Z" fill="#0CC29E"/>
<path d="M224.42 103.71L224.41 94.85L95.59 85.74L95.66 90.2L224.42 103.71Z" fill="#E3E3E3"/>
<path d="M223.71 88.09L120.32 85L120.4 91.47L223.73 99.73L223.71 88.09Z" fill="#E3E3E3"/>
<path d="M222.25 73.8701L98.99 77.1801L99.12 85.7501L219.87 89.3001L222.25 73.8701Z" fill="#E3E3E3"/>
<path d="M221.15 63.23L112.9 72.9L221.17 72.97L221.15 63.23Z" fill="#E3E3E3"/>
<path d="M225.34 103.96L225.36 114.11L96.24 97.8L95.59 85.74L225.34 103.96Z" fill="#E3E3E3"/>
<path d="M222.84 79.5999L222.85 88.0199L98.99 77.1799L222.84 79.5999Z" fill="#E3E3E3"/>
<path d="M112.08 90.48L225.35 103.96L224.93 99.86L95.59 85.74L224.41 94.85L224.31 93.91L120.32 85L223.71 88.09L223.09 82.08L90.03 79.46L222.84 79.6L222.76 78.77L99 77.17L222.26 73.86L221.6 67.48L112.9 72.9L221.16 63.23L221.09 62.54L75.57 72.22C75.57 72.22 70.09 84.41 75.91 91.9L225.89 109.25L225.54 105.81L112.08 90.48Z" fill="white"/>
<path d="M225.89 110.11L220.04 299.44L78.31 292.25L74.79 89.45L225.89 110.11Z" fill="#E3E3E3"/>
<path d="M227.17 300.59L79.32 298.16C74.81 298.09 71.09 294.45 71.01 290.03L67.42 92.2799C67.34 87.6699 71 83.9299 75.62 83.9299L226.86 83.9599C231.58 83.9599 235.41 87.7499 235.42 92.4099L235.53 292.63C235.52 297.11 231.78 300.66 227.17 300.59Z" fill="#0DCCA7"/>
<path d="M71.51 67.25L71.76 62.47C63.41 66.98 61.66 76.48 61.74 82.51L64.52 281.42V281.43C64.87 293.55 73.2 299.55 73.2 299.55L69.66 102.2L70.44 87.35C65.19 79.11 70.14 69.57 71.51 67.25Z" fill="#0DCCA7"/>
<path d="M227.17 304.79L79.38 302.32C74.87 302.24 71.16 298.61 71.08 294.2L67.5 96.62C67.42 92.02 71.08 88.28 75.69 88.28L226.86 88.36C231.58 88.36 235.41 92.15 235.41 96.81L235.52 296.85C235.53 301.31 231.79 304.87 227.17 304.79Z" fill="url(#paint13_linear_1_6007)"/>
<path opacity="0.05" d="M114.97 211.84C115.08 199.38 112.61 184.75 106.38 167.59C106.38 167.59 84.98 178.45 68.71 163.71L70.8 278.84C86.95 272.04 115.62 254.03 114.97 211.84Z" fill="black"/>
<path opacity="0.05" d="M99.92 283.49C95.93 282.85 92.39 279.06 91.99 275L73.96 88.46C70.2 89.26 67.42 92.6 67.5 96.61L71.08 294.19C71.16 298.6 74.88 302.24 79.38 302.31L227.17 304.78C228.15 304.8 229.09 304.64 229.97 304.35L99.92 283.49Z" fill="black"/>
<path d="M55.7 150.52C71.59 181.37 101.98 165.95 101.98 165.95C136.57 261.31 55.7 278.61 55.7 278.61C55.7 278.61 -25.17 261.31 9.42002 165.95C9.42002 165.95 39.81 181.38 55.7 150.52Z" fill="#65BCD7"/>
<path d="M55.7 148.34C71.59 179.19 101.98 163.77 101.98 163.77C136.57 259.13 55.7 276.43 55.7 276.43C55.7 276.43 -25.17 259.13 9.42002 163.77C9.42002 163.77 39.81 179.19 55.7 148.34Z" fill="url(#paint14_linear_1_6007)"/>
<path opacity="0.05" d="M55.7 165.45C69.65 194.22 97.2 178.46 97.2 178.46C119.65 256.85 55.7 269.12 55.7 269.12C55.7 269.12 -8.24998 256.85 14.2 178.46C14.2 178.46 41.75 194.22 55.7 165.45Z" fill="black"/>
<path d="M55.7 163.99C69.05 192.07 95.42 178.34 95.42 178.34C116.91 254.85 55.7 266.83 55.7 266.83C55.7 266.83 -5.50997 254.85 15.98 178.34C15.98 178.33 42.35 192.07 55.7 163.99Z" fill="#26C2C7"/>
<path opacity="0.05" d="M95.42 178.33C95.42 178.33 95.3 178.39 95.08 178.49C113.21 252.84 55.7 264.13 55.7 264.13C55.7 264.13 -1.81997 252.84 16.32 178.49C16.1 178.39 15.98 178.33 15.98 178.33C-5.50997 254.84 55.7 266.82 55.7 266.82C55.7 266.82 116.91 254.85 95.42 178.33Z" fill="black"/>
<path opacity="0.15" d="M55.7 181.48C65.27 201.23 84.18 190.41 84.18 190.41C99.59 244.21 55.7 252.63 55.7 252.63C55.7 252.63 11.81 244.21 27.22 190.41C27.22 190.41 46.13 201.23 55.7 181.48Z" fill="black"/>
<path d="M55.7 180.48C64.86 199.75 82.96 190.33 82.96 190.33C97.71 242.84 55.7 251.07 55.7 251.07C55.7 251.07 13.69 242.85 28.44 190.33C28.44 190.32 46.54 199.75 55.7 180.48Z" fill="url(#paint15_linear_1_6007)"/>
<path opacity="0.2" d="M55.7 184.98C49.19 198.68 38.16 197.88 32.33 196.27C37.67 218.64 55.7 222.96 55.7 222.96C55.7 222.96 73.73 218.63 79.07 196.27C73.24 197.88 62.21 198.68 55.7 184.98Z" fill="white"/>
<path opacity="0.05" d="M82.96 190.32C82.96 190.32 82.88 190.36 82.73 190.43C95.17 241.46 55.7 249.21 55.7 249.21C55.7 249.21 16.22 241.46 28.67 190.43C28.52 190.36 28.44 190.32 28.44 190.32C13.69 242.83 55.7 251.06 55.7 251.06C55.7 251.06 97.71 242.84 82.96 190.32Z" fill="black"/>
<path opacity="0.05" d="M26.24 188.09C26.24 188.09 45.8 198.35 55.7 177.38C65.6 198.35 85.16 188.09 85.16 188.09C86.25 192 87.05 195.68 87.6 199.15C89.61 195.37 91.33 191.08 92.6 186.18C83.39 188.52 65.99 189.69 55.7 169.73C45.42 189.69 28.01 188.52 18.8 186.18C20.07 191.08 21.79 195.37 23.8 199.15C24.35 195.68 25.15 192 26.24 188.09Z" fill="white"/>
</g>
<defs>
<linearGradient id="paint0_linear_1_6007" x1="231.982" y1="182.697" x2="273.41" y2="182.697" gradientUnits="userSpaceOnUse">
<stop stop-color="#FFDC0A"/>
<stop offset="0.6466" stop-color="#FFB503"/>
<stop offset="1" stop-color="#FFA500"/>
</linearGradient>
<linearGradient id="paint1_linear_1_6007" x1="1.31384e-05" y1="68.4462" x2="46.8274" y2="68.4462" gradientUnits="userSpaceOnUse">
<stop stop-color="#FFDC0A"/>
<stop offset="0.6466" stop-color="#FFB503"/>
<stop offset="1" stop-color="#FFA500"/>
</linearGradient>
<linearGradient id="paint2_linear_1_6007" x1="7.8759" y1="89.1335" x2="19.068" y2="89.1335" gradientUnits="userSpaceOnUse">
<stop stop-color="#FFDC0A"/>
<stop offset="0.6466" stop-color="#FFB503"/>
<stop offset="1" stop-color="#FFA500"/>
</linearGradient>
<linearGradient id="paint3_linear_1_6007" x1="36.0405" y1="78.0187" x2="46.8274" y2="78.0187" gradientUnits="userSpaceOnUse">
<stop stop-color="#FFDC0A"/>
<stop offset="0.6466" stop-color="#FFB503"/>
<stop offset="1" stop-color="#FFA500"/>
</linearGradient>
<linearGradient id="paint4_linear_1_6007" x1="0.1187" y1="112.68" x2="76.9789" y2="112.68" gradientUnits="userSpaceOnUse">
<stop stop-color="#FFDC0A"/>
<stop offset="0.6466" stop-color="#FFB503"/>
<stop offset="1" stop-color="#FFA500"/>
</linearGradient>
<linearGradient id="paint5_linear_1_6007" x1="0.1187" y1="112.68" x2="76.9789" y2="112.68" gradientUnits="userSpaceOnUse">
<stop stop-color="#FFDC0A"/>
<stop offset="0.6466" stop-color="#FFB503"/>
<stop offset="1" stop-color="#FFA500"/>
</linearGradient>
<linearGradient id="paint6_linear_1_6007" x1="239.517" y1="103.249" x2="262.857" y2="103.249" gradientUnits="userSpaceOnUse">
<stop stop-color="#58FCD8"/>
<stop offset="0.3628" stop-color="#33EDE8"/>
<stop offset="0.7791" stop-color="#0EDFF9"/>
<stop offset="1" stop-color="#00D9FF"/>
</linearGradient>
<linearGradient id="paint7_linear_1_6007" x1="244.464" y1="99.8288" x2="262.857" y2="99.8288" gradientUnits="userSpaceOnUse">
<stop stop-color="#58FCD8"/>
<stop offset="0.3628" stop-color="#33EDE8"/>
<stop offset="0.7791" stop-color="#0EDFF9"/>
<stop offset="1" stop-color="#00D9FF"/>
</linearGradient>
<linearGradient id="paint8_linear_1_6007" x1="241.082" y1="74.9679" x2="305.945" y2="74.9679" gradientUnits="userSpaceOnUse">
<stop stop-color="#58FCD8"/>
<stop offset="0.3628" stop-color="#33EDE8"/>
<stop offset="0.7791" stop-color="#0EDFF9"/>
<stop offset="1" stop-color="#00D9FF"/>
</linearGradient>
<linearGradient id="paint9_linear_1_6007" x1="247.819" y1="74.9677" x2="299.208" y2="74.9677" gradientUnits="userSpaceOnUse">
<stop stop-color="#58FCD8"/>
<stop offset="0.3628" stop-color="#33EDE8"/>
<stop offset="0.7791" stop-color="#0EDFF9"/>
<stop offset="1" stop-color="#00D9FF"/>
</linearGradient>
<linearGradient id="paint10_linear_1_6007" x1="220.057" y1="118.805" x2="243.804" y2="118.805" gradientUnits="userSpaceOnUse">
<stop stop-color="#58FCD8"/>
<stop offset="0.3628" stop-color="#33EDE8"/>
<stop offset="0.7791" stop-color="#0EDFF9"/>
<stop offset="1" stop-color="#00D9FF"/>
</linearGradient>
<linearGradient id="paint11_linear_1_6007" x1="242.298" y1="86.0022" x2="243.953" y2="86.0022" gradientUnits="userSpaceOnUse">
<stop stop-color="#58FCD8"/>
<stop offset="0.3628" stop-color="#33EDE8"/>
<stop offset="0.7791" stop-color="#0EDFF9"/>
<stop offset="1" stop-color="#00D9FF"/>
</linearGradient>
<linearGradient id="paint12_linear_1_6007" x1="82.5836" y1="33.3596" x2="153.257" y2="33.3596" gradientUnits="userSpaceOnUse">
<stop stop-color="#99FFE2"/>
<stop offset="1" stop-color="#CDF7F0"/>
</linearGradient>
<linearGradient id="paint13_linear_1_6007" x1="67.4954" y1="196.537" x2="235.523" y2="196.537" gradientUnits="userSpaceOnUse">
<stop stop-color="#00FFB7"/>
<stop offset="1" stop-color="#27DEBF"/>
</linearGradient>
<linearGradient id="paint14_linear_1_6007" x1="0.817221" y1="212.383" x2="110.585" y2="212.383" gradientUnits="userSpaceOnUse">
<stop stop-color="#58FCD8"/>
<stop offset="0.3628" stop-color="#33EDE8"/>
<stop offset="0.7791" stop-color="#0EDFF9"/>
<stop offset="1" stop-color="#00D9FF"/>
</linearGradient>
<linearGradient id="paint15_linear_1_6007" x1="25.3006" y1="215.769" x2="86.1012" y2="215.769" gradientUnits="userSpaceOnUse">
<stop stop-color="#58FCD8"/>
<stop offset="0.3628" stop-color="#33EDE8"/>
<stop offset="0.7791" stop-color="#0EDFF9"/>
<stop offset="1" stop-color="#00D9FF"/>
</linearGradient>
<clipPath id="clip0_1_6007">
<rect width="305.94" height="318.98" fill="white"/>
</clipPath>
</defs>
</svg>
