<svg width="313" height="376" viewBox="0 0 313 376" fill="none" xmlns="http://www.w3.org/2000/svg">
<g clip-path="url(#clip0_1_6229)">
<path d="M79.87 301.96C27.36 318.92 5.97002 335.3 6.32002 336.59C6.84002 338.53 56.81 306.71 91.03 333.49C101.39 341.6 98.76 346.05 109.62 356.23C142.14 386.72 201.49 380.39 228.63 344.86C235.93 335.3 236.77 329.03 244.75 324.71C268.91 311.6 300.89 347.57 303.84 342.8C305.68 339.81 295.66 321.68 279.05 306.62C222.9 255.75 138.76 282.93 79.87 301.96Z" fill="#E6E6E6"/>
<path d="M312.04 316.62C312.7 319.53 310.11 322.09 307.42 321.18C269.91 308.61 176.63 286.96 86.54 305.19C61.48 310.26 16.92 318.57 3.55 321.05C1.71 321.39 0.140004 319.62 0.570004 317.69L14.95 253.47C16.64 245.91 17.7 238.2 18.07 230.44C19.24 205.95 16.46 183.37 17.36 175.79C17.76 172.45 19.27 169.39 21.63 167.14C29.1 160.02 45.91 144.24 52.26 140.36C52.83 140.01 68.91 130.19 67.35 125.33C66.15 121.59 52.71 119.51 52.71 119.51C52.71 119.51 56.47 100.03 66.89 93.8199C75.27 88.8299 83.96 89.7099 86.53 89.9399C102.41 91.3899 147.45 89.1299 237.53 84.6099C240.72 84.4499 249.8 83.9599 258.55 89.4599C270.8 97.1599 272.45 121.98 272.45 121.98C272.45 121.98 259.46 112.52 249.4 115.15C246.29 115.96 266.32 136.15 270.48 139.21C274.61 142.24 290.23 158.4 295.99 167.83C298.13 171.33 299.56 175.24 300.22 179.35C300.27 179.66 300.28 179.98 300.25 180.29L297.14 219.93C295.96 234.98 297.05 250.14 300.36 264.83L312.04 316.62Z" fill="#0C192B" stroke="#4D4D4D" stroke-miterlimit="10"/>
<path opacity="0.19" d="M61.7 139.75C60.63 138.58 52.06 145.5 36.67 157.91C27.2 165.55 22.97 169.47 23.16 174.74C23.29 178.47 25.63 182.8 28.48 183.16C32.52 183.66 35.35 175.88 42.88 164.33C53.71 147.71 62.78 140.93 61.7 139.75Z" fill="white"/>
<path opacity="0.19" d="M257.5 136.58C256.25 137.31 260.81 146.31 268.98 162.45C274.01 172.38 276.72 176.91 281.47 177.75C284.84 178.35 289.16 177.08 290.02 174.6C291.24 171.08 284.82 167.07 275.91 158.12C263.1 145.25 258.77 135.84 257.5 136.58Z" fill="white"/>
<path opacity="0.31" d="M68.59 144.51C62.04 155.18 61.75 172.02 61.16 205.69C60.41 249.19 60.03 270.93 68.94 284.2C94.57 322.35 194.59 335.52 239.39 276.42C269.14 237.18 267.04 175.97 232.67 139.21C184.19 87.3399 92.12 106.2 68.59 144.51Z" fill="black"/>
<path d="M233.31 35.83L87.7 41.96L87.68 36.46C87.68 21.24 92.24 13.19 111.54 12.52L212.02 10.72C222.91 10.8 232.46 17.34 233.34 29.73V35.83H233.31Z" fill="white"/>
<path d="M216.59 328.02L103.33 331.77C90.41 332.19 79.95 322.54 79.95 310.23V24.05C79.95 11.73 90.41 1.60999 103.33 1.44999L216.59 -7.56374e-06C229.51 -0.170008 239.97 9.57999 239.97 21.78V305.14C239.97 317.34 229.5 327.59 216.59 328.02Z" fill="url(#paint0_linear_1_6229)"/>
<path d="M215.18 323.23L105.15 327.33C94.39 327.72 85.66 318.19 85.66 306.02V237.2V32.8699C85.66 20.7199 94.39 10.7199 105.14 10.5699L215.17 8.84988C225.93 8.67988 234.66 18.2899 234.66 30.3399V113.92V300.72C234.66 312.74 225.95 322.83 215.18 323.23Z" fill="#F2F2F2"/>
<path d="M215.18 324.06L105.15 327.34C94.39 327.65 85.66 318.59 85.66 307.08V242V48.7401C85.66 37.2501 94.39 27.8401 105.14 27.7601L215.17 26.7301C225.93 26.6301 234.66 35.7701 234.66 47.1601V126.21V302.88C234.66 314.24 225.95 323.74 215.18 324.06Z" fill="#FAFAFA"/>
<path d="M215.22 322.92L105.23 326.98C94.47 327.37 85.74 317.86 85.74 305.73V237.1V33.3199C85.74 21.1999 94.47 11.2399 105.22 11.0899L215.2 9.39993C225.96 9.22993 234.69 18.8199 234.69 30.8299V114.18V300.47C234.69 312.46 225.98 322.52 215.22 322.92Z" stroke="#E0E0E0" stroke-width="1.1698" stroke-miterlimit="10"/>
<path d="M179.95 21.65L158.38 21.69C157.06 21.69 155.89 20.6 155.76 19.25C155.64 17.9 156.61 16.81 157.94 16.8L179.51 16.76C180.83 16.76 182 17.85 182.13 19.2C182.25 20.56 181.28 21.65 179.95 21.65Z" fill="#0C192B"/>
<path d="M145.7 21.9799C146.83 22.0799 147.74 21.0799 147.74 19.7299C147.74 18.3899 146.83 17.2099 145.7 17.1099C144.57 17.0099 143.66 18.0099 143.66 19.3599C143.66 20.6999 144.58 21.8799 145.7 21.9799Z" fill="#0C192B"/>
<path d="M80.79 242.55C79.42 242 78.05 241.46 76.67 240.91C78.63 241.69 81.24 242.73 83.21 243.51C82.4 243.2 81.6 242.87 80.79 242.55Z" fill="#BFBFBF"/>
<path opacity="0.31" d="M25.29 156.71C26.54 152.88 29.75 150.91 31.95 149.56C33.8 148.42 36.81 146.58 40.83 146.85C44.99 147.13 50.09 149.68 50.94 153.76C51.33 155.62 50.92 158.21 49.46 158.94C47.14 160.09 43.11 156.09 42.55 156.72C42.12 157.21 44.86 159.23 44.52 161.65C44.26 163.51 42.23 165.35 40.33 165.35C37.06 165.35 34.67 159.88 34.16 160.17C33.65 160.46 37.21 165.32 35.64 167.82C34.56 169.54 31.23 169.84 28.98 168.81C25.12 167.01 23.9 160.98 25.29 156.71Z" fill="black"/>
<path opacity="0.31" d="M292.97 154.95C291.72 151.12 288.51 149.15 286.31 147.8C284.46 146.66 281.45 144.82 277.43 145.09C273.27 145.37 268.17 147.92 267.32 152C266.93 153.86 267.34 156.45 268.8 157.18C271.12 158.33 275.15 154.33 275.71 154.96C276.14 155.45 273.4 157.47 273.74 159.89C274 161.75 276.03 163.59 277.93 163.59C281.2 163.59 283.59 158.12 284.1 158.41C284.61 158.7 281.05 163.56 282.62 166.06C283.7 167.78 287.03 168.08 289.28 167.05C293.14 165.25 294.36 159.22 292.97 154.95Z" fill="black"/>
<path d="M24.01 155.12C25.26 151.29 28.47 149.32 30.67 147.97C32.52 146.83 35.53 144.99 39.55 145.26C43.71 145.54 48.81 148.09 49.66 152.17C50.05 154.03 49.64 156.62 48.18 157.35C45.86 158.5 41.83 154.5 41.27 155.13C40.84 155.62 43.58 157.64 43.24 160.06C42.98 161.92 40.95 163.76 39.05 163.76C35.78 163.76 33.39 158.29 32.88 158.58C32.37 158.87 35.93 163.73 34.36 166.23C33.28 167.95 29.95 168.25 27.7 167.22C23.84 165.42 22.62 159.39 24.01 155.12Z" fill="url(#paint1_linear_1_6229)"/>
<path d="M294.78 152.97C293.53 149.14 290.32 147.17 288.12 145.82C286.27 144.68 283.26 142.84 279.24 143.11C275.08 143.39 269.98 145.94 269.13 150.02C268.74 151.88 269.15 154.47 270.61 155.2C272.93 156.35 276.96 152.35 277.52 152.98C277.95 153.47 275.21 155.49 275.55 157.91C275.81 159.77 277.84 161.61 279.74 161.61C283.01 161.61 285.4 156.14 285.91 156.43C286.42 156.72 282.86 161.58 284.43 164.08C285.51 165.8 288.84 166.1 291.09 165.07C294.95 163.27 296.17 157.24 294.78 152.97Z" fill="url(#paint2_linear_1_6229)"/>
<path opacity="0.29" d="M29.64 158.01C28.89 157.09 27.39 156.01 26.51 156.45C25.39 157.01 25.37 160.04 26.63 162.11C27.85 164.11 30.33 165.35 31.08 164.76C31.5 164.43 31.28 163.42 30.84 161.39C30.47 159.66 30.27 158.78 29.64 158.01Z" fill="white"/>
<path opacity="0.29" d="M38.43 153.74C37.68 152.82 36.18 151.74 35.3 152.18C34.18 152.74 34.16 155.77 35.42 157.84C36.64 159.84 39.12 161.08 39.87 160.49C40.29 160.16 40.07 159.15 39.63 157.12C39.25 155.38 39.05 154.5 38.43 153.74Z" fill="white"/>
<path opacity="0.29" d="M43.76 148.1C42.65 147.67 40.81 147.47 40.27 148.29C39.57 149.33 41.05 151.97 43.17 153.15C45.21 154.29 47.99 154.14 48.35 153.25C48.55 152.75 47.86 151.98 46.48 150.44C45.29 149.12 44.69 148.45 43.76 148.1Z" fill="white"/>
<path opacity="0.29" d="M275.98 147.15C275.2 146.64 273.47 147.96 272.59 148.95C271.76 149.87 270.64 151.65 271.19 152.34C271.77 153.07 274.25 152.58 275.48 151.04C276.52 149.75 276.73 147.64 275.98 147.15Z" fill="white"/>
<path opacity="0.29" d="M283.36 153.34C282.58 152.83 280.85 154.15 279.97 155.14C279.14 156.06 278.02 157.84 278.57 158.53C279.15 159.26 281.63 158.77 282.86 157.23C283.91 155.94 284.11 153.83 283.36 153.34Z" fill="white"/>
<path opacity="0.29" d="M291.65 157.34C290.87 156.83 289.14 158.15 288.26 159.14C287.43 160.06 286.31 161.84 286.86 162.53C287.44 163.26 289.92 162.77 291.15 161.23C292.19 159.93 292.4 157.82 291.65 157.34Z" fill="white"/>
<path opacity="0.19" d="M288.16 201.14C285.69 211.52 280.87 225.45 281.18 233.05C281.24 234.5 279.87 234.7 279.67 233.27L276.23 208.52C276.05 207.21 274.82 207.28 274.76 208.6C273.86 231.12 272.4 263.77 270.97 277.97C268.71 300.46 281.79 277.79 285.1 278.22C287.83 278.57 299.14 327.36 300.53 307.08C301.52 292.62 287.37 234.82 288.95 200.9C288.99 200.19 288.33 200.42 288.16 201.14Z" fill="white"/>
<path opacity="0.19" d="M76.84 94.2901C76.16 93.5901 69.03 95.2801 64.64 99.3401C62.33 101.48 54.16 112.94 56.02 115.95C56.91 117.39 60.35 117.32 62.75 116.16C66.18 114.5 66.34 111.17 69.69 105.02C73.56 97.9001 77.41 94.8801 76.84 94.2901Z" fill="white"/>
<path opacity="0.19" d="M243.07 90.44C243.42 89.54 249.7 89.76 254.44 93.13C256.93 94.9 266.91 105.34 266.28 108.97C265.98 110.71 263.16 111.39 260.88 110.68C257.61 109.67 256.51 106.15 252 100.31C246.79 93.57 242.79 91.19 243.07 90.44Z" fill="white"/>
<path opacity="0.19" d="M26.15 197.66C25.52 197.79 26.11 202.81 26.29 204.55C27.51 216.28 25.61 228.18 23.39 242.03C17.69 277.68 -0.0400019 313.45 5.16 316.33C6.91 317.3 10.42 314.05 12.04 312.55C26.22 299.39 20.05 284.32 28.21 245.82C30.54 234.83 33.8 223.03 30.27 209.02C29.36 205.36 26.95 197.49 26.15 197.66Z" fill="white"/>
<path opacity="0.19" d="M47.46 224.49C45.11 224.13 33.76 285.73 35.32 286.08C35.96 286.23 38.53 276.03 40.03 276.3C41.51 276.57 40.56 286.77 40.94 286.81C41.88 286.9 49.82 224.86 47.46 224.49Z" fill="white"/>
<path d="M32.64 158.54C32.97 158.49 33.71 160.62 33.94 162.75C34.12 164.4 34.21 165.23 33.77 165.96C32.51 168.03 28.13 168.08 26.73 166.39C26.42 166.01 26.19 165.48 26.3 165.39C26.46 165.26 27.17 166.39 28.47 166.74C29.58 167.03 30.61 166.62 31.38 166.31C32.26 165.96 32.83 165.72 33.16 165.14C33.6 164.36 33.35 163.42 33.03 162.23C32.74 161.16 32.4 160.65 32.42 159.58C32.43 159.36 32.44 158.57 32.64 158.54Z" fill="#0DCCA7"/>
<path d="M33.64 158.44C33.49 158.61 35.03 160.28 36.77 161.64C37.95 162.56 38.56 163.03 39.26 163.03C40.79 163.05 42.37 161.44 42.58 159.83C42.87 157.59 40.51 155.5 40.47 155.53C40.44 155.55 41.12 156.34 41.6 157.79C41.93 158.8 42.23 159.74 41.79 160.65C41.44 161.37 40.81 161.73 40.58 161.86C40.4 161.96 39.62 162.4 38.73 162.27C37.45 162.08 37.24 160.88 35.11 159.29C34.99 159.23 33.76 158.31 33.64 158.44Z" fill="#0DCCA7"/>
<path d="M42.23 154.71C42.15 154.95 43.88 155.68 44.83 156.03C46.17 156.53 46.85 156.77 47.43 156.6C48.82 156.17 49.26 154.29 49.28 154.19C49.74 152.06 48.18 150 48.07 150.04C48.01 150.06 48.35 150.74 48.56 152.15C48.78 153.6 48.9 154.45 48.41 155.05C47.73 155.89 46.29 155.74 46.19 155.73C45.13 155.61 44.82 154.96 43.33 154.71C43.21 154.69 42.28 154.54 42.23 154.71Z" fill="#0DCCA7"/>
<path d="M271.88 146.64C271.72 146.57 270.88 147.89 270.34 149.34C269.8 150.77 269.41 151.84 269.91 152.91C270.23 153.6 270.91 154.24 271.74 154.45C273.63 154.92 275.67 153 275.64 152.96C275.63 152.94 275.02 153.42 273.9 153.68C273.11 153.87 272.13 154.1 271.35 153.58C270.4 152.96 270.34 151.62 270.34 151.51C270.31 150.45 270.91 150.12 271.59 147.94C271.77 147.38 271.99 146.69 271.88 146.64Z" fill="#0DCCA7"/>
<path d="M277.96 153.48C277.77 153.4 276.94 154.54 276.56 155.89C276.35 156.64 276.1 157.55 276.51 158.54C277.02 159.76 278.17 160.24 278.49 160.37C278.7 160.46 279.73 160.86 280.95 160.56C283.15 160.02 284.23 157.61 284.18 157.57C284.14 157.54 283.4 159.05 281.77 159.64C281.42 159.77 280.11 160.25 278.73 159.64C278.39 159.49 277.23 158.97 276.99 157.95C276.82 157.22 277.28 156.88 277.76 154.86C277.94 154.12 278.08 153.54 277.96 153.48Z" fill="#0DCCA7"/>
<path d="M285.96 158.54C285.7 158.45 284.74 160.09 284.66 161.65C284.65 161.85 284.66 162.02 284.66 162.06C284.71 163.14 285.16 163.97 285.33 164.23C286.27 165.62 289.55 165.85 291.4 164.28C292.62 163.25 292.95 161.67 292.8 161.58C292.62 161.48 291.89 163.46 289.96 164.33C288.66 164.91 286.75 165.01 286.01 164.09C285.65 163.65 285.7 162.73 285.82 160.91C285.92 159.17 286.11 158.59 285.96 158.54Z" fill="#0DCCA7"/>
<path d="M96.92 68.02H148.18C151.42 68.02 153.82 71.04 153.07 74.2C151.03 82.82 144.33 97.43 122.28 97.43C99.8 97.43 93.66 82.63 91.99 74.03C91.38 70.91 93.74 68.02 96.92 68.02Z" fill="#0AF7B9"/>
<path d="M103.27 71.3298H141.86C144.67 71.3298 146.78 73.9698 146.07 76.6898C144.33 83.4198 138.96 94.0998 122.37 94.0998C105.44 94.0998 100.48 83.2598 99.03 76.5398C98.44 73.8598 100.52 71.3298 103.27 71.3298Z" fill="#0C192B"/>
<path d="M173.51 68.02H224.77C228.01 68.02 230.41 71.04 229.66 74.2C227.62 82.82 220.92 97.43 198.87 97.43C176.39 97.43 170.25 82.63 168.58 74.03C167.98 70.91 170.34 68.02 173.51 68.02Z" fill="#0AF7B9"/>
<path d="M179.87 71.3298H218.46C221.27 71.3298 223.38 73.9698 222.67 76.6898C220.93 83.4198 215.56 94.0998 198.97 94.0998C182.04 94.0998 177.08 83.2598 175.63 76.5398C175.04 73.8598 177.12 71.3298 179.87 71.3298Z" fill="#0C192B"/>
<path d="M151.4 75.7499C151.12 74.9499 155.48 71.6599 160.62 71.5399C165.94 71.4099 170.59 74.6999 170.33 75.5199C170.13 76.1599 167.07 75.0399 160.8 75.1299C154.62 75.2199 151.62 76.3799 151.4 75.7499Z" fill="#0CC29E"/>
<path opacity="0.45" d="M199.15 71.3298L182.95 89.1698L185.07 90.6598L188.03 92.1598L202.72 71.5298L199.15 71.3298Z" fill="#FAFAFA"/>
<path opacity="0.45" d="M121.75 71.5298L105.56 88.6198L107.68 90.0498L110.64 91.4898L125.32 71.7198L121.75 71.5298Z" fill="#FAFAFA"/>
<path opacity="0.45" d="M204.74 71.5298L189.97 92.1598L191.18 93.1898L192.17 93.4298L206.76 71.5298H204.74Z" fill="#FAFAFA"/>
<path opacity="0.45" d="M127.56 71.5298L112.8 92.1598L114.01 93.1898L114.99 93.4298L129.58 71.5298H127.56Z" fill="#FAFAFA"/>
<path d="M182.96 56.9099C182.83 56.9599 184.44 59.7399 185.65 60.1199C186.69 60.4399 188.01 59.6499 188.51 59.3499C193.92 56.1199 198.77 54.0799 201.12 52.4199C210.28 45.9599 217.43 52.2899 217.43 52.2899C217.43 52.2899 215.89 50.2699 214.07 49.4699C203.62 44.8699 190 54.1099 182.96 56.9099Z" fill="#0C192B"/>
<path d="M138.22 56.3699C137.43 56.0299 130.83 54.7399 127.72 54.4499C114.75 53.2599 103.8 56.7199 103.89 57.1599C103.96 57.5399 106.84 56.6899 118.68 57.6799C125.74 58.2699 134.98 60.6299 135.97 60.2599C137.19 59.7899 139.23 56.7999 138.22 56.3699Z" fill="#0C192B"/>
</g>
<defs>
<linearGradient id="paint0_linear_1_6229" x1="79.9427" y1="165.894" x2="239.965" y2="165.894" gradientUnits="userSpaceOnUse">
<stop stop-color="#00FFB7"/>
<stop offset="1" stop-color="#27DEBF"/>
</linearGradient>
<linearGradient id="paint1_linear_1_6229" x1="23.4537" y1="156.517" x2="49.7958" y2="156.517" gradientUnits="userSpaceOnUse">
<stop stop-color="#00DBB1"/>
<stop offset="0.0329" stop-color="#06DFB4"/>
<stop offset="0.1165" stop-color="#0EE4B8"/>
<stop offset="0.2709" stop-color="#10E6B9"/>
<stop offset="0.4423" stop-color="#0FE7B9"/>
<stop offset="1" stop-color="#04FCB8"/>
</linearGradient>
<linearGradient id="paint2_linear_1_6229" x1="268.992" y1="154.368" x2="295.334" y2="154.368" gradientUnits="userSpaceOnUse">
<stop stop-color="#00DBB1"/>
<stop offset="0.0329" stop-color="#06DFB4"/>
<stop offset="0.1165" stop-color="#0EE4B8"/>
<stop offset="0.2709" stop-color="#10E6B9"/>
<stop offset="0.4423" stop-color="#0FE7B9"/>
<stop offset="1" stop-color="#04FCB8"/>
</linearGradient>
<clipPath id="clip0_1_6229">
<rect width="312.64" height="375.73" fill="white"/>
</clipPath>
</defs>
</svg>
