<svg width="16" height="16" viewBox="0 0 16 16" fill="none" xmlns="http://www.w3.org/2000/svg">
<path fill-rule="evenodd" clip-rule="evenodd" d="M8 16C12.4183 16 16 12.4183 16 8C16 3.58172 12.4183 0 8 0C3.58172 0 0 3.58172 0 8C0 12.4183 3.58172 16 8 16ZM13.6595 6.04044C14.05 5.64992 14.05 5.01675 13.6595 4.62623C13.269 4.2357 12.6358 4.2357 12.2453 4.62623L6.85714 10.0144L4.51663 7.67385C4.12611 7.28332 3.49294 7.28332 3.10242 7.67385C2.71189 8.06437 2.71189 8.69754 3.10242 9.08806L6.04397 12.0296C6.49307 12.4787 7.22121 12.4787 7.67032 12.0296L13.6595 6.04044Z" fill="#20F1C0"/>
</svg>
