<svg width="30" height="30" viewBox="0 0 30 30" fill="none" xmlns="http://www.w3.org/2000/svg">
<circle cx="15" cy="15" r="15" fill="white"/>
<path fill-rule="evenodd" clip-rule="evenodd" d="M18.2448 7.03596C18.1217 6.91289 17.9548 6.84375 17.7808 6.84375C17.6067 6.84375 17.4398 6.91289 17.3167 7.03596L9.27339 15.0793C9.19095 15.1617 9.13195 15.2647 9.10249 15.3775L8.22749 18.7274C8.16861 18.9528 8.23365 19.1925 8.3984 19.3573C8.56314 19.522 8.80287 19.587 9.02828 19.5282L12.3782 18.6532C12.491 18.6237 12.5939 18.5647 12.6763 18.4823L20.7197 10.4389C20.976 10.1826 20.976 9.76712 20.7197 9.51083L18.2448 7.03596ZM10.3274 15.8815L17.7808 8.42808L19.3276 9.97487L11.8742 17.4283L9.78051 17.9751L10.3274 15.8815Z" fill="black"/>
<path d="M8.5 20.8438C8.13756 20.8438 7.84375 21.1376 7.84375 21.5C7.84375 21.8624 8.13756 22.1563 8.5 22.1563H21.625C21.9874 22.1563 22.2812 21.8624 22.2812 21.5C22.2812 21.1376 21.9874 20.8438 21.625 20.8438H8.5Z" fill="black"/>
</svg>
