<svg width="17" height="22" viewBox="0 0 17 22" fill="none" xmlns="http://www.w3.org/2000/svg">
<path d="M6.79583 15.6163C6.79583 14.6735 7.5588 13.9093 8.49997 13.9093C9.44114 13.9093 10.2041 14.6735 10.2041 15.6163C10.2041 16.559 9.44114 17.3232 8.49997 17.3232C7.5588 17.3232 6.79583 16.559 6.79583 15.6163Z" fill="#27DEBF"/>
<path fill-rule="evenodd" clip-rule="evenodd" d="M3.52576 9.46791L3.16738 6.2372C3.12144 5.823 3.12144 5.40498 3.16738 4.99078L3.19325 4.75761C3.4676 2.28433 5.40873 0.327391 7.87609 0.0366321C8.29056 -0.0122107 8.70932 -0.0122107 9.1238 0.0366321C11.5912 0.327391 13.5323 2.28433 13.8066 4.75761L13.8325 4.99078C13.8784 5.40498 13.8784 5.823 13.8325 6.2372L13.4741 9.4679L14.2542 9.53027C15.4843 9.62864 16.4887 10.5548 16.6881 11.7746C17.104 14.3188 17.104 16.9137 16.6881 19.4579C16.4887 20.6777 15.4843 21.6039 14.2542 21.7022L12.5544 21.8382C9.85577 22.0539 7.14423 22.0539 4.44557 21.8382L2.74583 21.7022C1.51575 21.6039 0.511321 20.6777 0.311919 19.4579C-0.103973 16.9137 -0.103973 14.3188 0.311919 11.7746C0.511321 10.5548 1.51575 9.62864 2.74583 9.53027L3.52576 9.46791ZM8.0752 1.73191C8.35739 1.69866 8.6425 1.69866 8.92468 1.73191C10.6045 1.92987 11.9261 3.26222 12.1129 4.94611L12.1388 5.17928C12.1708 5.4682 12.1708 5.75978 12.1388 6.0487L11.7739 9.33798C9.59352 9.19734 7.40636 9.19735 5.22597 9.33799L4.8611 6.0487C4.82905 5.75978 4.82905 5.4682 4.8611 5.17928L4.88697 4.94611C5.07376 3.26222 6.39534 1.92987 8.0752 1.73191ZM12.4188 11.0959C9.81042 10.8873 7.18958 10.8873 4.58118 11.0959L2.88144 11.2318C2.43276 11.2677 2.0664 11.6055 1.99366 12.0505C1.60763 14.4119 1.60763 16.8206 1.99366 19.182C2.0664 19.627 2.43276 19.9648 2.88144 20.0007L4.58118 20.1366C7.18958 20.3452 9.81042 20.3452 12.4188 20.1366L14.1186 20.0007C14.5672 19.9648 14.9336 19.627 15.0063 19.182C15.3924 16.8206 15.3924 14.4119 15.0063 12.0505C14.9336 11.6055 14.5672 11.2677 14.1186 11.2318L12.4188 11.0959Z" fill="#27DEBF"/>
</svg>
