<svg width="19" height="24" viewBox="0 0 19 24" fill="none" xmlns="http://www.w3.org/2000/svg">
<path id="Subtract" fill-rule="evenodd" clip-rule="evenodd" d="M18.0347 12C18.0347 18.6274 13.9975 24 9.01734 24C4.0372 24 0 18.6274 0 12C0 5.37258 4.0372 0 9.01734 0C13.9975 0 18.0347 5.37258 18.0347 12ZM9.01734 19.6667C8.46506 19.6667 8.01734 19.219 8.01734 18.6667L8.01734 13H4.00765C3.45536 13 3.00765 12.5523 3.00765 12C3.00765 11.4477 3.45536 11 4.00765 11H8.01734V5.33342C8.01734 4.78113 8.46506 4.33342 9.01734 4.33342C9.56962 4.33342 10.0173 4.78113 10.0173 5.33342V11H14.0269C14.5792 11 15.0269 11.4477 15.0269 12C15.0269 12.5523 14.5792 13 14.0269 13H10.0173L10.0173 18.6667C10.0173 19.219 9.56963 19.6667 9.01734 19.6667Z" fill="#fff"/>
</svg>
