<svg width="30" height="30" viewBox="0 0 30 30" fill="none" xmlns="http://www.w3.org/2000/svg">
<g id="Group 33711">
<path id="Icon" fill-rule="evenodd" clip-rule="evenodd" d="M15 2.29295L11.848 5.55418C11.5125 5.9013 11.0505 6.09732 10.5677 6.09732H6.09732V10.5677C6.09732 11.0505 5.9013 11.5125 5.55418 11.848L2.29295 15L5.55418 18.152C5.9013 18.4875 6.09732 18.9495 6.09732 19.4323V23.9027H10.5677C11.0505 23.9027 11.5125 24.0987 11.848 24.4458L15 27.7071L18.152 24.4458C18.4875 24.0987 18.9495 23.9027 19.4323 23.9027H23.9027V19.4323C23.9027 18.9495 24.0987 18.4875 24.4458 18.152L27.7071 15L24.4458 11.848C24.0987 11.5125 23.9027 11.0505 23.9027 10.5677V6.09732H19.4323C18.9495 6.09732 18.4875 5.9013 18.152 5.55418L15 2.29295ZM13.7197 0.543136C14.4196 -0.181046 15.5804 -0.181045 16.2803 0.543136L19.5833 3.96067H24.2588C25.2422 3.96067 26.0393 4.75785 26.0393 5.74121V10.4167L29.4569 13.7197C30.181 14.4196 30.181 15.5804 29.4569 16.2803L26.0393 19.5833V24.2588C26.0393 25.2422 25.2422 26.0393 24.2588 26.0393H19.5833L16.2803 29.4569C15.5804 30.181 14.4196 30.181 13.7197 29.4569L10.4167 26.0393H5.74121C4.75785 26.0393 3.96067 25.2422 3.96067 24.2588V19.5833L0.543135 16.2803C-0.181044 15.5804 -0.181046 14.4196 0.543135 13.7197L3.96067 10.4167V5.74121C3.96067 4.75785 4.75785 3.96067 5.74121 3.96067H10.4167L13.7197 0.543136Z" fill="#3CC1B3"/>
<g id="API">
<path d="M11.1978 11.1431L13.9762 18.8574H12.503L11.9097 17.1382H8.92368L8.33043 18.8574H6.85718L9.63559 11.1431H11.1978ZM9.39829 15.7386H11.4252L10.4167 12.8402L9.39829 15.7386Z" fill="#3CC1B3"/>
<path d="M14.673 18.8574V11.1431H17.3921C18.2029 11.1431 18.8291 11.3782 19.2707 11.8484C19.719 12.3112 19.9431 12.9431 19.9431 13.7439C19.9431 14.5374 19.719 15.1692 19.2707 15.6394C18.8291 16.1096 18.2029 16.3447 17.3921 16.3447H16.0672V18.8574H14.673ZM16.0672 14.9451H17.4316C17.7744 14.9451 18.0414 14.8386 18.2325 14.6255C18.4237 14.4125 18.5193 14.1186 18.5193 13.7439C18.5193 13.3692 18.4237 13.0753 18.2325 12.8623C18.0414 12.6492 17.7744 12.5427 17.4316 12.5427H16.0672V14.9451Z" fill="#3CC1B3"/>
<path d="M20.8916 18.8574V11.1431H22.2857V18.8574H20.8916Z" fill="#3CC1B3"/>
</g>
</g>
</svg>
