<svg width="21" height="19" viewBox="0 0 21 19" fill="none" xmlns="http://www.w3.org/2000/svg">
<path fill-rule="evenodd" clip-rule="evenodd" d="M3.68683 4.50604C3.68683 2.01743 5.69119 0 8.16369 0C10.6362 0 12.6405 2.01743 12.6405 4.50604C12.6405 6.99466 10.6362 9.01209 8.16369 9.01209C5.69119 9.01209 3.68683 6.99466 3.68683 4.50604ZM8.16369 1.59037C6.56383 1.59037 5.2669 2.89576 5.2669 4.50604C5.2669 6.11633 6.56383 7.42172 8.16369 7.42172C9.76354 7.42172 11.0605 6.11633 11.0605 4.50604C11.0605 2.89576 9.76354 1.59037 8.16369 1.59037Z" fill="#27DEBF"/>
<path fill-rule="evenodd" clip-rule="evenodd" d="M0 14.5784C0 12.3825 1.76855 10.6025 3.95017 10.6025H4.30924C4.50358 10.6025 4.69669 10.6334 4.88143 10.6941L5.79315 10.9938C7.33349 11.5 8.99389 11.5 10.5342 10.9938L11.4459 10.6941C11.6307 10.6334 11.8238 10.6025 12.0181 10.6025H12.3772C14.5588 10.6025 16.3274 12.3825 16.3274 14.5784V15.8383C16.3274 16.6369 15.7524 17.3178 14.9693 17.4465C10.4621 18.1871 5.86532 18.1871 1.35809 17.4465C0.575022 17.3178 0 16.6369 0 15.8383V14.5784ZM3.95017 12.1928C2.6412 12.1928 1.58007 13.2609 1.58007 14.5784V15.8383C1.58007 15.8574 1.59388 15.8738 1.61269 15.8769C5.9513 16.5898 10.3761 16.5898 14.7147 15.8769C14.7335 15.8738 14.7473 15.8574 14.7473 15.8383V14.5784C14.7473 13.2609 13.6862 12.1928 12.3772 12.1928H12.0181C11.9904 12.1928 11.9628 12.1972 11.9364 12.2059L11.0247 12.5056C9.16565 13.1166 7.16172 13.1166 5.30269 12.5056L4.39098 12.2059C4.36459 12.1972 4.337 12.1928 4.30924 12.1928H3.95017Z" fill="#27DEBF"/>
<path d="M14.6524 6.31208L16.7076 8.37313L19.6762 5.02393" stroke="#27DEBF" stroke-width="2" stroke-linecap="round"/>
</svg>
