<svg width="19" height="18" viewBox="0 0 19 18" fill="none" xmlns="http://www.w3.org/2000/svg">
<g id="icon">
<path id="Union" fill-rule="evenodd" clip-rule="evenodd" d="M8.99798 0C6.69436 0 4.80245 1.8673 4.7723 4.17073C4.74215 6.47416 6.58516 8.34146 8.88879 8.34146C11.1924 8.34146 13.0843 6.47416 13.1145 4.17073C13.1446 1.8673 11.3016 0 8.99798 0ZM6.43575 4.17073C6.45388 2.78592 7.59128 1.66331 8.97621 1.66331C10.3611 1.66331 11.4691 2.78592 11.451 4.17073C11.4329 5.55554 10.2955 6.67814 8.91056 6.67814C7.52564 6.67814 6.41763 5.55554 6.43575 4.17073ZM6.51484 9.62307C3.88594 9.62307 1.7269 11.754 1.69249 14.3827L1.6822 15.1683C1.67619 15.6276 2.04367 15.9999 2.503 15.9999C2.96233 15.9999 3.33956 15.6276 3.34557 15.1683L3.35585 14.3827C3.37824 12.6726 4.78282 11.2863 6.49307 11.2863H11.2071C12.9174 11.2863 14.2857 12.6726 14.2633 14.3827L14.253 15.1683C14.247 15.6276 14.6145 15.9999 15.0738 15.9999C15.5331 15.9999 15.9103 15.6276 15.9163 15.1683L15.9266 14.3827C15.961 11.754 13.8578 9.62307 11.2289 9.62307H6.51484Z" fill="#3CC1B3"/>
</g>
</svg>
