<svg width="22" height="22" viewBox="0 0 22 22" fill="none" xmlns="http://www.w3.org/2000/svg">
<path d="M6.42344 11C6.42344 10.6203 6.73124 10.3125 7.11094 10.3125H10.3125V7.11086C10.3125 6.73117 10.6203 6.42336 11 6.42336C11.3797 6.42336 11.6875 6.73117 11.6875 7.11086V10.3125H14.8891C15.2688 10.3125 15.5766 10.6203 15.5766 11C15.5766 11.3797 15.2688 11.6875 14.8891 11.6875H11.6875V14.889C11.6875 15.2687 11.3797 15.5765 11 15.5765C10.6203 15.5765 10.3125 15.2687 10.3125 14.889V11.6875H7.11094C6.73124 11.6875 6.42344 11.3797 6.42344 11Z" fill="#64EAB8"/>
<path fill-rule="evenodd" clip-rule="evenodd" d="M6.70701 3.45465C9.53726 3.13833 12.4627 3.13833 15.293 3.45465C16.9671 3.64176 18.3191 4.96052 18.5161 6.6444C18.8545 9.53825 18.8545 12.4617 18.5161 15.3555C18.3191 17.0394 16.9671 18.3582 15.293 18.5453C12.4627 18.8616 9.53726 18.8616 6.707 18.5453C5.03282 18.3582 3.68083 17.0394 3.48389 15.3555C3.14543 12.4617 3.14543 9.53825 3.48389 6.6444C3.68083 4.96052 5.03282 3.64176 6.70701 3.45465ZM15.1402 4.82114C12.4115 4.51616 9.58849 4.51616 6.85973 4.82114C5.81067 4.93839 4.97095 5.76636 4.84958 6.80413C4.52353 9.59185 4.52353 12.4081 4.84958 15.1958C4.97095 16.2336 5.81067 17.0615 6.85973 17.1788C9.58849 17.4838 12.4115 17.4838 15.1402 17.1788C16.1893 17.0615 17.029 16.2336 17.1504 15.1958C17.4764 12.4081 17.4764 9.59185 17.1504 6.80413C17.029 5.76636 16.1893 4.93839 15.1402 4.82114Z" fill="#64EAB8"/>
</svg>
