<svg width="20" height="20" viewBox="0 0 20 20" fill="none" xmlns="http://www.w3.org/2000/svg">
<rect width="20" height="20" rx="10" fill="#FFF1E0"/>
<path d="M13.6645 10.3591C13.8516 10.4581 14.0297 10.5732 14.1969 10.703C14.7807 11.1659 15.0275 11.7678 14.9336 12.5057C14.8714 13.0529 14.678 13.5771 14.3698 14.0335C13.9909 14.5841 13.4528 14.8816 12.8038 14.9931C12.2658 15.0858 11.7283 15.0558 11.1915 14.9837C10.9961 14.958 10.8019 14.9248 10.6083 14.8891C10.5457 14.8772 10.5263 14.8973 10.5119 14.9568C10.364 15.5594 10.2106 16.1607 10.064 16.7639C10.0433 16.8491 10.0183 16.8642 9.93244 16.841C9.59356 16.7495 9.25155 16.6662 8.91017 16.5842C8.84753 16.5704 8.84064 16.5528 8.85505 16.494C9.00663 15.8951 9.15384 15.295 9.30605 14.6962C9.32296 14.6286 9.3167 14.6004 9.24341 14.5828C8.97907 14.5177 8.71557 14.4488 8.4529 14.3761C8.38588 14.3573 8.36646 14.3761 8.3508 14.4388C8.20297 15.0414 8.05013 15.6433 7.90293 16.2459C7.88602 16.3136 7.8666 16.3248 7.79957 16.3086C7.45464 16.2192 7.10825 16.133 6.76039 16.0499C6.69775 16.0348 6.68898 16.0085 6.70338 15.949C6.85622 15.3445 7.00405 14.7388 7.15815 14.1325C7.17819 14.0542 7.1619 14.0285 7.08548 14.0072C6.33381 13.8193 5.58778 13.6313 4.83861 13.4434C4.78537 13.4303 4.76908 13.4171 4.79414 13.3607C4.97704 12.9432 5.15765 12.5256 5.33597 12.108C5.35852 12.0547 5.3867 12.056 5.43431 12.0691C5.69238 12.1368 5.94983 12.2069 6.20979 12.2646C6.53426 12.3366 6.72594 12.2094 6.80611 11.8887C7.05291 10.8986 7.30013 9.90869 7.54776 8.91899C7.73568 8.16732 7.9236 7.41564 8.11152 6.66397C8.18731 6.35954 8.02758 6.06639 7.71501 5.94612C7.47154 5.86318 7.22297 5.79602 6.97086 5.74505C6.89694 5.72689 6.82365 5.70747 6.74911 5.69369C6.70839 5.68617 6.70276 5.67051 6.71215 5.63105C6.8105 5.24081 6.90884 4.85056 7.00343 4.45906C7.01971 4.38891 7.06168 4.41146 7.09989 4.42086C7.3968 4.49414 7.69246 4.57056 7.99 4.64322C8.43975 4.75222 8.88574 4.87812 9.338 4.97897C9.41254 4.99588 9.44073 4.98649 9.46014 4.90756C9.60421 4.31311 9.75455 3.71742 9.89862 3.1261C9.91679 3.05156 9.93934 3.03026 10.0176 3.05093C10.3571 3.14113 10.6985 3.22569 11.0399 3.30713C11.1119 3.32466 11.1188 3.35223 11.1025 3.41925C10.9535 4.00618 10.8088 4.59437 10.6603 5.1813C10.6447 5.24394 10.6509 5.2621 10.7173 5.27713C10.9829 5.33539 11.2485 5.39803 11.5122 5.46505C11.588 5.4851 11.6093 5.46067 11.6262 5.39302C11.7665 4.81924 11.9106 4.24672 12.0503 3.67294C12.0697 3.59402 12.0916 3.56583 12.1818 3.59026C12.5176 3.68108 12.8565 3.76377 13.1947 3.84457C13.2611 3.86023 13.2743 3.88215 13.2573 3.94918C13.1058 4.54801 12.9598 5.1481 12.8063 5.7463C12.7869 5.82272 12.8063 5.84527 12.874 5.87158C13.344 6.0247 13.7915 6.23999 14.2045 6.51175C14.5922 6.77672 14.9135 7.09994 15.0877 7.54656C15.2756 8.03577 15.2386 8.52812 15.092 9.01796C14.8853 9.71158 14.4308 10.1501 13.7284 10.3334C13.7046 10.3371 13.6889 10.3459 13.6645 10.3591ZM10.9422 13.3156H11.0236C11.3168 13.3062 11.6049 13.2743 11.8724 13.1446C12.5483 12.8164 12.693 11.9169 12.1593 11.3694C11.8461 11.05 11.4565 10.8683 11.0487 10.7167C10.5476 10.5288 10.0195 10.4211 9.49835 10.2952C9.42256 10.277 9.40815 10.3008 9.39249 10.3647C9.18912 11.1911 8.98325 12.0167 8.77487 12.8415C8.75796 12.9079 8.77863 12.9242 8.83751 12.9379C9.06113 12.9918 9.28287 13.0526 9.5065 13.1071C9.97562 13.2281 10.4567 13.297 10.9409 13.3125L10.9422 13.3156ZM11.4821 9.39442C11.6431 9.39726 11.8039 9.3834 11.962 9.35308C12.3798 9.26538 12.6817 9.03988 12.8032 8.61832C12.9247 8.19675 12.8251 7.81654 12.49 7.51211C12.3123 7.35552 12.1105 7.22862 11.8924 7.13627C11.4057 6.91892 10.8864 6.80992 10.369 6.69341C10.3064 6.679 10.3014 6.71784 10.2907 6.76107C10.2156 7.0634 10.1398 7.36595 10.0634 7.66871C9.95374 8.10718 9.84475 8.55004 9.732 8.98977C9.71571 9.05241 9.72636 9.07997 9.79464 9.095C9.92493 9.12256 10.0521 9.16203 10.1818 9.19398C10.609 9.2942 11.038 9.38941 11.4809 9.39129L11.4821 9.39442Z" fill="#F6931A"/>
</svg>
