<svg width="47" height="47" viewBox="0 0 47 47" fill="none" xmlns="http://www.w3.org/2000/svg">
<rect width="46.8293" height="46.8293" rx="23.4147" fill="#EEEEEE"/>
<path d="M35.2882 14.7336C35.9869 15.649 36.5783 16.6435 37.0506 17.6972L23.6535 27.7058L18.0546 24.1488V19.8695L23.6535 23.4265L35.2882 14.7336Z" fill="#21A038"/>
<path d="M12.3404 23.8473C12.3404 23.6553 12.345 23.4646 12.3543 23.2749L8.96111 23.1064C8.94956 23.3522 8.94263 23.6004 8.94263 23.8508C8.94119 25.8077 9.32098 27.7455 10.0602 29.5531C10.7995 31.3609 11.8836 33.0029 13.2505 34.3849L15.6573 31.9469C14.6052 30.8849 13.7705 29.6226 13.2012 28.2326C12.632 26.8426 12.3395 25.3523 12.3404 23.8473Z" fill="url(#paint0_linear_1_2961)"/>
<path d="M23.6505 12.3861C23.8399 12.3861 24.0281 12.3932 24.2152 12.4025L24.385 8.96254C24.1417 8.95084 23.8968 8.94498 23.6505 8.94498C21.7187 8.9426 19.8056 9.32694 18.0209 10.076C16.2361 10.825 14.615 11.9239 13.2504 13.3096L15.6573 15.7489C16.7052 14.6822 17.9509 13.836 19.3227 13.2589C20.6944 12.6818 22.1652 12.3852 23.6505 12.3861Z" fill="url(#paint1_linear_1_2961)"/>
<path d="M23.6505 35.3095C23.4612 35.3095 23.2729 35.3095 23.0847 35.2943L22.9149 38.7331C23.159 38.7456 23.4042 38.7519 23.6505 38.7519C25.5815 38.7539 27.4937 38.3693 29.2775 37.6201C31.0613 36.8708 32.6814 35.7718 34.0449 34.386L31.6426 31.948C30.5945 33.0141 29.349 33.8598 27.9775 34.4367C26.606 35.0136 25.1355 35.3102 23.6505 35.3095Z" fill="url(#paint2_linear_1_2961)"/>
<path d="M30.0259 14.3855L32.8855 12.2494C30.2718 10.1045 27.0093 8.93692 23.6461 8.94289V12.3852C25.9235 12.3824 28.148 13.0798 30.0259 14.3855Z" fill="url(#paint3_linear_1_2961)"/>
<path d="M38.3573 23.8479C38.3592 22.9524 38.2819 22.0584 38.1263 21.1769L34.9607 23.5412C34.9607 23.6431 34.9607 23.7449 34.9607 23.8479C34.9616 25.4494 34.6303 27.0332 33.9885 28.4967C33.3466 29.9601 32.4085 31.2706 31.2349 32.343L33.5183 34.9006C35.0439 33.5047 36.2632 31.7994 37.0968 29.8954C37.9305 27.9913 38.3599 25.931 38.3573 23.8479Z" fill="#21A038"/>
<path d="M23.6506 35.3098C22.0702 35.3104 20.5073 34.9745 19.0631 34.3241C17.6189 33.6737 16.3257 32.7231 15.267 31.5339L12.7447 33.8467C14.1219 35.3932 15.8044 36.629 17.6832 37.4741C19.562 38.3191 21.595 38.7546 23.6506 38.7521V35.3098Z" fill="url(#paint4_linear_1_2961)"/>
<path d="M16.0662 15.352L13.784 12.7946C12.2579 14.1902 11.0383 15.8953 10.2042 17.7994C9.37017 19.7035 8.94035 21.7639 8.94264 23.8472H12.3404C12.3397 22.2458 12.671 20.6619 13.3128 19.1985C13.9547 17.7351 14.8927 16.4246 16.0662 15.352Z" fill="url(#paint5_linear_1_2961)"/>
<defs>
<linearGradient id="paint0_linear_1_2961" x1="13.9376" y1="33.9554" x2="10.1362" y2="23.1121" gradientUnits="userSpaceOnUse">
<stop offset="0.14" stop-color="#F1E813"/>
<stop offset="0.3" stop-color="#E6E418"/>
<stop offset="0.58" stop-color="#C9DA26"/>
<stop offset="0.89" stop-color="#A2CC39"/>
</linearGradient>
<linearGradient id="paint1_linear_1_2961" x1="14.2206" y1="13.9183" x2="23.8142" y2="10.3108" gradientUnits="userSpaceOnUse">
<stop offset="0.06" stop-color="#0FA7DF"/>
<stop offset="0.54" stop-color="#0098F8"/>
<stop offset="0.92" stop-color="#0290EA"/>
</linearGradient>
<linearGradient id="paint2_linear_1_2961" x1="22.6909" y1="36.6743" x2="33.517" y2="34.261" gradientUnits="userSpaceOnUse">
<stop offset="0.12" stop-color="#A2CC39"/>
<stop offset="0.28" stop-color="#86C239"/>
<stop offset="0.87" stop-color="#219F38"/>
</linearGradient>
<linearGradient id="paint3_linear_1_2961" x1="22.9393" y1="10.0958" x2="32.2045" y2="12.917" gradientUnits="userSpaceOnUse">
<stop offset="0.06" stop-color="#0290EA"/>
<stop offset="0.79" stop-color="#0C89CA"/>
</linearGradient>
<linearGradient id="paint4_linear_1_2961" x1="13.597" y1="33.4277" x2="23.6913" y2="37.1502" gradientUnits="userSpaceOnUse">
<stop offset="0.13" stop-color="#F1E813"/>
<stop offset="0.3" stop-color="#EAE616"/>
<stop offset="0.53" stop-color="#D8DF1F"/>
<stop offset="0.8" stop-color="#BAD52D"/>
<stop offset="0.98" stop-color="#A2CC39"/>
</linearGradient>
<linearGradient id="paint5_linear_1_2961" x1="10.2084" y1="24.2639" x2="14.3422" y2="13.6533" gradientUnits="userSpaceOnUse">
<stop offset="0.07" stop-color="#A2CC39"/>
<stop offset="0.26" stop-color="#81C45E"/>
<stop offset="0.92" stop-color="#0FA7DF"/>
</linearGradient>
</defs>
</svg>
