<svg width="17" height="29" viewBox="0 0 17 29" fill="none" xmlns="http://www.w3.org/2000/svg">
<g id="Group 33567">
<path id="Icon" fill-rule="evenodd" clip-rule="evenodd" d="M8.5 29C3.80558 29 -1.62584e-07 25.2805 -3.63141e-07 20.6923L-7.9353e-07 10.8462C-9.34663e-07 7.61741 2.678 5 5.98148 5C9.28496 5 11.963 7.61741 11.963 10.8462L11.963 20.8681C11.963 22.7374 10.4125 24.2527 8.5 24.2527C6.58746 24.2527 5.03704 22.7374 5.03704 20.8681L5.03704 11.1978C5.03704 10.688 5.45988 10.2747 5.98148 10.2747C6.50308 10.2747 6.92593 10.688 6.92593 11.1978L6.92593 20.8681C6.92593 21.7178 7.63066 22.4066 8.5 22.4066C9.36934 22.4066 10.0741 21.7178 10.0741 20.8681L10.0741 10.8462C10.0741 8.63701 8.24176 6.84615 5.98148 6.84615C3.7212 6.84615 1.88889 8.63701 1.88889 10.8462L1.88889 20.6923C1.88889 24.2609 4.84878 27.1538 8.5 27.1538C12.1512 27.1538 15.1111 24.2609 15.1111 20.6923L15.1111 11.1978C15.1111 10.688 15.534 10.2747 16.0556 10.2747C16.5772 10.2747 17 10.688 17 11.1978L17 20.6923C17 25.2805 13.1944 29 8.5 29Z" fill="#455A64"/>
<path id="Vector" d="M10.5833 1.5274C16 2.82194 16 8 16 8M1 3.68497C3.08333 0.232866 7.25 1.09589 7.25 1.09589" stroke="#455A64" stroke-width="2" stroke-linecap="round"/>
</g>
</svg>
