<svg width="34" height="33" viewBox="0 0 34 33" fill="none" xmlns="http://www.w3.org/2000/svg">
<path fill-rule="evenodd" clip-rule="evenodd" d="M10.3848 2.75061H23.615C28.4331 2.75061 31.1531 5.40299 31.1673 10.0794V22.9219C31.1673 27.5969 28.4331 30.2506 23.615 30.2506H10.3848C5.56667 30.2506 2.83392 27.5969 2.83392 22.9219V10.0794C2.83392 5.40299 5.56667 2.75061 10.3848 2.75061ZM17.07 24.5581C17.6806 24.5581 18.1892 24.1181 18.2458 23.5269V9.51561C18.3025 9.08936 18.0914 8.66174 17.7089 8.42936C17.3108 8.19561 16.8292 8.19561 16.4481 8.42936C16.0642 8.66174 15.8531 9.08936 15.8942 9.51561V23.5269C15.9664 24.1181 16.475 24.5581 17.07 24.5581ZM23.5881 24.5581C24.1831 24.5581 24.6917 24.1181 24.7639 23.5269V19.0169C24.805 18.5755 24.5939 18.1644 24.21 17.9306C23.8289 17.6969 23.3473 17.6969 22.9506 17.9306C22.5667 18.1644 22.3556 18.5755 22.4123 19.0169V23.5269C22.4689 24.1181 22.9775 24.5581 23.5881 24.5581ZM11.6442 23.5269C11.5875 24.1181 11.0789 24.5581 10.4683 24.5581C9.85917 24.5581 9.34917 24.1181 9.29392 23.5269V14.0256C9.25142 13.598 9.46251 13.1731 9.84642 12.9394C10.2275 12.7056 10.7106 12.7056 11.0931 12.9394C11.4742 13.1731 11.6881 13.598 11.6442 14.0256V23.5269Z" fill="#D7DCE4"/>
</svg>
