<svg width="15" height="15" viewBox="0 0 15 15" fill="none" xmlns="http://www.w3.org/2000/svg">
<path id="Subtract" fill-rule="evenodd" clip-rule="evenodd" d="M13.0154 12.6644C10.3803 15.4933 5.95097 15.6504 3.12209 13.0154C0.293216 10.3804 0.136071 5.95101 2.7711 3.12213C5.40612 0.293257 9.83549 0.136111 12.6644 2.77114C15.4932 5.40617 15.6504 9.83553 13.0154 12.6644ZM4.56101 11.4706C4.15688 11.0942 4.13443 10.4614 4.51086 10.0573L6.47991 7.94341L4.36601 5.97437C3.96188 5.59794 3.93944 4.96517 4.31587 4.56105C4.6923 4.15692 5.32507 4.13447 5.72919 4.51091L7.84309 6.47995L9.81213 4.36605C10.1886 3.96193 10.8213 3.93948 11.2255 4.31591C11.6296 4.69234 11.652 5.32511 11.2756 5.72923L9.30655 7.84313L11.4205 9.81217C11.8246 10.1886 11.847 10.8214 11.4706 11.2255C11.0942 11.6296 10.4614 11.6521 10.0573 11.2756L7.94337 9.3066L5.97433 11.4205C5.5979 11.8246 4.96513 11.8471 4.56101 11.4706Z" fill="#F14BAF"/>
</svg>
