<svg width="11" height="11" viewBox="0 0 11 11" fill="none" xmlns="http://www.w3.org/2000/svg">
<path d="M5.5249 7.22498H6.0249C6.0249 6.94883 5.80104 6.72498 5.5249 6.72498V7.22498ZM5.5249 7.27498L5.52478 7.77498C5.65741 7.77501 5.78462 7.72234 5.87841 7.62857C5.97221 7.5348 6.0249 7.40761 6.0249 7.27498H5.5249ZM5.4751 7.27496H4.9751C4.9751 7.55106 5.19888 7.77489 5.47497 7.77496L5.4751 7.27496ZM5.4751 7.22498V6.72498C5.19896 6.72498 4.9751 6.94883 4.9751 7.22498H5.4751ZM6 3.72498C6 3.44883 5.77614 3.22498 5.5 3.22498C5.22386 3.22498 5 3.44883 5 3.72498H6ZM5 5.72498C5 6.00112 5.22386 6.22498 5.5 6.22498C5.77614 6.22498 6 6.00112 6 5.72498H5ZM5.5 9.5C3.29086 9.5 1.5 7.70914 1.5 5.5H0.5C0.5 8.26142 2.73858 10.5 5.5 10.5V9.5ZM1.5 5.5C1.5 3.29086 3.29086 1.5 5.5 1.5V0.5C2.73858 0.5 0.5 2.73858 0.5 5.5H1.5ZM5.5 1.5C7.70914 1.5 9.5 3.29086 9.5 5.5H10.5C10.5 2.73858 8.26142 0.5 5.5 0.5V1.5ZM9.5 5.5C9.5 7.70914 7.70914 9.5 5.5 9.5V10.5C8.26142 10.5 10.5 8.26142 10.5 5.5H9.5ZM5.0249 7.22498V7.27498H6.0249V7.22498H5.0249ZM5.52503 6.77498L5.47522 6.77496L5.47497 7.77496L5.52478 7.77498L5.52503 6.77498ZM5.9751 7.27496V7.22498H4.9751V7.27496H5.9751ZM5.4751 7.72498H5.5249V6.72498H5.4751V7.72498ZM5 3.72498V5.72498H6V3.72498H5Z" fill="#DB3275"/>
</svg>
