<svg width="15" height="15" viewBox="0 0 15 15" fill="none" xmlns="http://www.w3.org/2000/svg">
<path id="Vector" d="M1 5.33333V12.8444C1 13.2489 1 13.4512 1.07872 13.6057C1.14796 13.7416 1.25836 13.852 1.39426 13.9213C1.54875 14 1.75113 14 2.15561 14H9.66663M3.88885 8.80001V3.31112C3.88885 2.50216 3.88885 2.09768 4.04629 1.7887C4.18477 1.51691 4.40558 1.29592 4.67737 1.15744C4.98635 1 5.39112 1 6.20008 1H11.6889C12.4979 1 12.9021 1 13.211 1.15743C13.4828 1.29592 13.7041 1.51691 13.8426 1.7887C14 2.09768 14 2.50216 14 3.31113V8.79999C14 9.60896 14 10.0134 13.8426 10.3224C13.7041 10.5942 13.4828 10.8152 13.211 10.9537C12.9021 11.1111 12.4979 11.1111 11.6889 11.1111H6.20008C5.39112 11.1111 4.98635 11.1111 4.67737 10.9537C4.40558 10.8152 4.18477 10.5942 4.04629 10.3224C3.88885 10.0134 3.88885 9.60897 3.88885 8.80001Z" stroke="#A4A4A4" stroke-width="1.5" stroke-linecap="round" stroke-linejoin="round"/>
</svg>
