<svg width="26" height="32" viewBox="0 0 26 32" fill="none" xmlns="http://www.w3.org/2000/svg">
<g id="Icon">
<path d="M16.4077 17.9107C16.9502 17.4861 17.7419 17.5722 18.176 18.1029C18.61 18.6337 18.5221 19.4082 17.9795 19.8329L13.7961 23.107C13.5802 23.2797 13.3046 23.3837 13.0042 23.3846L13.0001 23.3846L12.9895 23.3846C12.6942 23.3822 12.4231 23.2803 12.2097 23.1114L8.02059 19.8329C7.47804 19.4082 7.39007 18.6337 7.82411 18.1029C8.25816 17.5722 9.04985 17.4861 9.5924 17.9107L11.742 19.5931V13.9487C11.742 13.269 12.3053 12.7179 13.0001 12.7179C13.6949 12.7179 14.2582 13.269 14.2582 13.9487V19.593L16.4077 17.9107Z" fill="#3CC1B3"/>
<path fill-rule="evenodd" clip-rule="evenodd" d="M4.6129 0C2.06527 0 0 2.02046 0 4.51282V27.4872C0 29.9795 2.06527 32 4.6129 32H21.3871C23.9347 32 26 29.9795 26 27.4872V9.76066C26 9.15984 25.8074 8.57416 25.4493 8.08607L20.3949 1.19721C19.8435 0.445658 18.9558 0 18.0102 0H4.6129ZM2.51613 4.51282C2.51613 3.37993 3.45489 2.46154 4.6129 2.46154H16.7742V9.6772C16.7742 10.3569 17.3374 10.908 18.0323 10.908H23.4839V27.4872C23.4839 28.6201 22.5451 29.5385 21.3871 29.5385H4.6129C3.45489 29.5385 2.51613 28.6201 2.51613 27.4872V4.51282Z" fill="#3CC1B3"/>
</g>
</svg>
