<svg width="15" height="16" viewBox="0 0 15 16" fill="none" xmlns="http://www.w3.org/2000/svg">
<path id="Subtract" fill-rule="evenodd" clip-rule="evenodd" d="M12.5885 3.06042C15.4583 5.85536 15.4583 10.3868 12.5885 13.1818C9.71878 15.9767 5.06596 15.9767 2.19618 13.1818C-0.67359 10.3868 -0.67359 5.85536 2.19618 3.06042C5.06596 0.265495 9.71878 0.265495 12.5885 3.06042ZM10.9954 11.6303C10.5998 12.0157 9.9583 12.0157 9.56265 11.6303L7.39229 9.51656L5.22192 11.6303C4.82628 12.0157 4.1848 12.0157 3.78915 11.6303C3.3935 11.245 3.3935 10.6202 3.78915 10.2349L5.95952 8.12115L3.78912 6.00736C3.39347 5.62202 3.39347 4.99728 3.78912 4.61195C4.18477 4.22662 4.82624 4.22662 5.22189 4.61195L7.39229 6.72574L9.56269 4.61195C9.95834 4.22662 10.5998 4.22662 10.9955 4.61195C11.3911 4.99728 11.3911 5.62202 10.9955 6.00735L8.82506 8.12115L10.9954 10.2349C11.3911 10.6202 11.3911 11.245 10.9954 11.6303Z" fill="#A4B4CB"/>
</svg>
