<svg width="10" height="15" viewBox="0 0 10 15" fill="none" xmlns="http://www.w3.org/2000/svg">
<path d="M4.59346 10.2879C4.54892 10.303 4.52354 10.2643 4.49325 10.2465C3.00871 9.37031 1.52581 8.49354 0.0445361 7.61618C0.0301925 7.60893 0.0153012 7.60283 0 7.59792V7.57832L0.0262775 7.56318C0.0635872 7.55339 0.100315 7.54149 0.136283 7.52755L3.6346 5.93583C3.94635 5.79376 4.2581 5.65392 4.56986 5.51318H4.59212C4.59212 5.55772 4.59212 5.59736 4.59212 5.63967C4.59331 7.18923 4.59376 8.73864 4.59346 10.2879Z" fill="#393939"/>
<path d="M4.59572 5.51426H4.57346C4.57346 5.46972 4.57791 5.42518 4.57791 5.37842C4.57791 3.63795 4.57791 1.89733 4.57791 0.156558C4.57279 0.111849 4.57581 0.0665826 4.58682 0.0229492H4.59617C4.77921 0.293284 4.93865 0.578315 5.107 0.857556C6.44071 3.06982 7.77368 5.28178 9.1059 7.49344C9.11882 7.51527 9.12906 7.53798 9.14064 7.56203C9.10291 7.55397 9.06585 7.5431 9.02974 7.52952C8.78524 7.41907 8.53985 7.30684 8.29757 7.19416C7.91812 7.02047 7.53852 6.84708 7.15878 6.67398L5.32924 5.84516C5.08562 5.73293 4.84067 5.62382 4.59572 5.51426Z" fill="#343434"/>
<path d="M4.58816 0.0207439C4.57715 0.0643773 4.57413 0.109644 4.57925 0.154352C4.57925 1.89483 4.57925 3.63545 4.57925 5.37622C4.57925 5.42075 4.57658 5.46529 4.5748 5.51205C4.26305 5.65279 3.95129 5.79263 3.63954 5.9347L0.141225 7.52642C0.105257 7.54036 0.0685292 7.55226 0.0312195 7.56205C0.132317 7.35184 0.2637 7.16123 0.383502 6.95992C1.77155 4.65265 3.16063 2.34583 4.55075 0.0394497C4.55993 0.026673 4.5699 0.0144762 4.58059 0.00292969L4.58816 0.0207439Z" fill="#8C8C8C"/>
<path d="M4.59549 5.5144C4.84044 5.62396 5.08539 5.73308 5.32989 5.84353L7.15943 6.67234C7.53948 6.84514 7.91908 7.01854 8.29823 7.19253C8.54228 7.30431 8.78812 7.41743 9.0304 7.52788C9.0665 7.54147 9.10357 7.55234 9.14129 7.5604C9.18583 7.61607 9.11992 7.61829 9.09988 7.63032C8.71998 7.85745 8.33831 8.08147 7.95752 8.30682C6.86461 8.95349 5.77199 9.6 4.67966 10.2464C4.65205 10.2624 4.62221 10.2744 4.59326 10.2882C4.59326 8.73927 4.59326 7.19015 4.59326 5.64089C4.59371 5.59858 4.59504 5.55671 4.59549 5.5144Z" fill="#141414"/>
<path d="M4.57788 11.1678L7.43933 9.48122C7.98564 9.15878 8.53165 8.83604 9.07737 8.51301L9.1268 8.48584C9.1317 8.53038 9.10097 8.55398 9.08227 8.57981C7.83525 10.3378 6.58824 12.0952 5.34123 13.852C5.10519 14.1851 4.86959 14.52 4.63132 14.8505C4.61885 14.8679 4.5997 14.9494 4.5614 14.863C4.59169 14.8371 4.57833 14.8024 4.57833 14.7739C4.57862 13.5714 4.57847 12.3694 4.57788 11.1678Z" fill="#3D3D3C"/>
<path d="M4.57789 11.168C4.57789 12.3696 4.57789 13.5709 4.57789 14.7719C4.57789 14.8026 4.59125 14.8374 4.56096 14.861C4.49728 14.8227 4.46966 14.7541 4.42736 14.6975C2.98141 12.6607 1.53622 10.6237 0.091762 8.58628C0.0735022 8.56045 0.0565775 8.53284 0.0378723 8.50434C0.0752827 8.48251 0.0953253 8.51235 0.117148 8.52527C1.57942 9.38868 3.04139 10.2528 4.50307 11.1177C4.53023 11.1346 4.55339 11.152 4.57789 11.168Z" fill="#8C8C8C"/>
<path d="M4.58866 0.0206945L4.57797 0.00421632C4.59757 -0.0082538 4.5949 0.0100059 4.59801 0.0193584L4.58866 0.0206945Z" fill="#393939"/>
</svg>
