<svg width="22" height="21" viewBox="0 0 22 21" fill="none" xmlns="http://www.w3.org/2000/svg">
<path d="M11.6667 18.9677C11.1144 18.9677 10.6667 19.4227 10.6667 19.9839C10.6667 20.5451 11.1144 21 11.6667 21H19.6667C20.9553 21 22 19.9385 22 18.629V2.37097C22 1.06152 20.9553 0 19.6667 0H11.6667C11.1144 0 10.6667 0.454938 10.6667 1.01613C10.6667 1.57732 11.1144 2.03226 11.6667 2.03226L19.6667 2.03226C19.8508 2.03226 20 2.1839 20 2.37097V18.629C20 18.8161 19.8508 18.9677 19.6667 18.9677H11.6667Z" fill="#C4C4C4"/>
<path fill-rule="evenodd" clip-rule="evenodd" d="M0 12.0109C0 12.9463 0.746191 13.7045 1.66667 13.7045H7.8168C7.8255 13.804 7.8346 13.9034 7.84411 14.0028L7.91615 14.756C8.02605 15.905 9.22686 16.5932 10.2514 16.0942C12.4304 15.0331 14.5352 13.4407 16.2066 11.6676C16.8255 11.0109 16.8255 9.97538 16.2066 9.31873L16.0743 9.17841C14.403 7.40525 12.4304 5.95321 10.2514 4.89211C9.22686 4.39317 8.02605 5.08131 7.91615 6.23036L7.84411 6.98349C7.8346 7.08292 7.8255 7.18237 7.8168 7.28186L1.66667 7.28186C0.746192 7.28186 0 8.04008 0 8.97541V12.0109ZM9.73761 12.5738C9.68095 12.0631 9.2551 11.6722 8.74396 11.6722H2L2 9.31411H8.74396C9.27207 9.31411 9.70915 8.89683 9.74202 8.36124C9.76621 7.96714 9.79711 7.57337 9.83473 7.18009L9.85564 6.96149C11.5954 7.87255 13.1789 9.06509 14.5436 10.4932C13.9738 11.0894 13.3658 11.6446 12.7243 12.1554C11.8293 12.868 10.869 13.4942 9.85564 14.0248L9.83473 13.8062C9.79711 13.413 9.76621 13.0192 9.74202 12.6251C9.74097 12.6079 9.73949 12.5908 9.73761 12.5738Z" fill="#C4C4C4"/>
</svg>
