<svg width="27" height="22" viewBox="0 0 27 22" fill="none" xmlns="http://www.w3.org/2000/svg">
<path d="M7.36619 21.7394C6.87301 21.7394 6.46543 21.3729 6.40092 20.8974L6.39203 20.7652L6.39281 3.64058L2.54535 7.51326C2.16574 7.89451 1.54893 7.89584 1.16768 7.51622C0.821082 7.17112 0.788476 6.62998 1.07062 6.248L1.16471 6.13854L6.67535 0.594169C6.72539 0.543914 6.77955 0.500265 6.83674 0.463218C6.85395 0.452754 6.87156 0.442103 6.88953 0.432005C6.90493 0.422717 6.92092 0.414324 6.93708 0.406405C6.96061 0.395408 6.98491 0.384662 7.00971 0.374906C7.02882 0.366979 7.04742 0.36036 7.06616 0.354323C7.0894 0.347145 7.11417 0.340173 7.13931 0.334174C7.15687 0.329715 7.17377 0.326183 7.19073 0.323103C7.21597 0.318771 7.24209 0.315083 7.26852 0.312452C7.28867 0.310181 7.30864 0.308813 7.32863 0.308057C7.34076 0.307862 7.35344 0.307617 7.36619 0.307617L7.40393 0.308105C7.42305 0.308852 7.44215 0.310157 7.46121 0.312024L7.36619 0.307617C7.42767 0.307617 7.48781 0.313313 7.54613 0.324203C7.56005 0.326728 7.57435 0.329735 7.58859 0.333067C7.61792 0.339987 7.64616 0.347986 7.67384 0.357194C7.6876 0.361714 7.70229 0.366978 7.71688 0.372605C7.74619 0.383989 7.77414 0.396362 7.80135 0.409975C7.81415 0.416299 7.82755 0.42338 7.84082 0.430797C7.86245 0.442971 7.88301 0.455511 7.90306 0.468773C7.91724 0.478129 7.93201 0.488492 7.94654 0.499311L7.95776 0.507743C7.99205 0.533988 8.02455 0.562458 8.05503 0.592942L8.05594 0.594112L13.5716 6.14139C13.9512 6.52262 13.9499 7.13943 13.5687 7.51908C13.2221 7.86421 12.6809 7.89453 12.3001 7.61077L12.191 7.51622L8.34114 3.64318L8.34036 20.7652C8.34036 21.3032 7.90421 21.7394 7.36619 21.7394Z" fill="white"/>
<path d="M19.865 0.307617C20.3488 0.307617 20.7486 0.667092 20.8118 1.13349L20.8206 1.26315L20.8198 18.0601L24.5964 14.2587C24.9688 13.8847 25.5738 13.8834 25.9477 14.2558C26.2877 14.5943 26.3197 15.1251 26.0429 15.4997L25.9506 15.6071L20.5427 21.0482C20.4936 21.0975 20.4405 21.1403 20.3844 21.1766C20.3675 21.1869 20.3502 21.1973 20.3326 21.2072C20.3175 21.2164 20.3018 21.2246 20.2859 21.2324C20.2629 21.2431 20.239 21.2537 20.2147 21.2632C20.1959 21.271 20.1777 21.2775 20.1593 21.2834C20.1365 21.2905 20.1122 21.2973 20.0876 21.3032C20.0703 21.3076 20.0538 21.311 20.0371 21.3141C20.0124 21.3183 19.9868 21.3219 19.9608 21.3245C19.9411 21.3267 19.9215 21.3281 19.9019 21.3288C19.89 21.329 19.8775 21.3293 19.865 21.3293L19.828 21.3288C19.8093 21.328 19.7905 21.3268 19.7718 21.3249L19.865 21.3293C19.8047 21.3293 19.7457 21.3237 19.6885 21.313C19.6749 21.3105 19.6609 21.3076 19.6469 21.3043C19.6181 21.2975 19.5904 21.2897 19.5633 21.2806C19.5498 21.2762 19.5354 21.271 19.5211 21.2655C19.4923 21.2543 19.4649 21.2422 19.4382 21.2289C19.4256 21.2226 19.4125 21.2157 19.3995 21.2084C19.3783 21.1965 19.3581 21.1842 19.3384 21.1712C19.3245 21.162 19.31 21.1518 19.2958 21.1412L19.2848 21.133C19.2511 21.1072 19.2193 21.0793 19.1894 21.0494L19.1885 21.0482L13.7784 15.6071C13.406 15.2332 13.4073 14.6282 13.7812 14.2558C14.1211 13.9173 14.652 13.8875 15.0255 14.1659L15.1325 14.2586L18.9087 18.0575L18.9095 1.26315C18.9095 0.735422 19.3373 0.307617 19.865 0.307617Z" fill="white"/>
</svg>
