<svg width="34" height="33" viewBox="0 0 34 33" fill="none" xmlns="http://www.w3.org/2000/svg">
<path d="M12.9409 28.5633V24.359C12.9409 23.2857 13.8439 22.4157 14.9578 22.4157H19.0295C19.5644 22.4157 20.0774 22.6204 20.4556 22.9849C20.8339 23.3493 21.0464 23.8436 21.0464 24.359V28.5633C21.043 29.0095 21.2246 29.4386 21.5508 29.7552C21.8771 30.0719 22.3211 30.25 22.7842 30.25H25.5621C26.8595 30.2532 28.1049 29.7589 29.0235 28.8761C29.9421 27.9933 30.4583 26.7946 30.4583 25.5445V13.5669C30.4583 12.5571 29.9938 11.5993 29.1899 10.9514L19.7399 3.67932C18.096 2.40427 15.7407 2.44544 14.146 3.7771L4.91159 10.9514C4.06971 11.5802 3.56652 12.5409 3.54166 13.5669V25.5323C3.54166 28.1378 5.73378 30.25 8.4379 30.25H11.1524C12.1142 30.25 12.8959 29.5023 12.9029 28.5756L12.9409 28.5633Z" fill="#387CFF"/>
</svg>
