<svg width="19" height="19" viewBox="0 0 19 19" fill="none" xmlns="http://www.w3.org/2000/svg">
<g id="icon" clip-path="url(#clip0_763_2074)">
<path id="Vector" d="M16.7078 6.1553L11.4115 1.51222C10.926 1.07797 10.2974 0.837891 9.64604 0.837891C8.99466 0.837891 8.36613 1.07797 7.88062 1.51222L2.58434 6.1553C2.30396 6.40605 2.08022 6.71366 1.92801 7.05764C1.77581 7.40163 1.69863 7.77409 1.70162 8.15023V15.8651C1.70162 16.5675 1.98062 17.241 2.47724 17.7377C2.97387 18.2343 3.64743 18.5133 4.34976 18.5133H14.9423C15.6447 18.5133 16.3182 18.2343 16.8148 17.7377C17.3115 17.241 17.5905 16.5675 17.5905 15.8651V8.1414C17.5922 7.76675 17.5144 7.39599 17.3623 7.05362C17.2101 6.71125 16.987 6.40507 16.7078 6.1553ZM11.4115 16.7479H7.88062V12.3343C7.88062 12.1002 7.97362 11.8757 8.13916 11.7101C8.3047 11.5446 8.52922 11.4516 8.76333 11.4516H10.5288C10.7629 11.4516 10.9874 11.5446 11.1529 11.7101C11.3185 11.8757 11.4115 12.1002 11.4115 12.3343V16.7479ZM15.825 15.8651C15.825 16.0993 15.732 16.3238 15.5665 16.4893C15.401 16.6549 15.1764 16.7479 14.9423 16.7479H13.1769V12.3343C13.1769 11.632 12.8979 10.9584 12.4013 10.4618C11.9047 9.96515 11.2311 9.68615 10.5288 9.68615H8.76333C8.061 9.68615 7.38743 9.96515 6.89081 10.4618C6.39419 10.9584 6.11519 11.632 6.11519 12.3343V16.7479H4.34976C4.11565 16.7479 3.89113 16.6549 3.72559 16.4893C3.56005 16.3238 3.46705 16.0993 3.46705 15.8651V8.1414C3.46721 8.01607 3.49405 7.89221 3.5458 7.77806C3.59755 7.66391 3.67301 7.56209 3.76717 7.47937L9.06345 2.84512C9.22454 2.7036 9.43162 2.62556 9.64604 2.62556C9.86046 2.62556 10.0675 2.7036 10.2286 2.84512L15.5249 7.47937C15.6191 7.56209 15.6945 7.66391 15.7463 7.77806C15.798 7.89221 15.8249 8.01607 15.825 8.1414V15.8651Z" fill="#3CC1B3"/>
</g>
<defs>
<clipPath id="clip0_763_2074">
<rect width="17.6754" height="17.6754" fill="white" transform="translate(0.596832 0.837891)"/>
</clipPath>
</defs>
</svg>
