<svg width="20" height="20" viewBox="0 0 20 20" fill="none" xmlns="http://www.w3.org/2000/svg">
<path d="M5.51025 17.8018C6.83174 18.5639 8.36502 19 10.0001 19C14.9707 19 19 14.9706 19 10C19 5.02944 14.9706 1 10 1C5.02944 1 1 5.02944 1 10C1 11.6351 1.43604 13.1684 2.19819 14.4899L2.19883 14.491C2.2737 14.6208 2.31123 14.6859 2.32816 14.7471C2.34396 14.8043 2.34918 14.8553 2.34513 14.9144C2.34084 14.9772 2.31914 15.0423 2.27629 15.1708L2.27468 15.1757L1.50586 17.4821L1.50526 17.4839C1.34281 17.9713 1.26154 18.2151 1.3194 18.3773C1.36981 18.5187 1.4812 18.63 1.62256 18.6804C1.785 18.7383 2.02953 18.6569 2.51807 18.494L4.82454 17.7252L4.82611 17.7247C4.9568 17.6811 5.02212 17.6594 5.08542 17.655C5.14458 17.651 5.19578 17.6561 5.25293 17.6719C5.31434 17.6888 5.3797 17.7265 5.51025 17.8018Z" stroke="#9A9A9A" stroke-linecap="round" stroke-linejoin="round"/>
<path d="M9.11111 12.0797V9.81399H9.51852C9.97119 9.81399 10.3704 9.72168 10.716 9.53706C11.07 9.35245 11.2469 9.05874 11.2469 8.65594C11.2469 8.32867 11.1317 8.07273 10.9012 7.88811C10.679 7.7035 10.3827 7.61119 10.0123 7.61119C9.23868 7.61119 8.76132 7.9972 8.58025 8.76923L7 8.25315C7.13992 7.52308 7.48971 6.96503 8.04938 6.57902C8.60905 6.19301 9.25926 6 10 6C10.9218 6 11.6502 6.23077 12.1852 6.69231C12.7284 7.15385 13 7.74126 13 8.45455C13 9.03357 12.7942 9.53287 12.3827 9.95245C11.9712 10.372 11.3909 10.6741 10.642 10.8587V12.0797H9.11111ZM10.6173 14.6979C10.4115 14.8993 10.1646 15 9.87654 15C9.58848 15 9.34156 14.8993 9.1358 14.6979C8.93827 14.4965 8.83951 14.249 8.83951 13.9552C8.83951 13.6699 8.93827 13.4266 9.1358 13.2252C9.34156 13.0154 9.58848 12.9105 9.87654 12.9105C10.1646 12.9105 10.4115 13.0154 10.6173 13.2252C10.823 13.4266 10.9259 13.6699 10.9259 13.9552C10.9259 14.2406 10.823 14.4881 10.6173 14.6979Z" fill="#9A9A9A"/>
</svg>
