<svg width="20" height="17" viewBox="0 0 20 17" fill="none" xmlns="http://www.w3.org/2000/svg">
<g id="Group 33688">
<g id="Icon">
<path d="M7.75 0C5.67893 0 4 1.67893 4 3.75C4 5.82107 5.67893 7.5 7.75 7.5C9.82107 7.5 11.5 5.82107 11.5 3.75C11.5 1.67893 9.82107 0 7.75 0Z" fill="#3CC1B3"/>
<path d="M3.75 9.5C1.67893 9.5 0 11.1789 0 13.25V14.4383C0 15.1915 0.545884 15.8337 1.28927 15.9551C5.5681 16.6537 9.9319 16.6537 14.2107 15.9551C14.9541 15.8337 15.5 15.1915 15.5 14.4383V13.25C15.5 11.1789 13.8211 9.5 11.75 9.5H11.4091C11.2246 9.5 11.0413 9.52917 10.8659 9.58644L10.0004 9.86906C8.53813 10.3465 6.96187 10.3465 5.49959 9.86906L4.63407 9.58644C4.45869 9.52917 4.27536 9.5 4.09087 9.5H3.75Z" fill="#3CC1B3"/>
<path d="M16.25 2.5C16.6642 2.5 17 2.83579 17 3.25V5H18.75C19.1642 5 19.5 5.33579 19.5 5.75C19.5 6.16421 19.1642 6.5 18.75 6.5H17V8.25C17 8.66421 16.6642 9 16.25 9C15.8358 9 15.5 8.66421 15.5 8.25V6.5H13.75C13.3358 6.5 13 6.16421 13 5.75C13 5.33579 13.3358 5 13.75 5H15.5V3.25C15.5 2.83579 15.8358 2.5 16.25 2.5Z" fill="#3CC1B3"/>
</g>
</g>
</svg>
