<svg width="20" height="22" viewBox="0 0 20 22" fill="none" xmlns="http://www.w3.org/2000/svg">
<g id="Group 33699">
<g id="Group 33698">
<g id="Group 33697">
<g id="Group 33700">
<path id="Union" fill-rule="evenodd" clip-rule="evenodd" d="M19.074 9.44945C18.9449 8.59094 18.4737 7.85234 17.8063 7.37072L17.8069 7.36602L17.7744 7.34802C17.5947 7.22167 17.4011 7.11377 17.1965 7.02695L12.7908 4.57931C11.0541 3.61451 8.9425 3.61451 7.20587 4.57931L2.78993 7.03261C2.5947 7.11653 2.40961 7.21966 2.23711 7.33973L2.18985 7.36599L2.19062 7.37272C1.5247 7.85438 1.05463 8.59213 0.925709 9.44945C0.880477 9.75025 0.839754 10.0516 0.803542 10.3533C0.523398 12.9562 0.535886 15.9581 0.925709 18.5505C1.14141 19.9849 2.31208 21.0845 3.75715 21.2101L5.26738 21.3414C8.41642 21.6151 11.5833 21.6151 14.7323 21.3414L16.2426 21.2101C17.6876 21.0845 18.8583 19.9849 19.074 18.5505C19.4638 15.9581 19.4763 12.9563 19.1962 10.3534C19.16 10.0517 19.1192 9.7503 19.074 9.44945ZM12.0623 5.89054L16.9654 8.61448C17.2944 8.86606 17.5257 9.24016 17.5907 9.67251C17.6024 9.75027 17.6137 9.82806 17.6248 9.90589L12.0638 12.9953C10.7802 13.7084 9.21943 13.7084 7.93584 12.9953L2.3749 9.90592C2.38596 9.82808 2.39734 9.75028 2.40903 9.67251C2.4746 9.23651 2.70919 8.85975 3.04267 8.60814L7.93434 5.89054C9.21793 5.17744 10.7787 5.17744 12.0623 5.89054Z" fill="#3CC1B3"/>
</g>
</g>
<rect id="Rectangle 4246" x="5" width="10" height="12" rx="2" fill="white"/>
<path id="Icon" fill-rule="evenodd" clip-rule="evenodd" d="M6.45004 2.20256C8.80459 1.93248 11.1954 1.93248 13.55 2.20256C14.7173 2.33647 15.6168 3.09277 15.7236 4.03033L15.8247 4.91783C16.0584 6.96838 16.0584 9.03162 15.8247 11.0822L15.7236 11.9697C15.6168 12.9072 14.3303 12.8661 13.1629 13C11 15 9 14.5 6.5 13C5.33262 12.8661 4.38324 12.9072 4.2764 11.9697L4.17526 11.0822C3.94158 9.03162 3.94158 6.96838 4.17526 4.91784L4.2764 4.03033C4.38324 3.09277 5.28266 2.33647 6.45004 2.20256ZM13.38 3.14667C11.1382 2.88952 8.86182 2.88952 6.62 3.14667C6.00042 3.21774 5.52307 3.61914 5.46636 4.11674L5.36522 5.00425C5.13809 6.9973 5.13809 9.0027 5.36522 10.9958L5.46636 11.8833C5.52307 12.3809 6.00042 12.7823 6.62 12.8533C9 14.5 11 14.5 13.38 12.8533C13.9996 12.7823 14.4769 12.3809 14.5336 11.8833L14.6348 10.9958C14.8619 9.0027 14.8619 6.9973 14.6348 5.00424L14.5336 4.11674C14.4769 3.61914 13.9996 3.21774 13.38 3.14667Z" fill="#3CC1B3"/>
</g>
<path id="Icon_2" d="M10 5C10.3824 5 10.6923 5.30996 10.6923 5.69231V7.30769H12.3077C12.69 7.30769 13 7.61765 13 8C13 8.38235 12.69 8.69231 12.3077 8.69231H10.6923V10.3077C10.6923 10.69 10.3824 11 10 11C9.61765 11 9.30769 10.69 9.30769 10.3077V8.69231H7.69231C7.30996 8.69231 7 8.38235 7 8C7 7.61765 7.30996 7.30769 7.69231 7.30769H9.30769V5.69231C9.30769 5.30996 9.61765 5 10 5Z" fill="#3CC1B3"/>
</g>
</svg>
