<svg width="21" height="20" viewBox="0 0 21 20" fill="none" xmlns="http://www.w3.org/2000/svg">
<g id="Group 1000004226">
<g id="Group 33">
<g id="Group 18">
<path id="Vector 317" d="M19.0652 16.807L19.0652 1.9999C19.0652 1.44762 18.6175 0.999903 18.0652 0.999903L2.00001 0.999905C1.44773 0.999905 1.00001 1.44762 1.00001 1.9999L1.00001 18.4199" stroke="#3CC1B3" stroke-width="2" stroke-linecap="round"/>
<path id="Vector 318" d="M3.58142 4.87109L16.4851 4.87109" stroke="#3CC1B3" stroke-width="2" stroke-linecap="round"/>
<path id="Vector 320" d="M3.69282 9.10449L12.2397 9.10449" stroke="#3CC1B3" stroke-width="2" stroke-linecap="round"/>
</g>
</g>
<g id="Group 1000004207">
<path id="Vector 9" d="M4.89048 11.8779H4.16385C3.61156 11.8779 3.16385 12.3256 3.16385 12.8779V13.2592" stroke="#3CC1B3" stroke-width="1.5" stroke-linecap="round"/>
<path id="Vector 10" d="M7.99858 11.8779H8.37988C8.93217 11.8779 9.37988 12.3256 9.37988 12.8779V13.2592" stroke="#3CC1B3" stroke-width="1.5" stroke-linecap="round"/>
<path id="Vector 11" d="M7.65325 18.0938H8.37988C8.93217 18.0938 9.37988 17.646 9.37988 17.0938V16.7124" stroke="#3CC1B3" stroke-width="1.5" stroke-linecap="round"/>
<path id="Vector 12" d="M4.89048 18.0938H4.16385C3.61156 18.0938 3.16385 17.646 3.16385 17.0938V16.7124" stroke="#3CC1B3" stroke-width="1.5" stroke-linecap="round"/>
</g>
</g>
</svg>
