<svg width="152" height="37" viewBox="0 0 152 37" fill="none" xmlns="http://www.w3.org/2000/svg">
<g id="Group 1000004154">
<path id="Vector" d="M8.37012 21.5881C8.83777 20.7569 9.31314 19.9337 9.76024 19.0917C9.95552 18.7217 10.1816 18.5822 10.5953 18.5849C15.5417 18.601 20.4881 18.5983 25.4319 18.5983C25.676 18.5983 25.9175 18.5983 26.285 18.5983L30.1033 18.5527C30.6686 19.5797 31.2365 20.6067 31.8069 21.6364C28.4177 21.6364 25.1647 21.6364 21.8525 21.6364C21.8525 26.6908 21.8525 31.6702 21.8525 36.6979C20.7168 36.6979 19.6427 36.7033 18.5686 36.6872C18.4864 36.6845 18.3528 36.5236 18.3374 36.4217C18.3014 36.2018 18.3245 35.9739 18.3245 35.7487C18.3245 31.3565 18.3245 26.9617 18.3245 22.5695C18.3245 22.2826 18.3245 21.9957 18.3245 21.6954C18.2269 21.6739 18.1704 21.6498 18.1138 21.6498C16.2329 21.6471 14.3546 21.6417 12.4737 21.6578" fill="#3CC1B3"/>
<path id="Vector_2" d="M12.3369 21.7012C12.1915 21.7012 11.9849 21.8243 11.9135 21.9528C9.8782 25.6272 7.85308 29.3098 5.83051 32.9923C5.7999 33.0458 5.78715 33.1101 5.73614 33.2465C5.91978 33.2599 6.07536 33.2787 6.23094 33.2787C9.19721 33.2787 12.166 33.2867 15.1323 33.2653C15.5761 33.2626 15.7572 33.3589 15.7342 33.8728C15.6909 34.7988 15.7215 35.7301 15.7215 36.6989C10.475 36.6989 5.27194 36.6989 0 36.6989C0.219346 36.2787 0.415736 35.888 0.624879 35.508C3.09379 31.0226 5.56271 26.5372 8.03417 22.0518C8.11068 21.9126 8.1872 21.7734 8.26627 21.6343" fill="#3CC1B3"/>
<path id="Vector_3" d="M26.2992 18.5528C24.2068 14.7898 22.1685 11.1205 20.0864 7.37364C19.8903 7.69724 19.7252 7.95399 19.5781 8.22143C18.2081 10.6766 16.8381 13.1317 15.4835 15.5975C15.3184 15.8971 15.143 16.0308 14.7972 16.0228C13.6904 15.9987 12.5835 16.0147 11.3838 16.0147C14.2967 10.7809 17.1658 5.62456 20.0709 0.406738C23.4302 6.44828 26.7636 12.4444 30.1332 18.5073" fill="#3CC1B3"/>
<path id="Vector_4" d="M24.442 36.696C24.442 35.6054 24.4395 34.5553 24.4446 33.5025C24.4471 33.1371 24.7151 33.2183 24.9141 33.2183C27.2692 33.2156 29.6243 33.2156 31.9794 33.2156C32.7729 33.2156 33.5664 33.2156 34.4748 33.2156C33.6175 31.6351 32.8061 30.1276 31.9896 28.6256C31.1782 27.1289 30.3617 25.635 29.5171 24.0815C29.7161 24.0599 29.8156 24.0382 29.9177 24.0355C30.9281 24.0328 31.936 24.022 32.9464 24.0463C33.125 24.0517 33.3827 24.1627 33.4618 24.3116C35.6511 28.3062 37.8225 32.3117 39.9964 36.3171C40.0551 36.4254 40.1036 36.5418 40.1776 36.6987C34.929 36.696 29.7263 36.696 24.442 36.696Z" fill="#3CC1B3"/>
<path id="Vector_5" d="M92.408 24.1374C92.4496 19.4749 96.1221 15.7832 100.698 15.8142C105.434 15.8451 109.166 19.5676 109.148 24.2487C109.13 28.8369 105.315 32.609 100.698 32.5904C96.0508 32.5657 92.3723 28.8122 92.408 24.1374ZM94.5948 24.1374C94.583 27.9898 97.269 31.0816 100.638 31.1002C104.127 31.1187 106.949 28.0578 106.949 24.2548C106.955 20.4148 104.168 17.292 100.739 17.2797C97.3047 17.2673 94.6067 20.2788 94.5948 24.1374Z" fill="#3CC1B3" stroke="#3CC1B3" stroke-miterlimit="10"/>
<path id="Vector_6" d="M140.094 15.814C140.094 17.9649 140.135 20.0547 140.076 22.1323C140.047 23.0611 140.348 23.3177 141.223 23.2994C143.694 23.2444 146.171 23.2811 148.789 23.2811C148.789 21.3012 148.783 19.4436 148.789 17.586C148.795 16.1623 149.368 15.6856 150.935 15.8873C150.935 16.5961 150.929 17.3233 150.935 18.0443C150.958 22.1139 150.976 26.1836 151 30.2532C151.006 31.1148 150.858 31.8603 149.912 32.1475C149.162 32.3797 148.789 32.2514 148.807 31.3226C148.848 29.1655 148.819 27.0024 148.819 24.7537C145.905 24.7537 143.097 24.7537 140.118 24.7537C140.118 26.6846 140.124 28.5728 140.118 30.461C140.112 31.8786 139.527 32.3552 138.019 32.1414C138.001 31.8358 137.972 31.512 137.972 31.1942C137.96 26.7213 137.948 22.2484 137.942 17.7754C137.942 16.2356 138.356 15.8323 140.094 15.814Z" fill="#3CC1B3" stroke="#3CC1B3" stroke-miterlimit="10"/>
<path id="Vector_7" d="M80.535 32.5361C80.535 30.097 80.535 27.6457 80.535 25.1024C77.6211 25.1024 74.8136 25.1024 71.8051 25.1024C71.8051 26.0952 71.8051 27.1064 71.8051 28.1237C71.8051 29.0062 71.8169 29.8887 71.8051 30.7711C71.7873 32.2174 71.279 32.6709 69.7659 32.579C69.7305 32.3829 69.6654 32.1807 69.6654 31.9723C69.6536 27.3454 69.6359 22.7123 69.6418 18.0854C69.6418 16.5226 70.091 16.1182 71.7519 16.1672C71.7519 18.5695 71.7519 20.9841 71.7519 23.5029C74.6894 23.5029 77.5265 23.5029 80.4995 23.5029C80.4995 21.5847 80.4582 19.7217 80.5114 17.8648C80.5527 16.4185 81.0138 16.0691 82.521 16.1733C82.5564 16.3327 82.6214 16.5043 82.6214 16.6759C82.651 21.3396 82.6924 26.0094 82.6983 30.6731C82.6983 32.15 82.1131 32.6526 80.535 32.5361Z" fill="#3CC1B3" stroke="#3CC1B3" stroke-miterlimit="10"/>
<path id="Vector_8" d="M122.147 17.3347C120.27 17.3347 118.593 17.3347 116.858 17.3347C116.764 16.1253 117.458 15.9093 118.223 15.8784C119.599 15.8229 120.976 15.8229 122.347 15.8167C124.742 15.8105 127.136 15.8167 129.572 15.8167C129.56 16.946 128.925 17.2298 128.119 17.2422C126.889 17.2668 125.659 17.2483 124.336 17.2483C124.312 17.8284 124.277 18.2233 124.277 18.6121C124.283 22.4997 124.3 26.3873 124.306 30.2749C124.306 31.8732 123.877 32.299 122.141 32.2434C122.147 27.3315 122.147 22.3948 122.147 17.3347Z" fill="#3CC1B3" stroke="#3CC1B3" stroke-miterlimit="10"/>
<path id="Vector_9" d="M53.8523 32.5518C53.8523 27.7105 53.8523 22.8509 53.8523 17.8516C51.9903 17.8516 50.287 17.8516 48.5484 17.8516C48.5307 16.9344 48.9771 16.5274 49.6291 16.5213C53.494 16.4849 57.3647 16.5031 61.2707 16.5031C61.2707 17.4446 60.7479 17.7787 60.0079 17.8091C59.0211 17.8516 58.0343 17.8698 57.0534 17.8212C56.2487 17.7848 55.9609 18.0278 55.9727 18.9207C56.0314 22.8934 56.0255 26.8661 56.0255 30.8388C56.0196 32.2481 55.4264 32.7401 53.8523 32.5518Z" fill="#3CC1B3" stroke="#3CC1B3" stroke-miterlimit="10"/>
</g>
</svg>
