<svg width="29" height="29" viewBox="0 0 29 29" fill="none" xmlns="http://www.w3.org/2000/svg">
<path fill-rule="evenodd" clip-rule="evenodd" d="M22.6565 12.6876L22.6486 12.981L22.6565 13.2918L22.6491 13.5857L22.6565 13.8959L22.6494 14.1918L22.6565 14.5001L22.4603 23.0829C22.4137 25.1193 20.8649 26.8057 18.8398 27.025C15.955 27.3374 13.0449 27.3374 10.1601 27.025C8.13505 26.8057 6.58626 25.1193 6.5397 23.0829L6.34349 14.5001L6.35059 14.1898L6.34351 13.8959L6.35095 13.5869L6.34345 13.2918L6.35131 12.9824L6.34338 12.6876L6.54156 5.31926C6.54432 5.21646 6.55155 5.11472 6.56305 5.01424L6.56756 4.97176L6.57113 4.93751C6.66854 3.94173 7.22036 3.07323 8.02454 2.55203C8.08453 2.51213 8.14594 2.47413 8.20866 2.43813C8.27003 2.40181 8.33266 2.36737 8.39648 2.33489C8.79112 2.12661 9.23155 1.99162 9.70038 1.94846C12.8934 1.65455 16.1066 1.65455 19.2995 1.94846C19.7676 1.99155 20.2074 2.12618 20.6015 2.33389C20.6654 2.36633 20.728 2.40072 20.7894 2.43699C20.8541 2.47407 20.9174 2.51328 20.9792 2.5545C21.7791 3.07453 22.3285 3.93852 22.428 4.9293L22.4374 5.01908C22.4486 5.11798 22.4556 5.21811 22.4584 5.31926L22.6565 12.6876ZM20.6314 5.22093L20.821 13.5182L20.6673 19.2338C20.6328 20.5187 19.643 21.5749 18.3631 21.6927C15.7931 21.9293 13.2068 21.9293 10.6369 21.6927C9.35691 21.5749 8.36716 20.5187 8.3326 19.2338L8.1789 13.5189L8.3686 5.22092C8.369 5.20307 8.36975 5.1853 8.37082 5.16761C8.44269 4.68152 8.72439 4.26193 9.1238 4.00714C9.27511 3.92826 9.443 3.87595 9.62159 3.85661C12.8644 3.50543 16.1356 3.50543 19.3784 3.85661C19.5569 3.87594 19.7247 3.92821 19.876 4.00704C20.2756 4.26189 20.5574 4.68169 20.6292 5.16801C20.6302 5.18557 20.631 5.20321 20.6314 5.22093ZM14.5 26.2209C15.501 26.2209 16.3125 25.4094 16.3125 24.4084C16.3125 23.4074 15.501 22.5959 14.5 22.5959C13.499 22.5959 12.6875 23.4074 12.6875 24.4084C12.6875 25.4094 13.499 26.2209 14.5 26.2209Z" fill="#455A64"/>
</svg>
