<svg width="18" height="19" viewBox="0 0 18 19" fill="none" xmlns="http://www.w3.org/2000/svg">
<path d="M3.56187 1.14771C3.82772 0.859599 3.7963 0.422196 3.49167 0.170746C3.18705 -0.0807037 2.72459 -0.0509814 2.45873 0.237133L1.19777 1.60365C0.482508 2.37879 0.0781702 3.36711 0.0554884 4.39571L0.000162401 6.9047C-0.0082682 7.28703 0.312593 7.60343 0.716827 7.6114C1.12106 7.61938 1.45559 7.31591 1.46402 6.93358L1.51935 4.42459C1.53487 3.72081 1.81152 3.04459 2.30091 2.51423L3.56187 1.14771Z" fill="#27DEBF"/>
<path fill-rule="evenodd" clip-rule="evenodd" d="M3.37465 6.02948C3.51023 3.97926 5.30785 2.38209 7.47978 2.38209H8.02388V1.68967C8.02388 1.1798 8.46091 0.766457 9 0.766457C9.5391 0.766457 9.97612 1.1798 9.97612 1.68967V2.38209H10.5202C12.6921 2.38209 14.4898 3.97926 14.6253 6.02948L14.8411 9.29163C14.9233 10.5354 15.3648 11.734 16.1174 12.7568C16.7975 13.681 16.1921 14.9574 15.0101 15.0916L11.6843 15.469V16.4612C11.6843 17.8633 10.4825 19 9 19C7.51749 19 6.31568 17.8633 6.31568 16.4612V15.469L2.98992 15.0916C1.80791 14.9574 1.2025 13.681 1.88254 12.7568C2.63519 11.734 3.07667 10.5354 3.15892 9.29163L3.37465 6.02948ZM7.47978 3.76691C6.081 3.76691 4.92329 4.79553 4.83597 6.11593L4.62025 9.37807C4.52127 10.8747 3.99001 12.317 3.08433 13.5479C3.03517 13.6147 3.07893 13.7069 3.16437 13.7166L6.81276 14.1307C8.26571 14.2956 9.73429 14.2956 11.1872 14.1307L14.8356 13.7166C14.9211 13.7069 14.9648 13.6147 14.9157 13.5479C14.01 12.317 13.4787 10.8747 13.3797 9.37807L13.164 6.11593C13.0767 4.79553 11.919 3.76691 10.5202 3.76691H7.47978ZM9 17.6152C8.32613 17.6152 7.77985 17.0985 7.77985 16.4612V15.7687H10.2201V16.4612C10.2201 17.0985 9.67387 17.6152 9 17.6152Z" fill="#27DEBF"/>
<path d="M14.5083 0.170746C14.2037 0.422196 14.1723 0.859599 14.4381 1.14771L15.6991 2.51423C16.1885 3.04459 16.4651 3.72081 16.4807 4.42459L16.536 6.93358C16.5444 7.31591 16.8789 7.61938 17.2832 7.6114C17.6874 7.60343 18.0083 7.28703 17.9998 6.9047L17.9445 4.39571C17.9218 3.36711 17.5175 2.37879 16.8022 1.60365L15.5413 0.237133C15.2754 -0.0509814 14.813 -0.0807037 14.5083 0.170746Z" fill="#27DEBF"/>
</svg>
