<svg width="20" height="22" viewBox="0 0 20 22" fill="none" xmlns="http://www.w3.org/2000/svg">
<g id="Icon">
<path d="M10 0C7.32765 0 5.16129 2.24142 5.16129 5.00635C5.16129 7.77129 7.32765 10.0127 10 10.0127C12.6723 10.0127 14.8387 7.77129 14.8387 5.00635C14.8387 2.24142 12.6723 0 10 0Z" fill="#0290EA"/>
<path d="M4.83871 12.6828C2.16636 12.6828 0 14.9242 0 17.6891V19.2755C0 20.2811 0.704366 21.1385 1.66358 21.3005C7.18464 22.2332 12.8154 22.2332 18.3364 21.3005C19.2956 21.1385 20 20.2811 20 19.2755V17.6891C20 14.9242 17.8336 12.6828 15.1613 12.6828H14.7215C14.4834 12.6828 14.2468 12.7217 14.0206 12.7982L12.9038 13.1755C11.0169 13.8129 8.98306 13.8129 7.09624 13.1755L5.97945 12.7982C5.75315 12.7217 5.51659 12.6828 5.27854 12.6828H4.83871Z" fill="#0290EA"/>
</g>
</svg>
