<svg width="32" height="32" viewBox="0 0 32 32" fill="none" xmlns="http://www.w3.org/2000/svg">
<circle cx="16" cy="16" r="16" transform="matrix(-1 0 0 1 32 0)" fill="white"/>
<mask id="mask0_1_7783" style="mask-type:alpha" maskUnits="userSpaceOnUse" x="0" y="0" width="32" height="32">
<circle cx="16" cy="16" r="16" transform="matrix(-1 0 0 1 32 0)" fill="#D9D9D9"/>
</mask>
<g mask="url(#mask0_1_7783)">
<circle cx="16.2222" cy="12.8307" r="4.83069" fill="black"/>
<path d="M7.85918 26.4495C8.70415 23.6465 11.4564 22.053 14.384 22.053H18.0605C20.988 22.053 23.7403 23.6465 24.5853 26.4495C24.9743 27.7402 25.3025 29.2113 25.4085 30.7151C25.4473 31.266 24.9967 31.7144 24.4444 31.7144H8C7.44771 31.7144 6.99714 31.266 7.03597 30.7151C7.14195 29.2113 7.47011 27.7402 7.85918 26.4495Z" fill="black"/>
</g>
</svg>
