<svg width="47" height="47" viewBox="0 0 47 47" fill="none" xmlns="http://www.w3.org/2000/svg">
<rect width="46.0133" height="46.0133" rx="23.0067" fill="#0059AB"/>
<g clip-path="url(#clip0_1_18)">
<path d="M30.6405 23.3395C31.9936 22.5744 32.4137 22.1063 33.1878 20.9482C34.1599 19.49 34.5019 17.9419 34.5019 16.5707C34.5019 13.7834 33.5898 11.6951 31.7656 10.303C29.9414 8.9108 27.7331 8.21472 24.5108 8.21472H17.2859V38.1462H21.9005V34.2218V24.4466C21.9005 24.4466 24.5828 24.4466 26.32 24.4466C27.2741 24.4466 28.8433 24.3566 30.6405 23.3395ZM21.5644 12.2712H24.5168C26.359 12.2712 27.7691 12.6192 28.7503 13.3183C29.7314 14.0174 30.2204 15.0705 30.2204 16.4777C30.2204 17.7648 29.7674 18.77 28.8583 19.493C27.9522 20.2161 26.773 20.5762 25.3269 20.5762H21.5644V12.2712Z" fill="white"/>
<path d="M25.8939 20.5882H14.7866V24.4256H25.8939V20.5882Z" fill="white"/>
<path d="M29.7044 26.1688H14.7866V30.0063H29.7044V26.1688Z" fill="white"/>
</g>
<defs>
<clipPath id="clip0_1_18">
<rect width="19.7153" height="29.9315" fill="white" transform="translate(14.7866 8.21472)"/>
</clipPath>
</defs>
</svg>
