<svg width="32" height="32" viewBox="0 0 32 32" fill="none" xmlns="http://www.w3.org/2000/svg">
<g id="Group 33683">
<path id="Rectangle 4000" d="M4.28003 24.1938L7.11134 21.7797" stroke="#3CC1B3" stroke-linecap="round"/>
<path id="Rectangle 4241" d="M16 26L16 22" stroke="#3CC1B3" stroke-linecap="round"/>
<path id="Rectangle 4242" d="M27.603 24.1855L24.74 21.7802" stroke="#3CC1B3" stroke-linecap="round"/>
<g id="Icon">
<path fill-rule="evenodd" clip-rule="evenodd" d="M10.5161 5.00617C10.5161 2.24134 12.9713 0 16 0C19.0287 0 21.4839 2.24134 21.4839 5.00617C21.4839 7.771 19.0287 10.0123 16 10.0123C12.9713 10.0123 10.5161 7.771 10.5161 5.00617ZM16 1.76688C14.0403 1.76688 12.4516 3.21716 12.4516 5.00617C12.4516 6.79518 14.0403 8.24545 16 8.24545C17.9597 8.24545 19.5484 6.79518 19.5484 5.00617C19.5484 3.21716 17.9597 1.76688 16 1.76688Z" fill="#3CC1B3"/>
<path fill-rule="evenodd" clip-rule="evenodd" d="M10.8387 13.5461C9.2353 13.5461 7.93548 14.7327 7.93548 16.1964V17.5961C7.93548 17.6174 7.9524 17.6356 7.97544 17.639C13.29 18.4311 18.71 18.4311 24.0246 17.639L24.0645 17.5961V16.1964C24.0645 14.7327 22.7647 13.5461 21.1613 13.5461H20.7215C20.6875 13.5461 20.6537 13.551 20.6213 13.5606L19.5045 13.8935C17.2273 14.5723 14.7727 14.5723 12.4955 13.8935L11.3787 13.5606C11.3463 13.551 11.3125 13.5461 11.2785 13.5461H10.8387ZM6 16.1964C6 13.7569 8.16636 11.7792 10.8387 11.7792H11.2785C11.5166 11.7792 11.7532 11.8136 11.9794 11.881L13.0962 12.2139C14.9831 12.7764 17.0169 12.7764 18.9038 12.2139L20.0206 11.881C20.2468 11.8136 20.4834 11.7792 20.7215 11.7792H21.1613C23.8336 11.7792 26 13.7569 26 16.1964V17.5961C26 18.4834 25.2956 19.2399 24.3364 19.3828C18.8154 20.2057 13.1846 20.2057 7.66358 19.3828C6.70437 19.2399 6 18.4834 6 17.5961V16.1964Z" fill="#3CC1B3"/>
</g>
<circle id="Ellipse 91" cx="16" cy="30" r="2" fill="#3CC1B3"/>
<circle id="Ellipse 93" cx="30" cy="28" r="2" fill="#3CC1B3"/>
<circle id="Ellipse 92" cx="2" cy="28" r="2" fill="#3CC1B3"/>
</g>
</svg>
