<svg width="153" height="153" viewBox="0 0 153 153" fill="none" xmlns="http://www.w3.org/2000/svg">
<g id="Group 1000004225">
<circle id="Ellipse 100" cx="76.2971" cy="76.2971" r="73.7971" stroke="#02EADC" stroke-width="5"/>
<g id="Icon">
<path d="M77.007 25.5508C65.3424 25.5508 55.8865 35.5296 55.8865 47.8391C55.8865 60.1486 65.3424 70.1275 77.007 70.1275C88.6715 70.1275 98.1275 60.1486 98.1275 47.8391C98.1275 35.5296 88.6715 25.5508 77.007 25.5508Z" stroke="#00E0D3" stroke-width="5" stroke-linecap="round" stroke-linejoin="round"/>
<path d="M54.4784 82.0146C42.8139 82.0146 33.3579 91.9934 33.3579 104.303V111.366C33.3579 115.842 36.4324 119.66 40.6193 120.381C64.7182 124.533 89.2957 124.533 113.395 120.381C117.582 119.66 120.656 115.842 120.656 111.366V104.303C120.656 91.9934 111.2 82.0146 99.5355 82.0146H97.6157C96.5766 82.0146 95.544 82.188 94.5563 82.5283L89.6816 84.2081C81.4458 87.046 72.5681 87.046 64.3323 84.2081L59.4576 82.5283C58.4699 82.188 57.4373 82.0146 56.3982 82.0146H54.4784Z" stroke="#00E0D3" stroke-width="5" stroke-linecap="round" stroke-linejoin="round"/>
</g>
</g>
</svg>
