<svg width="15" height="13" viewBox="0 0 15 13" fill="none" xmlns="http://www.w3.org/2000/svg">
<g id="Vector">
<path d="M6.45 10.4026L6.81818 10.7862V8.45211C6.81818 8.27967 6.89002 8.1143 7.01788 7.99237C7.14575 7.87044 7.31917 7.80195 7.5 7.80195C7.68083 7.80195 7.85425 7.87044 7.98212 7.99237C8.10998 8.1143 8.18182 8.27967 8.18182 8.45211V10.7862L8.55 10.4286C8.61189 10.3619 8.68748 10.3081 8.77208 10.2705C8.85668 10.2328 8.94848 10.2121 9.04181 10.2097C9.13514 10.2072 9.228 10.2231 9.31463 10.2563C9.40127 10.2895 9.47983 10.3393 9.54545 10.4026C9.60936 10.463 9.66008 10.5349 9.6947 10.6142C9.72931 10.6934 9.74714 10.7784 9.74714 10.8642C9.74714 10.95 9.72931 11.035 9.6947 11.1142C9.66008 11.1935 9.60936 11.2654 9.54545 11.3258L7.98409 12.8147C7.91925 12.8739 7.84279 12.9203 7.75909 12.9512C7.59309 13.0163 7.40691 13.0163 7.24091 12.9512C7.15722 12.9203 7.08075 12.8739 7.01591 12.8147L5.45455 11.3518C5.32254 11.226 5.24838 11.0552 5.24838 10.8772C5.24838 10.6992 5.32254 10.5285 5.45455 10.4026C5.58655 10.2767 5.76559 10.206 5.95227 10.206C6.13896 10.206 6.31799 10.2767 6.45 10.4026ZM7.5 6.50162C7.09545 6.50162 6.69998 6.38723 6.36361 6.1729C6.02723 5.95858 5.76506 5.65396 5.61025 5.29755C5.45543 4.94115 5.41492 4.54897 5.49385 4.17061C5.57277 3.79226 5.76758 3.44471 6.05365 3.17193C6.33971 2.89915 6.70417 2.71339 7.10095 2.63813C7.49773 2.56287 7.909 2.60149 8.28276 2.74912C8.65652 2.89675 8.97598 3.14675 9.20073 3.4675C9.42549 3.78826 9.54545 4.16537 9.54545 4.55114C9.54545 5.06844 9.32995 5.56455 8.94635 5.93034C8.56276 6.29612 8.04249 6.50162 7.5 6.50162ZM7.5 3.90097C7.36515 3.90097 7.23333 3.9391 7.1212 4.01054C7.00908 4.08199 6.92169 4.18353 6.87008 4.30233C6.81848 4.42113 6.80497 4.55186 6.83128 4.67798C6.85759 4.80409 6.92253 4.91994 7.01788 5.01087C7.11324 5.1018 7.23472 5.16372 7.36698 5.1888C7.49924 5.21389 7.63633 5.20102 7.76092 5.15181C7.88551 5.1026 7.99199 5.01926 8.06691 4.91235C8.14183 4.80543 8.18182 4.67972 8.18182 4.55114C8.18182 4.3787 8.10998 4.21333 7.98212 4.0914C7.85425 3.96947 7.68083 3.90097 7.5 3.90097ZM2.72727 4.55114C2.72727 4.42255 2.76726 4.29684 2.84218 4.18992C2.9171 4.083 3.02358 3.99967 3.14817 3.95046C3.27276 3.90125 3.40985 3.88838 3.54211 3.91347C3.67437 3.93855 3.79586 4.00047 3.89121 4.0914C3.98656 4.18233 4.0515 4.29818 4.07781 4.42429C4.10412 4.55041 4.09061 4.68114 4.03901 4.79994C3.9874 4.91874 3.90001 5.02028 3.78789 5.09172C3.67576 5.16317 3.54394 5.2013 3.40909 5.2013C3.22826 5.2013 3.05484 5.1328 2.92697 5.01087C2.79911 4.88894 2.72727 4.72357 2.72727 4.55114ZM12.2727 4.55114C12.2727 4.67972 12.2327 4.80543 12.1578 4.91235C12.0829 5.01926 11.9764 5.1026 11.8518 5.15181C11.7272 5.20102 11.5902 5.21389 11.4579 5.1888C11.3256 5.16372 11.2041 5.1018 11.1088 5.01087C11.0134 4.91994 10.9485 4.80409 10.9222 4.67798C10.8959 4.55186 10.9094 4.42113 10.961 4.30233C11.0126 4.18353 11.1 4.08199 11.2121 4.01054C11.3242 3.9391 11.4561 3.90097 11.5909 3.90097C11.7717 3.90097 11.9452 3.96947 12.073 4.0914C12.2009 4.21333 12.2727 4.3787 12.2727 4.55114ZM12.9545 9.10227H10.2273C10.0464 9.10227 9.87302 9.03377 9.74515 8.91184C9.61729 8.78991 9.54545 8.62454 9.54545 8.45211C9.54545 8.27967 9.61729 8.1143 9.74515 7.99237C9.87302 7.87044 10.0464 7.80195 10.2273 7.80195H12.9545C13.1354 7.80195 13.3088 7.73345 13.4367 7.61152C13.5645 7.48959 13.6364 7.32422 13.6364 7.15178V1.95049C13.6364 1.77805 13.5645 1.61268 13.4367 1.49075C13.3088 1.36882 13.1354 1.30032 12.9545 1.30032H2.04545C1.86463 1.30032 1.6912 1.36882 1.56334 1.49075C1.43547 1.61268 1.36364 1.77805 1.36364 1.95049V7.15178C1.36364 7.32422 1.43547 7.48959 1.56334 7.61152C1.6912 7.73345 1.86463 7.80195 2.04545 7.80195H4.77273C4.95356 7.80195 5.12698 7.87044 5.25485 7.99237C5.38271 8.1143 5.45455 8.27967 5.45455 8.45211C5.45455 8.62454 5.38271 8.78991 5.25485 8.91184C5.12698 9.03377 4.95356 9.10227 4.77273 9.10227H2.04545C1.50297 9.10227 0.982697 8.89677 0.5991 8.53099C0.215503 8.1652 0 7.66908 0 7.15178V1.95049C0 1.43318 0.215503 0.937071 0.5991 0.571283C0.982697 0.205497 1.50297 0 2.04545 0H12.9545C13.497 0 14.0173 0.205497 14.4009 0.571283C14.7845 0.937071 15 1.43318 15 1.95049V7.15178C15 7.66908 14.7845 8.1652 14.4009 8.53099C14.0173 8.89677 13.497 9.10227 12.9545 9.10227Z" fill="url(#paint0_linear_763_2917)" fill-opacity="0.2"/>
<path d="M6.45 10.4026L6.81818 10.7862V8.45211C6.81818 8.27967 6.89002 8.1143 7.01788 7.99237C7.14575 7.87044 7.31917 7.80195 7.5 7.80195C7.68083 7.80195 7.85425 7.87044 7.98212 7.99237C8.10998 8.1143 8.18182 8.27967 8.18182 8.45211V10.7862L8.55 10.4286C8.61189 10.3619 8.68748 10.3081 8.77208 10.2705C8.85668 10.2328 8.94848 10.2121 9.04181 10.2097C9.13514 10.2072 9.228 10.2231 9.31463 10.2563C9.40127 10.2895 9.47983 10.3393 9.54545 10.4026C9.60936 10.463 9.66008 10.5349 9.6947 10.6142C9.72931 10.6934 9.74714 10.7784 9.74714 10.8642C9.74714 10.95 9.72931 11.035 9.6947 11.1142C9.66008 11.1935 9.60936 11.2654 9.54545 11.3258L7.98409 12.8147C7.91925 12.8739 7.84279 12.9203 7.75909 12.9512C7.59309 13.0163 7.40691 13.0163 7.24091 12.9512C7.15722 12.9203 7.08075 12.8739 7.01591 12.8147L5.45455 11.3518C5.32254 11.226 5.24838 11.0552 5.24838 10.8772C5.24838 10.6992 5.32254 10.5285 5.45455 10.4026C5.58655 10.2767 5.76559 10.206 5.95227 10.206C6.13896 10.206 6.31799 10.2767 6.45 10.4026ZM7.5 6.50162C7.09545 6.50162 6.69998 6.38723 6.36361 6.1729C6.02723 5.95858 5.76506 5.65396 5.61025 5.29755C5.45543 4.94115 5.41492 4.54897 5.49385 4.17061C5.57277 3.79226 5.76758 3.44471 6.05365 3.17193C6.33971 2.89915 6.70417 2.71339 7.10095 2.63813C7.49773 2.56287 7.909 2.60149 8.28276 2.74912C8.65652 2.89675 8.97598 3.14675 9.20073 3.4675C9.42549 3.78826 9.54545 4.16537 9.54545 4.55114C9.54545 5.06844 9.32995 5.56455 8.94635 5.93034C8.56276 6.29612 8.04249 6.50162 7.5 6.50162ZM7.5 3.90097C7.36515 3.90097 7.23333 3.9391 7.1212 4.01054C7.00908 4.08199 6.92169 4.18353 6.87008 4.30233C6.81848 4.42113 6.80497 4.55186 6.83128 4.67798C6.85759 4.80409 6.92253 4.91994 7.01788 5.01087C7.11324 5.1018 7.23472 5.16372 7.36698 5.1888C7.49924 5.21389 7.63633 5.20102 7.76092 5.15181C7.88551 5.1026 7.99199 5.01926 8.06691 4.91235C8.14183 4.80543 8.18182 4.67972 8.18182 4.55114C8.18182 4.3787 8.10998 4.21333 7.98212 4.0914C7.85425 3.96947 7.68083 3.90097 7.5 3.90097ZM2.72727 4.55114C2.72727 4.42255 2.76726 4.29684 2.84218 4.18992C2.9171 4.083 3.02358 3.99967 3.14817 3.95046C3.27276 3.90125 3.40985 3.88838 3.54211 3.91347C3.67437 3.93855 3.79586 4.00047 3.89121 4.0914C3.98656 4.18233 4.0515 4.29818 4.07781 4.42429C4.10412 4.55041 4.09061 4.68114 4.03901 4.79994C3.9874 4.91874 3.90001 5.02028 3.78789 5.09172C3.67576 5.16317 3.54394 5.2013 3.40909 5.2013C3.22826 5.2013 3.05484 5.1328 2.92697 5.01087C2.79911 4.88894 2.72727 4.72357 2.72727 4.55114ZM12.2727 4.55114C12.2727 4.67972 12.2327 4.80543 12.1578 4.91235C12.0829 5.01926 11.9764 5.1026 11.8518 5.15181C11.7272 5.20102 11.5902 5.21389 11.4579 5.1888C11.3256 5.16372 11.2041 5.1018 11.1088 5.01087C11.0134 4.91994 10.9485 4.80409 10.9222 4.67798C10.8959 4.55186 10.9094 4.42113 10.961 4.30233C11.0126 4.18353 11.1 4.08199 11.2121 4.01054C11.3242 3.9391 11.4561 3.90097 11.5909 3.90097C11.7717 3.90097 11.9452 3.96947 12.073 4.0914C12.2009 4.21333 12.2727 4.3787 12.2727 4.55114ZM12.9545 9.10227H10.2273C10.0464 9.10227 9.87302 9.03377 9.74515 8.91184C9.61729 8.78991 9.54545 8.62454 9.54545 8.45211C9.54545 8.27967 9.61729 8.1143 9.74515 7.99237C9.87302 7.87044 10.0464 7.80195 10.2273 7.80195H12.9545C13.1354 7.80195 13.3088 7.73345 13.4367 7.61152C13.5645 7.48959 13.6364 7.32422 13.6364 7.15178V1.95049C13.6364 1.77805 13.5645 1.61268 13.4367 1.49075C13.3088 1.36882 13.1354 1.30032 12.9545 1.30032H2.04545C1.86463 1.30032 1.6912 1.36882 1.56334 1.49075C1.43547 1.61268 1.36364 1.77805 1.36364 1.95049V7.15178C1.36364 7.32422 1.43547 7.48959 1.56334 7.61152C1.6912 7.73345 1.86463 7.80195 2.04545 7.80195H4.77273C4.95356 7.80195 5.12698 7.87044 5.25485 7.99237C5.38271 8.1143 5.45455 8.27967 5.45455 8.45211C5.45455 8.62454 5.38271 8.78991 5.25485 8.91184C5.12698 9.03377 4.95356 9.10227 4.77273 9.10227H2.04545C1.50297 9.10227 0.982697 8.89677 0.5991 8.53099C0.215503 8.1652 0 7.66908 0 7.15178V1.95049C0 1.43318 0.215503 0.937071 0.5991 0.571283C0.982697 0.205497 1.50297 0 2.04545 0H12.9545C13.497 0 14.0173 0.205497 14.4009 0.571283C14.7845 0.937071 15 1.43318 15 1.95049V7.15178C15 7.66908 14.7845 8.1652 14.4009 8.53099C14.0173 8.89677 13.497 9.10227 12.9545 9.10227Z" fill="#FAFBFC"/>
</g>
<defs>
<linearGradient id="paint0_linear_763_2917" x1="0" y1="6.5" x2="15" y2="6.5" gradientUnits="userSpaceOnUse">
<stop stop-color="#F0F0F0"/>
<stop offset="1" stop-color="#F0F0F0" stop-opacity="0"/>
</linearGradient>
</defs>
</svg>
