<svg width="32" height="32" viewBox="0 0 32 32" fill="none" xmlns="http://www.w3.org/2000/svg">
<g id="Group 1000004229">
<rect id="Rectangle 4198" x="4.33398" y="4.33301" width="10" height="10" rx="1" fill="#3CC1B3"/>
<rect id="Rectangle 4199" x="17.667" y="4.33301" width="10" height="10" rx="1" fill="#3CC1B3"/>
<rect id="Rectangle 4201" x="19" y="19" width="4" height="4" rx="0.5" fill="#3CC1B3"/>
<rect id="Rectangle 4200" x="4.33398" y="17.6665" width="10" height="10" rx="1" fill="#3CC1B3"/>
<path id="Vector 9" d="M9.33333 1H2C1.44771 1 1 1.44772 1 2V7.66667" stroke="#3CC1B3" stroke-width="2" stroke-linecap="round"/>
<path id="Vector 10" d="M24.3333 1H30C30.5523 1 31 1.44772 31 2V7.66667" stroke="#3CC1B3" stroke-width="2" stroke-linecap="round"/>
<path id="Vector 11" d="M22.6667 31H30C30.5523 31 31 30.5523 31 30V24.3333" stroke="#3CC1B3" stroke-width="2" stroke-linecap="round"/>
<path id="Vector 12" d="M9.33333 31H2C1.44771 31 1 30.5523 1 30V24.3333" stroke="#3CC1B3" stroke-width="2" stroke-linecap="round"/>
</g>
</svg>
