<svg width="16" height="14" viewBox="0 0 16 14" fill="none" xmlns="http://www.w3.org/2000/svg">
<g id="Vector">
<path d="M6.98727 2.69198L7.35114 2.29442V4.71349C7.35114 4.8922 7.42214 5.06359 7.54851 5.18996C7.67487 5.31633 7.84627 5.38732 8.02498 5.38732C8.20369 5.38732 8.37508 5.31633 8.50145 5.18996C8.62782 5.06359 8.69881 4.8922 8.69881 4.71349V2.29442L9.06269 2.66503C9.12385 2.73411 9.19855 2.7899 9.28216 2.82893C9.36577 2.86796 9.4565 2.8894 9.54874 2.89193C9.64097 2.89445 9.73274 2.87801 9.81836 2.84362C9.90398 2.80922 9.98163 2.75761 10.0465 2.69198C10.1096 2.62934 10.1598 2.55481 10.194 2.4727C10.2282 2.39059 10.2458 2.30251 10.2458 2.21356C10.2458 2.1246 10.2282 2.03653 10.194 1.95442C10.1598 1.8723 10.1096 1.79778 10.0465 1.73513L8.5034 0.192052C8.43932 0.130706 8.36375 0.0826175 8.28104 0.0505467C8.11698 -0.0168489 7.93297 -0.0168489 7.76892 0.0505467C7.68621 0.0826175 7.61064 0.130706 7.54656 0.192052L6.00347 1.70818C5.87301 1.83864 5.79972 2.01558 5.79972 2.20008C5.79972 2.38458 5.87301 2.56152 6.00347 2.69198C6.13393 2.82244 6.31087 2.89573 6.49537 2.89573C6.67987 2.89573 6.85681 2.82244 6.98727 2.69198ZM8.02498 6.73499C7.62516 6.73499 7.23433 6.85355 6.90189 7.07568C6.56946 7.2978 6.31035 7.61352 6.15735 7.9829C6.00435 8.35228 5.96432 8.75874 6.04232 9.15087C6.12032 9.543 6.31285 9.9032 6.59556 10.1859C6.87827 10.4686 7.23847 10.6612 7.6306 10.7392C8.02274 10.8172 8.42919 10.7771 8.79858 10.6241C9.16796 10.4711 9.48367 10.212 9.7058 9.87958C9.92793 9.54715 10.0465 9.15631 10.0465 8.7565C10.0465 8.22036 9.83351 7.70618 9.4544 7.32708C9.07529 6.94797 8.56112 6.73499 8.02498 6.73499ZM8.02498 9.43033C7.89171 9.43033 7.76143 9.39081 7.65062 9.31677C7.5398 9.24273 7.45344 9.13749 7.40244 9.01436C7.35144 8.89123 7.33809 8.75575 7.36409 8.62504C7.39009 8.49433 7.45427 8.37426 7.54851 8.28002C7.64274 8.18578 7.76281 8.12161 7.89352 8.09561C8.02423 8.06961 8.15972 8.08295 8.28285 8.13395C8.40597 8.18495 8.51121 8.27132 8.58525 8.38213C8.65929 8.49294 8.69881 8.62322 8.69881 8.7565C8.69881 8.93521 8.62782 9.1066 8.50145 9.23297C8.37508 9.35934 8.20369 9.43033 8.02498 9.43033ZM3.30813 8.7565C3.30813 8.88977 3.34765 9.02005 3.42169 9.13086C3.49574 9.24167 3.60098 9.32804 3.7241 9.37904C3.84723 9.43004 3.98272 9.44338 4.11343 9.41738C4.24414 9.39138 4.3642 9.32721 4.45844 9.23297C4.55268 9.13873 4.61686 9.01867 4.64286 8.88795C4.66886 8.75724 4.65551 8.62176 4.60451 8.49863C4.55351 8.3755 4.46714 8.27026 4.35633 8.19622C4.24552 8.12218 4.11524 8.08266 3.98197 8.08266C3.80326 8.08266 3.63186 8.15365 3.5055 8.28002C3.37913 8.40639 3.30813 8.57778 3.30813 8.7565ZM12.7418 8.7565C12.7418 8.62322 12.7023 8.49294 12.6283 8.38213C12.5542 8.27132 12.449 8.18495 12.3259 8.13395C12.2027 8.08295 12.0672 8.06961 11.9365 8.09561C11.8058 8.12161 11.6858 8.18578 11.5915 8.28002C11.4973 8.37426 11.4331 8.49433 11.4071 8.62504C11.3811 8.75575 11.3944 8.89123 11.4454 9.01436C11.4964 9.13749 11.5828 9.24273 11.6936 9.31677C11.8044 9.39081 11.9347 9.43033 12.068 9.43033C12.2467 9.43033 12.4181 9.35934 12.5445 9.23297C12.6708 9.1066 12.7418 8.93521 12.7418 8.7565ZM13.4157 4.03965H10.7203C10.5416 4.03965 10.3702 4.11064 10.2438 4.23701C10.1175 4.36338 10.0465 4.53477 10.0465 4.71349C10.0465 4.8922 10.1175 5.06359 10.2438 5.18996C10.3702 5.31633 10.5416 5.38732 10.7203 5.38732H13.4157C13.5944 5.38732 13.7658 5.45831 13.8921 5.58468C14.0185 5.71105 14.0895 5.88244 14.0895 6.06116V11.4518C14.0895 11.6305 14.0185 11.8019 13.8921 11.9283C13.7658 12.0547 13.5944 12.1257 13.4157 12.1257H2.6343C2.45559 12.1257 2.28419 12.0547 2.15782 11.9283C2.03146 11.8019 1.96046 11.6305 1.96046 11.4518V6.06116C1.96046 5.88244 2.03146 5.71105 2.15782 5.58468C2.28419 5.45831 2.45559 5.38732 2.6343 5.38732H5.32964C5.50835 5.38732 5.67974 5.31633 5.80611 5.18996C5.93248 5.06359 6.00347 4.8922 6.00347 4.71349C6.00347 4.53477 5.93248 4.36338 5.80611 4.23701C5.67974 4.11064 5.50835 4.03965 5.32964 4.03965H2.6343C2.09816 4.03965 1.58398 4.25263 1.20488 4.63174C0.825772 5.01084 0.612793 5.52502 0.612793 6.06116V11.4518C0.612793 11.988 0.825772 12.5022 1.20488 12.8813C1.58398 13.2604 2.09816 13.4733 2.6343 13.4733H13.4157C13.9518 13.4733 14.466 13.2604 14.8451 12.8813C15.2242 12.5022 15.4372 11.988 15.4372 11.4518V6.06116C15.4372 5.52502 15.2242 5.01084 14.8451 4.63174C14.466 4.25263 13.9518 4.03965 13.4157 4.03965Z" fill="url(#paint0_linear_763_2909)" fill-opacity="0.2"/>
<path d="M6.98727 2.69198L7.35114 2.29442V4.71349C7.35114 4.8922 7.42214 5.06359 7.54851 5.18996C7.67487 5.31633 7.84627 5.38732 8.02498 5.38732C8.20369 5.38732 8.37508 5.31633 8.50145 5.18996C8.62782 5.06359 8.69881 4.8922 8.69881 4.71349V2.29442L9.06269 2.66503C9.12385 2.73411 9.19855 2.7899 9.28216 2.82893C9.36577 2.86796 9.4565 2.8894 9.54874 2.89193C9.64097 2.89445 9.73274 2.87801 9.81836 2.84362C9.90398 2.80922 9.98163 2.75761 10.0465 2.69198C10.1096 2.62934 10.1598 2.55481 10.194 2.4727C10.2282 2.39059 10.2458 2.30251 10.2458 2.21356C10.2458 2.1246 10.2282 2.03653 10.194 1.95442C10.1598 1.8723 10.1096 1.79778 10.0465 1.73513L8.5034 0.192052C8.43932 0.130706 8.36375 0.0826175 8.28104 0.0505467C8.11698 -0.0168489 7.93297 -0.0168489 7.76892 0.0505467C7.68621 0.0826175 7.61064 0.130706 7.54656 0.192052L6.00347 1.70818C5.87301 1.83864 5.79972 2.01558 5.79972 2.20008C5.79972 2.38458 5.87301 2.56152 6.00347 2.69198C6.13393 2.82244 6.31087 2.89573 6.49537 2.89573C6.67987 2.89573 6.85681 2.82244 6.98727 2.69198ZM8.02498 6.73499C7.62516 6.73499 7.23433 6.85355 6.90189 7.07568C6.56946 7.2978 6.31035 7.61352 6.15735 7.9829C6.00435 8.35228 5.96432 8.75874 6.04232 9.15087C6.12032 9.543 6.31285 9.9032 6.59556 10.1859C6.87827 10.4686 7.23847 10.6612 7.6306 10.7392C8.02274 10.8172 8.42919 10.7771 8.79858 10.6241C9.16796 10.4711 9.48367 10.212 9.7058 9.87958C9.92793 9.54715 10.0465 9.15631 10.0465 8.7565C10.0465 8.22036 9.83351 7.70618 9.4544 7.32708C9.07529 6.94797 8.56112 6.73499 8.02498 6.73499ZM8.02498 9.43033C7.89171 9.43033 7.76143 9.39081 7.65062 9.31677C7.5398 9.24273 7.45344 9.13749 7.40244 9.01436C7.35144 8.89123 7.33809 8.75575 7.36409 8.62504C7.39009 8.49433 7.45427 8.37426 7.54851 8.28002C7.64274 8.18578 7.76281 8.12161 7.89352 8.09561C8.02423 8.06961 8.15972 8.08295 8.28285 8.13395C8.40597 8.18495 8.51121 8.27132 8.58525 8.38213C8.65929 8.49294 8.69881 8.62322 8.69881 8.7565C8.69881 8.93521 8.62782 9.1066 8.50145 9.23297C8.37508 9.35934 8.20369 9.43033 8.02498 9.43033ZM3.30813 8.7565C3.30813 8.88977 3.34765 9.02005 3.42169 9.13086C3.49574 9.24167 3.60098 9.32804 3.7241 9.37904C3.84723 9.43004 3.98272 9.44338 4.11343 9.41738C4.24414 9.39138 4.3642 9.32721 4.45844 9.23297C4.55268 9.13873 4.61686 9.01867 4.64286 8.88795C4.66886 8.75724 4.65551 8.62176 4.60451 8.49863C4.55351 8.3755 4.46714 8.27026 4.35633 8.19622C4.24552 8.12218 4.11524 8.08266 3.98197 8.08266C3.80326 8.08266 3.63186 8.15365 3.5055 8.28002C3.37913 8.40639 3.30813 8.57778 3.30813 8.7565ZM12.7418 8.7565C12.7418 8.62322 12.7023 8.49294 12.6283 8.38213C12.5542 8.27132 12.449 8.18495 12.3259 8.13395C12.2027 8.08295 12.0672 8.06961 11.9365 8.09561C11.8058 8.12161 11.6858 8.18578 11.5915 8.28002C11.4973 8.37426 11.4331 8.49433 11.4071 8.62504C11.3811 8.75575 11.3944 8.89123 11.4454 9.01436C11.4964 9.13749 11.5828 9.24273 11.6936 9.31677C11.8044 9.39081 11.9347 9.43033 12.068 9.43033C12.2467 9.43033 12.4181 9.35934 12.5445 9.23297C12.6708 9.1066 12.7418 8.93521 12.7418 8.7565ZM13.4157 4.03965H10.7203C10.5416 4.03965 10.3702 4.11064 10.2438 4.23701C10.1175 4.36338 10.0465 4.53477 10.0465 4.71349C10.0465 4.8922 10.1175 5.06359 10.2438 5.18996C10.3702 5.31633 10.5416 5.38732 10.7203 5.38732H13.4157C13.5944 5.38732 13.7658 5.45831 13.8921 5.58468C14.0185 5.71105 14.0895 5.88244 14.0895 6.06116V11.4518C14.0895 11.6305 14.0185 11.8019 13.8921 11.9283C13.7658 12.0547 13.5944 12.1257 13.4157 12.1257H2.6343C2.45559 12.1257 2.28419 12.0547 2.15782 11.9283C2.03146 11.8019 1.96046 11.6305 1.96046 11.4518V6.06116C1.96046 5.88244 2.03146 5.71105 2.15782 5.58468C2.28419 5.45831 2.45559 5.38732 2.6343 5.38732H5.32964C5.50835 5.38732 5.67974 5.31633 5.80611 5.18996C5.93248 5.06359 6.00347 4.8922 6.00347 4.71349C6.00347 4.53477 5.93248 4.36338 5.80611 4.23701C5.67974 4.11064 5.50835 4.03965 5.32964 4.03965H2.6343C2.09816 4.03965 1.58398 4.25263 1.20488 4.63174C0.825772 5.01084 0.612793 5.52502 0.612793 6.06116V11.4518C0.612793 11.988 0.825772 12.5022 1.20488 12.8813C1.58398 13.2604 2.09816 13.4733 2.6343 13.4733H13.4157C13.9518 13.4733 14.466 13.2604 14.8451 12.8813C15.2242 12.5022 15.4372 11.988 15.4372 11.4518V6.06116C15.4372 5.52502 15.2242 5.01084 14.8451 4.63174C14.466 4.25263 13.9518 4.03965 13.4157 4.03965Z" fill="#FAFBFC"/>
</g>
<defs>
<linearGradient id="paint0_linear_763_2909" x1="0.612793" y1="6.73667" x2="15.4372" y2="6.73667" gradientUnits="userSpaceOnUse">
<stop stop-color="#F0F0F0"/>
<stop offset="1" stop-color="#F0F0F0" stop-opacity="0"/>
</linearGradient>
</defs>
</svg>
