<svg width="14" height="14" viewBox="0 0 14 14" fill="none" xmlns="http://www.w3.org/2000/svg">
<path fill-rule="evenodd" clip-rule="evenodd" d="M8.62825 9.55042C6.55766 11.2088 3.52677 11.0783 1.60734 9.15885C-0.452123 7.09938 -0.452123 3.76032 1.60734 1.70085C3.66681 -0.358617 7.00587 -0.358617 9.06534 1.70085C10.9848 3.62027 11.1153 6.65117 9.45691 8.72175L13.4849 12.7497C13.7137 12.9785 13.7137 13.3495 13.4849 13.5784C13.256 13.8072 12.885 13.8072 12.6562 13.5784L8.62825 9.55042ZM2.43601 8.33018C0.834202 6.72837 0.834202 4.13133 2.43601 2.52952C4.03782 0.927709 6.63486 0.927709 8.23667 2.52952C9.8373 4.13015 9.83848 6.72456 8.2402 8.32665C8.23901 8.32782 8.23783 8.32899 8.23666 8.33016C8.23548 8.33134 8.23431 8.33252 8.23315 8.3337C6.63106 9.93199 4.03664 9.93081 2.43601 8.33018Z" fill="#A4B4CB"/>
</svg>
