<svg width="23" height="23" viewBox="0 0 23 23" fill="none" xmlns="http://www.w3.org/2000/svg">
<path d="M13.2998 8.38538H3.83331C3.43636 8.38538 3.11456 8.06358 3.11456 7.66663C3.11456 7.26967 3.43636 6.94788 3.83331 6.94788H13.2998C13.5958 6.11039 14.3945 5.51038 15.3333 5.51038C16.2722 5.51038 17.0709 6.11039 17.3669 6.94788H19.1666C19.5636 6.94788 19.8854 7.26967 19.8854 7.66663C19.8854 8.06358 19.5636 8.38538 19.1666 8.38538H17.3669C17.0709 9.22286 16.2722 9.82288 15.3333 9.82288C14.3945 9.82288 13.5958 9.22286 13.2998 8.38538Z" fill="black"/>
<path d="M19.1666 16.052C19.5636 16.052 19.8854 15.7302 19.8854 15.3333C19.8854 14.9363 19.5636 14.6145 19.1666 14.6145H9.7002C9.40419 13.7771 8.60549 13.177 7.66665 13.177C6.7278 13.177 5.9291 13.7771 5.63309 14.6145H3.83331C3.43636 14.6145 3.11456 14.9363 3.11456 15.3333C3.11456 15.7302 3.43636 16.052 3.83331 16.052H5.63309C5.9291 16.8895 6.7278 17.4895 7.66665 17.4895C8.60549 17.4895 9.40419 16.8895 9.7002 16.052H19.1666Z" fill="black"/>
</svg>
