<svg width="19" height="18" viewBox="0 0 19 18" fill="none" xmlns="http://www.w3.org/2000/svg">
<g id="icon" clip-path="url(#clip0_763_2068)">
<path id="Vector" d="M17.7761 6.69883L16.1058 6.14205L16.8923 4.56894C16.9721 4.40429 16.9987 4.21894 16.9686 4.03848C16.9386 3.85802 16.8532 3.69135 16.7244 3.56145L14.842 1.67902C14.7114 1.5483 14.5431 1.46179 14.3608 1.43167C14.1785 1.40155 13.9913 1.42933 13.8256 1.5111L12.2525 2.29766L11.6958 0.627333C11.637 0.453224 11.5253 0.301775 11.3764 0.194064C11.2275 0.0863519 11.0488 0.027735 10.865 0.0263701H8.2137C8.02843 0.0258919 7.84768 0.0836551 7.69703 0.191495C7.54637 0.299336 7.43341 0.451798 7.37412 0.627333L6.81735 2.29766L5.24424 1.5111C5.07958 1.43137 4.89423 1.4047 4.71377 1.43478C4.53332 1.46485 4.36664 1.55019 4.23674 1.67902L2.35431 3.56145C2.22359 3.69204 2.13709 3.86032 2.10697 4.04262C2.07685 4.22493 2.10463 4.41208 2.1864 4.57778L2.97295 6.15089L1.30263 6.70767C1.12852 6.76647 0.977068 6.87808 0.869357 7.02698C0.761645 7.17587 0.703028 7.35464 0.701663 7.53841V10.1897C0.701185 10.375 0.758948 10.5557 0.866788 10.7064C0.974629 10.8571 1.12709 10.97 1.30263 11.0293L2.97295 11.5861L2.1864 13.1592C2.10666 13.3238 2.07999 13.5092 2.11007 13.6896C2.14015 13.8701 2.22548 14.0368 2.35431 14.1667L4.23674 16.0491C4.36733 16.1798 4.53561 16.2663 4.71791 16.2965C4.90022 16.3266 5.08738 16.2988 5.25308 16.217L6.82618 15.4305L7.38296 17.1008C7.44225 17.2763 7.5552 17.4288 7.70586 17.5366C7.85652 17.6445 8.03726 17.7022 8.22254 17.7018H10.8738C11.0591 17.7022 11.2399 17.6445 11.3905 17.5366C11.5412 17.4288 11.6541 17.2763 11.7134 17.1008L12.2702 15.4305L13.8433 16.217C14.0069 16.2947 14.1905 16.3203 14.3691 16.2903C14.5477 16.2603 14.7128 16.1761 14.842 16.0491L16.7244 14.1667C16.8551 14.0361 16.9416 13.8678 16.9717 13.6855C17.0019 13.5032 16.9741 13.316 16.8923 13.1503L16.1058 11.5772L17.7761 11.0205C17.9502 10.9617 18.1016 10.85 18.2094 10.7011C18.3171 10.5523 18.3757 10.3735 18.3771 10.1897V7.53841C18.3775 7.35313 18.3198 7.17239 18.2119 7.02173C18.1041 6.87107 17.9516 6.75812 17.7761 6.69883ZM16.6095 9.5534L15.549 9.90691C15.3051 9.98602 15.0814 10.1172 14.8933 10.2914C14.7052 10.4657 14.5572 10.6787 14.4597 10.9158C14.3622 11.1529 14.3174 11.4084 14.3285 11.6645C14.3395 11.9207 14.4062 12.1713 14.5238 12.3991L15.0276 13.4066L14.0554 14.3788L13.0744 13.8485C12.8478 13.7356 12.5995 13.6727 12.3465 13.6641C12.0934 13.6554 11.8415 13.7013 11.6077 13.7985C11.3739 13.8957 11.1637 14.042 10.9913 14.2275C10.819 14.413 10.6885 14.6334 10.6087 14.8737L10.2552 15.9342H8.85002L8.49651 14.8737C8.4174 14.6298 8.28619 14.4061 8.11198 14.218C7.93777 14.0299 7.72472 13.8819 7.48762 13.7844C7.25051 13.6869 6.99503 13.6421 6.73889 13.6532C6.48275 13.6642 6.23208 13.7309 6.00428 13.8485L4.99678 14.3523L4.02464 13.3801L4.5549 12.3991C4.67252 12.1713 4.73918 11.9207 4.75025 11.6645C4.76132 11.4084 4.71654 11.1529 4.619 10.9158C4.52147 10.6787 4.37353 10.4657 4.18543 10.2914C3.99734 10.1172 3.7736 9.98602 3.52972 9.90691L2.4692 9.5534V8.17472L3.52972 7.82122C3.7736 7.74211 3.99734 7.6109 4.18543 7.43669C4.37353 7.26247 4.52147 7.04943 4.619 6.81232C4.71654 6.57522 4.76132 6.31974 4.75025 6.0636C4.73918 5.80746 4.67252 5.55679 4.5549 5.32899L4.05115 4.348L5.02329 3.37586L6.00428 3.8796C6.23208 3.99723 6.48275 4.06389 6.73889 4.07496C6.99503 4.08603 7.25051 4.04124 7.48762 3.94371C7.72472 3.84618 7.93777 3.69824 8.11198 3.51014C8.28619 3.32205 8.4174 3.0983 8.49651 2.85443L8.85002 1.79391H10.2287L10.5822 2.85443C10.6613 3.0983 10.7925 3.32205 10.9667 3.51014C11.1409 3.69824 11.354 3.84618 11.5911 3.94371C11.8282 4.04124 12.0837 4.08603 12.3398 4.07496C12.596 4.06389 12.8466 3.99723 13.0744 3.8796L14.0819 3.37586L15.0541 4.348L14.5238 5.32899C14.4109 5.55562 14.348 5.80388 14.3394 6.05694C14.3307 6.31 14.3766 6.56196 14.4738 6.79576C14.571 7.02957 14.7173 7.23976 14.9028 7.4121C15.0883 7.58445 15.3087 7.71492 15.549 7.7947L16.6095 8.14821V9.5534ZM9.53936 5.32899C8.84018 5.32899 8.15671 5.53631 7.57537 5.92475C6.99403 6.31319 6.54093 6.8653 6.27337 7.51125C6.00581 8.1572 5.9358 8.86798 6.0722 9.55372C6.20861 10.2395 6.54529 10.8694 7.03968 11.3637C7.53407 11.8581 8.16396 12.1948 8.8497 12.3312C9.53543 12.4676 10.2462 12.3976 10.8922 12.13C11.5381 11.8625 12.0902 11.4094 12.4787 10.828C12.8671 10.2467 13.0744 9.56324 13.0744 8.86406C13.0744 7.9265 12.702 7.02734 12.039 6.36439C11.3761 5.70143 10.4769 5.32899 9.53936 5.32899ZM9.53936 10.6316C9.18977 10.6316 8.84803 10.5279 8.55736 10.3337C8.26669 10.1395 8.04014 9.86345 7.90636 9.54047C7.77258 9.21749 7.73758 8.8621 7.80578 8.51923C7.87398 8.17636 8.04232 7.86142 8.28952 7.61422C8.53671 7.36703 8.85166 7.19869 9.19453 7.13049C9.5374 7.06229 9.89279 7.09729 10.2158 7.23107C10.5387 7.36485 10.8148 7.5914 11.009 7.88207C11.2032 8.17274 11.3069 8.51448 11.3069 8.86406C11.3069 9.33284 11.1207 9.78242 10.7892 10.1139C10.4577 10.4454 10.0081 10.6316 9.53936 10.6316Z" fill="#A4B4CB"/>
</g>
<defs>
<clipPath id="clip0_763_2068">
<rect width="17.6754" height="17.6754" fill="white" transform="translate(0.70166 0.0263672)"/>
</clipPath>
</defs>
</svg>
