<svg width="17" height="17" viewBox="0 0 17 17" fill="none" xmlns="http://www.w3.org/2000/svg">
<g id="Group 33546">
<rect id="Rectangle 4198" x="2.66666" y="2.66669" width="5" height="5" rx="1" fill="black"/>
<rect id="Rectangle 4199" x="9.33334" y="2.66669" width="5" height="5" rx="1" fill="black"/>
<rect id="Rectangle 4201" x="10" y="10" width="2" height="2" rx="0.5" fill="black"/>
<rect id="Rectangle 4200" x="2.66666" y="9.33331" width="5" height="5" rx="1" fill="black"/>
<path id="Vector 9" d="M5.16667 1H2C1.44772 1 1 1.44772 1 2V4.33333" stroke="black" stroke-linecap="round"/>
<path id="Vector 10" d="M12.6667 1H15C15.5523 1 16 1.44772 16 2V4.33333" stroke="black" stroke-linecap="round"/>
<path id="Vector 11" d="M11.8333 16H15C15.5523 16 16 15.5523 16 15V12.6667" stroke="black" stroke-linecap="round"/>
<path id="Vector 12" d="M5.16667 16H2C1.44772 16 1 15.5523 1 15V12.6667" stroke="black" stroke-linecap="round"/>
</g>
</svg>
