<svg width="27" height="27" viewBox="0 0 27 27" fill="none" xmlns="http://www.w3.org/2000/svg">
<circle cx="13.5" cy="13.5" r="13.5" fill="#54DFA5"/>
<path d="M14.5 17.4393L17.2197 14.7197C17.5126 14.4268 17.9874 14.4268 18.2803 14.7197C18.5732 15.0126 18.5732 15.4874 18.2803 15.7803L14.2803 19.7803C13.9874 20.0732 13.5126 20.0732 13.2197 19.7803L9.21967 15.7803C8.92678 15.4874 8.92678 15.0126 9.21967 14.7197C9.51256 14.4268 9.98744 14.4268 10.2803 14.7197L13 17.4393L13 7.75C13 7.33579 13.3358 7 13.75 7C14.1642 7 14.5 7.33579 14.5 7.75L14.5 17.4393Z" fill="white" stroke="white" stroke-width="0.5" stroke-linecap="round"/>
</svg>
