<svg width="69" height="69" viewBox="0 0 69 69" fill="none" xmlns="http://www.w3.org/2000/svg">
<path d="M32.5 37.375C32.5 38.4796 33.3954 39.375 34.5 39.375C35.6046 39.375 36.5 38.4796 36.5 37.375H32.5ZM36.5 25.875C36.5 24.7704 35.6046 23.875 34.5 23.875C33.3954 23.875 32.5 24.7704 32.5 25.875H36.5ZM58.9608 18.6642C59.7418 19.4453 61.0082 19.4453 61.7892 18.6642C62.5703 17.8832 62.5703 16.6168 61.7892 15.8358L58.9608 18.6642ZM56.0392 10.0858C55.2582 9.30474 53.9918 9.30474 53.2108 10.0858C52.4297 10.8668 52.4297 12.1332 53.2108 12.9142L56.0392 10.0858ZM28.75 3.75C27.6454 3.75 26.75 4.64543 26.75 5.75C26.75 6.85457 27.6454 7.75 28.75 7.75V3.75ZM40.25 7.75C41.3546 7.75 42.25 6.85457 42.25 5.75C42.25 4.64543 41.3546 3.75 40.25 3.75V7.75ZM34.5 58.375C22.902 58.375 13.5 48.973 13.5 37.375H9.5C9.5 51.1821 20.6929 62.375 34.5 62.375V58.375ZM13.5 37.375C13.5 25.777 22.902 16.375 34.5 16.375V12.375C20.6929 12.375 9.5 23.5679 9.5 37.375H13.5ZM34.5 16.375C46.098 16.375 55.5 25.777 55.5 37.375H59.5C59.5 23.5679 48.3071 12.375 34.5 12.375V16.375ZM55.5 37.375C55.5 48.973 46.098 58.375 34.5 58.375V62.375C48.3071 62.375 59.5 51.1821 59.5 37.375H55.5ZM36.5 37.375V25.875H32.5V37.375H36.5ZM61.7892 15.8358L56.0392 10.0858L53.2108 12.9142L58.9608 18.6642L61.7892 15.8358ZM28.75 7.75H40.25V3.75H28.75V7.75Z" fill="white"/>
</svg>
