<svg width="21" height="21" viewBox="0 0 21 21" fill="none" xmlns="http://www.w3.org/2000/svg">
<rect width="21" height="21" rx="10.5" fill="#D9FFF4"/>
<path d="M10.4926 4.82595C12.0443 4.82595 13.5959 4.82595 15.1524 4.82595C15.2908 4.82595 15.329 4.85937 15.329 5.00021C15.329 5.68056 15.329 6.35852 15.329 7.03648C15.329 7.16778 15.2908 7.19642 15.1667 7.19403C14.0901 7.19403 13.0182 7.19403 11.9345 7.19403C11.7936 7.19403 11.765 7.23223 11.7673 7.36353C11.7769 7.77253 11.7769 8.18074 11.7673 8.58816C11.7673 8.71706 11.7936 8.75764 11.9321 8.7648C13.0657 8.80218 14.1926 8.95415 15.2956 9.21838C15.6581 9.30256 16.0091 9.42999 16.3412 9.59793C16.4749 9.66401 16.5961 9.75287 16.6993 9.86053C16.7386 9.89568 16.77 9.93872 16.7915 9.98685C16.813 10.035 16.8241 10.0871 16.8241 10.1398C16.8241 10.1925 16.813 10.2447 16.7915 10.2928C16.77 10.3409 16.7386 10.384 16.6993 10.4191C16.4973 10.6157 16.252 10.762 15.9831 10.8464C15.3286 11.0789 14.6506 11.239 13.9612 11.3239C13.2796 11.4281 12.5925 11.4919 11.9034 11.5148C11.7745 11.5148 11.7745 11.5817 11.7745 11.6772C11.7745 13.2241 11.7745 14.7805 11.7745 16.3179C11.7745 16.4754 11.7339 16.5088 11.5811 16.5088C10.8363 16.5088 10.0892 16.5088 9.34436 16.5088C9.21784 16.5088 9.19396 16.473 9.19396 16.356C9.19396 14.8235 9.19396 13.2933 9.19396 11.7607C9.19396 11.522 9.19396 11.522 8.95524 11.522C7.84037 11.4728 6.733 11.3145 5.64899 11.0493C5.23954 10.9607 4.84701 10.8067 4.48643 10.5934C4.009 10.295 4.009 9.96317 4.48643 9.66954C4.96768 9.39793 5.49288 9.2129 6.0381 9.12288C7.03253 8.91498 8.04269 8.79121 9.05789 8.75287C9.17487 8.75287 9.20113 8.71468 9.19874 8.60487C9.19874 8.1895 9.19874 7.77651 9.19874 7.36353C9.19874 7.22985 9.17248 7.18449 9.02686 7.18688C7.95263 7.18688 6.87839 7.18688 5.80655 7.18688C5.66093 7.18688 5.63467 7.14152 5.63467 7.00784C5.63467 6.33465 5.63467 5.66146 5.63467 4.98589C5.63467 4.83788 5.68242 4.81641 5.81371 4.81641C7.37493 4.82834 8.93376 4.82595 10.4926 4.82595ZM10.5761 11.1186C11.3907 11.1272 12.2051 11.0921 13.0158 11.0135C13.7411 10.9544 14.4599 10.833 15.1643 10.6507C15.448 10.5859 15.7196 10.4763 15.9688 10.326C16.2863 10.1183 16.2815 9.89872 15.9688 9.69103C15.814 9.58787 15.6452 9.50748 15.4675 9.45231C14.2901 9.12812 13.0767 8.95249 11.8557 8.92952C11.7435 8.92952 11.7626 8.99159 11.7626 9.05605C11.7626 9.53349 11.7626 10.0252 11.7626 10.5098C11.7626 10.6196 11.7363 10.665 11.6217 10.6698C10.8507 10.6984 10.0796 10.7032 9.30855 10.6698C9.20829 10.6698 9.18441 10.6292 9.18441 10.5337C9.18441 10.0419 9.18441 9.55258 9.18441 9.0632C9.18441 8.95339 9.15338 8.92952 9.04596 8.93191C8.516 8.95578 7.98605 9.00114 7.45848 9.0632C6.78802 9.13014 6.12589 9.26368 5.48189 9.46186C5.29148 9.51498 5.10976 9.59539 4.94239 9.70058C4.65354 9.89871 4.65593 10.1136 4.94239 10.3117C5.05406 10.3848 5.17332 10.4457 5.29808 10.4931C5.71951 10.6482 6.15533 10.761 6.59909 10.8297C7.91364 11.0433 9.24453 11.14 10.5761 11.1186Z" fill="#26A07B"/>
</svg>
