<svg width="30" height="31" viewBox="0 0 30 31" fill="none" xmlns="http://www.w3.org/2000/svg">
<g id="Group 1000004156">
<path id="Union" fill-rule="evenodd" clip-rule="evenodd" d="M13.9441 1.62733L13.9441 11.7104C13.9441 12.5389 14.6157 13.2104 15.4441 13.2104C16.2725 13.2104 16.9441 12.5389 16.9441 11.7104L16.9441 1.62733C16.9441 0.798902 16.2725 0.127329 15.4441 0.127329C14.6157 0.127329 13.9441 0.798902 13.9441 1.62733Z" fill="#DB3275"/>
<path id="Ellipse 8" d="M5.94514 6.05634C4.91922 7.06207 4.0574 8.23456 3.40354 9.52995C2.50571 11.3087 2 13.3191 2 15.4477C2 22.7105 7.88767 28.5981 15.1505 28.5981C22.4133 28.5981 28.301 22.7105 28.301 15.4477C28.301 13.3191 27.7952 11.3087 26.8974 9.52995C26.3372 8.42011 25.6244 7.40048 24.7864 6.49865" stroke="#DB3275" stroke-width="3" stroke-linecap="round"/>
</g>
</svg>
