<svg width="20" height="22" viewBox="0 0 20 22" fill="none" xmlns="http://www.w3.org/2000/svg">
<g id="Group 33552">
<path id="Vector 9" d="M18 5L18.7071 5.70711L19.4142 5L18.7071 4.29289L18 5ZM2 10C2 10.5523 2.44771 11 3 11C3.55229 11 4 10.5523 4 10L2 10ZM14.7071 9.70711L18.7071 5.70711L17.2929 4.29289L13.2929 8.29289L14.7071 9.70711ZM18.7071 4.29289L14.7071 0.292893L13.2929 1.70711L17.2929 5.70711L18.7071 4.29289ZM18 4L7 4L7 6L18 6L18 4ZM2 9V10L4 10L4 9L2 9ZM7 4C4.23858 4 2 6.23858 2 9L4 9C4 7.34315 5.34315 6 7 6L7 4Z" fill="white"/>
<path id="Vector 10" d="M2 17L1.29289 16.2929L0.585786 17L1.29289 17.7071L2 17ZM18 12C18 11.4477 17.5523 11 17 11C16.4477 11 16 11.4477 16 12L18 12ZM5.29289 12.2929L1.29289 16.2929L2.70711 17.7071L6.70711 13.7071L5.29289 12.2929ZM1.29289 17.7071L5.29289 21.7071L6.70711 20.2929L2.70711 16.2929L1.29289 17.7071ZM2 18L13 18L13 16L2 16L2 18ZM18 13V12L16 12V13L18 13ZM13 18C15.7614 18 18 15.7614 18 13L16 13C16 14.6569 14.6569 16 13 16L13 18Z" fill="white"/>
</g>
</svg>
