<svg width="15" height="9" viewBox="0 0 15 9" fill="none" xmlns="http://www.w3.org/2000/svg">
<path id="Vector" d="M7.24746 0C3.11641 0 0 1.61172 0 3.74819C0 5.5848 2.31194 7.0316 5.58779 7.40642L5.2834 7.71377C5.21547 7.78346 5.16155 7.86637 5.12476 7.95772C5.08797 8.04907 5.06902 8.14705 5.06902 8.24602C5.06902 8.34498 5.08797 8.44296 5.12476 8.53431C5.16155 8.62566 5.21547 8.70857 5.2834 8.77826C5.35078 8.84852 5.43093 8.90429 5.51925 8.94235C5.60757 8.98041 5.7023 9 5.79797 9C5.89365 9 5.98837 8.98041 6.07669 8.94235C6.16501 8.90429 6.24517 8.84852 6.31254 8.77826L7.76203 7.27898C7.82801 7.20769 7.87974 7.12362 7.91423 7.0316C7.98672 6.84909 7.98672 6.64439 7.91423 6.46188C7.87974 6.36986 7.82801 6.28579 7.76203 6.2145L6.31254 4.71522C6.17607 4.57406 5.99097 4.49476 5.79797 4.49476C5.60497 4.49476 5.41987 4.57406 5.2834 4.71522C5.14693 4.85638 5.07026 5.04783 5.07026 5.24746C5.07026 5.44709 5.14693 5.63855 5.2834 5.77971L5.37037 5.86217C2.89899 5.50234 1.44949 4.49783 1.44949 3.74819C1.44949 2.83363 3.7107 1.49928 7.24746 1.49928C10.7842 1.49928 13.0454 2.83363 13.0454 3.74819C13.0454 4.37039 11.9946 5.24746 9.99425 5.69725C9.89957 5.71601 9.80946 5.75412 9.7292 5.80935C9.64894 5.86457 9.58013 5.93581 9.52681 6.01888C9.4735 6.10196 9.43674 6.1952 9.41869 6.29314C9.40064 6.39109 9.40166 6.49178 9.4217 6.58932C9.44149 6.6859 9.47953 6.77749 9.53364 6.85882C9.58774 6.94016 9.65685 7.00963 9.73698 7.06327C9.81712 7.1169 9.90671 7.15364 10.0006 7.17136C10.0945 7.18908 10.1909 7.18744 10.2842 7.16654C12.9295 6.56683 14.4949 5.29244 14.4949 3.74819C14.4949 1.61172 11.3785 0 7.24746 0Z" fill="#A4B4CB"/>
</svg>
