<svg width="27" height="27" viewBox="0 0 27 27" fill="none" xmlns="http://www.w3.org/2000/svg">
<circle cx="13.5" cy="13.5" r="13.5" fill="#54DFA5"/>
<path d="M13.1053 5.42259L11.6739 6.93352C11.5197 7.09624 11.2698 7.09624 11.1156 6.93352C10.9615 6.7708 10.9615 6.50698 11.1156 6.34426L13.2209 4.12204C13.375 3.95932 13.625 3.95932 13.7791 4.12204L15.8844 6.34426C16.0385 6.50698 16.0385 6.7708 15.8844 6.93352C15.7302 7.09624 15.4803 7.09624 15.3261 6.93352L13.8947 5.42259L13.8947 8.58333C13.8947 8.81345 13.718 9 13.5 9C13.282 9 13.1053 8.81345 13.1053 8.58333L13.1053 5.42259Z" fill="white" stroke="white" stroke-width="0.5" stroke-linecap="round"/>
<path fill-rule="evenodd" clip-rule="evenodd" d="M19.1314 15.3571L19.133 17.6213C19.117 17.8371 19.0965 18.0525 19.0713 18.2676C19.0293 18.6272 18.7369 18.9173 18.3698 18.9583C17.2199 19.0868 16.0301 19.0868 14.8802 18.9583C14.5131 18.9173 14.2207 18.6272 14.1787 18.2676C14.0413 17.0932 14.0413 15.9068 14.1787 14.7324C14.2207 14.3728 14.5131 14.0827 14.8802 14.0417C16.0301 13.9132 17.2199 13.9132 18.3698 14.0417C18.7369 14.0827 19.0293 14.3728 19.0713 14.7324C19.0956 14.9403 19.1157 15.1486 19.1314 15.3571ZM16.625 15.5625C16.1072 15.5625 15.6875 15.9822 15.6875 16.5C15.6875 17.0178 16.1072 17.4375 16.625 17.4375C17.1428 17.4375 17.5625 17.0178 17.5625 16.5C17.5625 15.9822 17.1428 15.5625 16.625 15.5625Z" fill="white"/>
<path d="M18.7523 12.7748C18.8494 12.9431 18.6671 13.1316 18.4739 13.11C17.2549 12.9737 15.9951 12.9737 14.7761 13.11C13.9827 13.1987 13.3411 13.8234 13.2475 14.6235C13.1017 15.8703 13.1017 17.1298 13.2475 18.3765C13.3411 19.1767 13.9827 19.8014 14.7761 19.89C15.9951 20.0263 17.2549 20.0263 18.4739 19.89C18.6683 19.8683 18.8522 20.0581 18.7541 20.2273C18.2675 21.0666 17.3999 21.6523 16.3918 21.7584L15.9844 21.8013C13.9151 22.019 11.8279 22.0047 9.76182 21.7585L9.49186 21.7263C8.37803 21.5936 7.4955 20.7233 7.34714 19.6115C7.07158 17.5463 7.07158 15.4537 7.34714 13.3885C7.4955 12.2767 8.37803 11.4065 9.49186 11.2737L9.76182 11.2416C11.8279 10.9954 13.9151 10.981 15.9844 11.1988L16.3918 11.2416C17.4008 11.3478 18.267 11.9344 18.7523 12.7748Z" fill="white"/>
</svg>
