<svg width="22" height="19" viewBox="0 0 22 19" fill="none" xmlns="http://www.w3.org/2000/svg">
<path d="M5 11.5055C5.23945 11.0932 5.48284 10.6849 5.71176 10.2673C5.81175 10.0838 5.92753 10.0146 6.13935 10.016C8.67197 10.0239 11.2046 10.0226 13.7359 10.0226C13.8609 10.0226 13.9845 10.0226 14.1727 10.0226L16.1277 10C16.4172 10.5094 16.7079 11.0187 17 11.5294C15.2647 11.5294 13.5991 11.5294 11.9032 11.5294C11.9032 14.0363 11.9032 16.506 11.9032 18.9996C11.3217 18.9996 10.7717 19.0022 10.2218 18.9943C10.1797 18.9929 10.1113 18.9131 10.1034 18.8626C10.085 18.7535 10.0968 18.6405 10.0968 18.5288C10.0968 16.3504 10.0968 14.1706 10.0968 11.9922C10.0968 11.8499 10.0968 11.7076 10.0968 11.5587C10.0468 11.548 10.0179 11.5361 9.98893 11.5361C9.02587 11.5347 8.06414 11.5321 7.10108 11.54" fill="white"/>
<path d="M7.05587 11.0355C6.97272 11.0355 6.85457 11.1009 6.81372 11.1691C5.64966 13.1204 4.49143 15.076 3.33465 17.0316C3.31715 17.06 3.30986 17.0942 3.28068 17.1666C3.38571 17.1737 3.47469 17.1837 3.56367 17.1837C5.26018 17.1837 6.95814 17.188 8.65464 17.1766C8.90846 17.1752 9.01203 17.2263 8.9989 17.4992C8.9741 17.9909 8.9916 18.4855 8.9916 19C5.991 19 3.01519 19 0 19C0.125451 18.7769 0.237772 18.5694 0.357388 18.3676C1.76944 15.9856 3.18149 13.6037 4.595 11.2217C4.63876 11.1478 4.68252 11.0739 4.72774 11" fill="white"/>
<path d="M13.9551 10C12.8391 7.92631 11.752 5.9042 10.6415 3.83935C10.5369 4.01769 10.4489 4.15917 10.3704 4.30656C9.63974 5.65954 8.90904 7.01253 8.1866 8.37141C8.09853 8.53648 8.00495 8.61017 7.82056 8.60575C7.23022 8.59248 6.63988 8.60133 6 8.60133C7.5536 5.71702 9.0838 2.87546 10.6333 0C12.4249 3.3294 14.2028 6.63375 16 9.97495" fill="white"/>
<path d="M13.0004 18.9987C13.0004 18.4821 12.9989 17.9848 13.0018 17.4861C13.0033 17.3131 13.1565 17.3515 13.2703 17.3515C14.6173 17.3503 15.9642 17.3503 17.3112 17.3503C17.7651 17.3503 18.2189 17.3503 18.7384 17.3503C18.2481 16.6017 17.784 15.8877 17.317 15.1763C16.853 14.4674 16.386 13.7598 15.903 13.024C16.0168 13.0138 16.0737 13.0035 16.1321 13.0022C16.71 13.001 17.2864 12.9958 17.8643 13.0074C17.9664 13.0099 18.1138 13.0625 18.1591 13.133C19.4112 15.025 20.653 16.9221 21.8964 18.8193C21.93 18.8705 21.9577 18.9257 22 19C18.9982 18.9987 16.0226 18.9987 13.0004 18.9987Z" fill="white"/>
</svg>
