<svg width="18" height="18" viewBox="0 0 18 18" fill="none" xmlns="http://www.w3.org/2000/svg">
<g id="icon" clip-path="url(#clip0_763_2091)">
<path id="Vector" d="M8.8377 4.41885C8.60331 4.41885 8.37852 4.51196 8.21278 4.6777C8.04704 4.84344 7.95393 5.06823 7.95393 5.30262V8.83769C7.95393 9.07208 8.04704 9.29687 8.21278 9.46261C8.37852 9.62835 8.60331 9.72146 8.8377 9.72146C9.07209 9.72146 9.29688 9.62835 9.46262 9.46261C9.62836 9.29687 9.72147 9.07208 9.72147 8.83769V5.30262C9.72147 5.06823 9.62836 4.84344 9.46262 4.6777C9.29688 4.51196 9.07209 4.41885 8.8377 4.41885ZM9.65077 12.0369C9.63142 11.9806 9.60467 11.9271 9.57123 11.8779L9.46517 11.7453C9.34089 11.6227 9.18308 11.5396 9.01164 11.5066C8.84019 11.4735 8.66281 11.492 8.50187 11.5597C8.39477 11.6045 8.29612 11.6672 8.21022 11.7453C8.12831 11.8279 8.06351 11.9258 8.01953 12.0335C7.97555 12.1412 7.95326 12.2565 7.95393 12.3728C7.95532 12.4883 7.97934 12.6024 8.02463 12.7086C8.06432 12.8183 8.12765 12.9179 8.21012 13.0003C8.29259 13.0828 8.39219 13.1461 8.50187 13.1858C8.60765 13.2326 8.72204 13.2567 8.8377 13.2567C8.95336 13.2567 9.06774 13.2326 9.17353 13.1858C9.2832 13.1461 9.3828 13.0828 9.46527 13.0003C9.54775 12.9179 9.61107 12.8183 9.65077 12.7086C9.69605 12.6024 9.72007 12.4883 9.72147 12.3728C9.72581 12.3139 9.72581 12.2549 9.72147 12.196C9.70625 12.1397 9.6824 12.086 9.65077 12.0369ZM8.8377 0C7.08977 0 5.38109 0.518322 3.92774 1.48942C2.47439 2.46052 1.34164 3.84078 0.672733 5.45565C0.00382923 7.07053 -0.171187 8.8475 0.169818 10.5618C0.510822 12.2762 1.35253 13.8509 2.5885 15.0869C3.82448 16.3229 5.3992 17.1646 7.11355 17.5056C8.82789 17.8466 10.6049 17.6716 12.2197 17.0027C13.8346 16.3338 15.2149 15.201 16.186 13.7477C17.1571 12.2943 17.6754 10.5856 17.6754 8.83769C17.6754 7.67711 17.4468 6.52789 17.0027 5.45565C16.5585 4.38342 15.9075 3.40916 15.0869 2.5885C14.2662 1.76784 13.292 1.11687 12.2197 0.672729C11.1475 0.228594 9.99828 0 8.8377 0ZM8.8377 15.9078C7.43935 15.9078 6.07241 15.4932 4.90973 14.7163C3.74705 13.9394 2.84085 12.8352 2.30573 11.5433C1.7706 10.2514 1.63059 8.82985 1.90339 7.45837C2.1762 6.0869 2.84956 4.82712 3.83834 3.83834C4.82712 2.84956 6.0869 2.17619 7.45838 1.90339C8.82985 1.63059 10.2514 1.7706 11.5433 2.30572C12.8352 2.84085 13.9394 3.74704 14.7163 4.90973C15.4932 6.07241 15.9079 7.43935 15.9079 8.83769C15.9079 10.7128 15.163 12.5111 13.8371 13.837C12.5111 15.163 10.7128 15.9078 8.8377 15.9078Z" fill="#A4B4CB"/>
</g>
<defs>
<clipPath id="clip0_763_2091">
<rect width="17.6754" height="17.6754" fill="white"/>
</clipPath>
</defs>
</svg>
