<svg width="34" height="24" viewBox="0 0 34 24" fill="none" xmlns="http://www.w3.org/2000/svg">
<path d="M11.9998 4.28125C10.2739 4.28125 8.87484 5.75032 8.87484 7.5625C8.87484 9.37468 10.2739 10.8438 11.9998 10.8438C13.7257 10.8438 15.1248 9.37468 15.1248 7.5625C15.1248 5.75032 13.7257 4.28125 11.9998 4.28125Z" fill="black"/>
<path d="M8.6665 12.5938C6.94061 12.5938 5.5415 14.0628 5.5415 15.875V16.9147C5.5415 17.5738 5.99641 18.1358 6.6159 18.242C10.1816 18.8532 13.8181 18.8532 17.3838 18.242C18.0033 18.1358 18.4582 17.5738 18.4582 16.9147V15.875C18.4582 14.0628 17.0591 12.5938 15.3332 12.5938H15.0491C14.8954 12.5938 14.7426 12.6193 14.5964 12.6694L13.8752 12.9167C12.6566 13.3345 11.3431 13.3345 10.1245 12.9167L9.40323 12.6694C9.25708 12.6193 9.1043 12.5938 8.95056 12.5938H8.6665Z" fill="black"/>
<rect x="1" y="1" width="32" height="22" rx="4" stroke="black" stroke-width="2"/>
</svg>
