<svg width="24" height="24" viewBox="0 0 24 24" fill="none" xmlns="http://www.w3.org/2000/svg">
<path fill-rule="evenodd" clip-rule="evenodd" d="M13.5579 5.53423C12.6873 4.69887 11.3128 4.69887 10.4422 5.53423L5.8158 9.97357C5.70245 10.0823 5.6262 10.224 5.59787 10.3785C5.04373 13.4004 5.00283 16.494 5.47687 19.5295L5.58939 20.25H8.56585V19.0387C8.56585 18.6244 8.90164 18.2887 9.31585 18.2887H14.6843C15.0985 18.2887 15.4343 18.6244 15.4343 19.0387V20.25H18.4107L18.5232 19.5295C18.9973 16.494 18.9564 13.4004 18.4023 10.3785C18.3739 10.224 18.2977 10.0823 18.1843 9.97357L13.5579 5.53423ZM9.40369 4.45191C10.8546 3.05965 13.1455 3.05965 14.5964 4.45191L19.2229 8.89125C19.5634 9.21804 19.7925 9.64373 19.8777 10.108C20.4622 13.2956 20.5053 16.559 20.0053 19.7609L19.8245 20.9184C19.7498 21.3971 19.3375 21.75 18.853 21.75H14.6843C14.2701 21.75 13.9343 21.4142 13.9343 21V19.7887H10.0659V21C10.0659 21.4142 9.73007 21.75 9.31585 21.75H5.14712C4.66264 21.75 4.25035 21.3971 4.1756 20.9184L3.99484 19.7609C3.49479 16.559 3.53794 13.2956 4.12247 10.108C4.2076 9.64373 4.43668 9.21804 4.77725 8.89125L9.40369 4.45191Z" fill="black"/>
<path d="M12.0002 9.5625C11.1372 9.5625 10.4377 10.2621 10.4377 11.125C10.4377 11.9879 11.1372 12.6875 12.0002 12.6875C12.8631 12.6875 13.5627 11.9879 13.5627 11.125C13.5627 10.2621 12.8631 9.5625 12.0002 9.5625Z" fill="black"/>
<path d="M10.3335 13.5208C9.47055 13.5208 8.771 14.2204 8.771 15.0833V15.5785C8.771 15.8923 8.99845 16.1599 9.30819 16.2105C11.091 16.5015 12.9093 16.5015 14.6921 16.2105C15.0019 16.1599 15.2293 15.8923 15.2293 15.5785V15.0833C15.2293 14.2204 14.5298 13.5208 13.6668 13.5208H13.5248C13.4479 13.5208 13.3715 13.533 13.2985 13.5568L12.9378 13.6746C12.3285 13.8736 11.6718 13.8736 11.0625 13.6746L10.7019 13.5568C10.6288 13.533 10.5524 13.5208 10.4755 13.5208H10.3335Z" fill="black"/>
</svg>
