<svg width="29" height="29" viewBox="0 0 29 29" fill="none" xmlns="http://www.w3.org/2000/svg">
<path d="M14.5002 7.125C12.8606 7.125 11.5314 8.52411 11.5314 10.25C11.5314 11.9759 12.8606 13.375 14.5002 13.375C16.1398 13.375 17.4689 11.9759 17.4689 10.25C17.4689 8.52411 16.1398 7.125 14.5002 7.125Z" fill="black"/>
<path d="M11.3335 15.0417C9.6939 15.0417 8.36475 16.4408 8.36475 18.1667V19.1569C8.36475 19.7846 8.7969 20.3198 9.38542 20.4209C12.7728 21.0031 16.2275 21.0031 19.6149 20.4209C20.2034 20.3198 20.6356 19.7846 20.6356 19.1569V18.1667C20.6356 16.4408 19.3064 15.0417 17.6668 15.0417H17.397C17.2509 15.0417 17.1058 15.066 16.9669 15.1137L16.2817 15.3492C15.1241 15.7471 13.8762 15.7471 12.7186 15.3492L12.0334 15.1137C11.8945 15.066 11.7494 15.0417 11.6034 15.0417H11.3335Z" fill="black"/>
<rect x="1" y="1" width="27" height="27" stroke="black" stroke-width="2" stroke-linecap="round" stroke-dasharray="4 18"/>
</svg>
